<?xml version="1.0" standalone="no"?>
<!DOCTYPE svg PUBLIC "-//W3C//DTD SVG 1.1//EN" "http://www.w3.org/Graphics/SVG/1.1/DTD/svg11.dtd" >
<svg>
<metadata>
Created by FontForge 20110222 at Thu Aug 28 01:33:07 2014
 By Orthosie Webhosting
Copyright (c) 1988, 1990, 1994 Adobe Systems Incorporated.  All Rights Reserved.Frutiger is a trademark of Linotype-Hell AG and/or its subsidiaries.
</metadata>
<defs>
<font id="Frutiger45Light" horiz-adv-x="556" >
  <font-face 
    font-family="Frutiger"
    font-weight="400"
    font-stretch="normal"
    units-per-em="1000"
    panose-1="2 11 5 0 0 0 0 0 0 0"
    ascent="800"
    descent="-200"
    x-height="510"
    cap-height="698"
    bbox="-151 -249 1000 929"
    underline-thickness="50"
    underline-position="-50"
    unicode-range="U+0020-F002"
  />
<missing-glyph horiz-adv-x="502" 
d="M0 0h499v500h-499v-500zM9 10v480h480v-480h-480z" />
    <glyph glyph-name=".notdef" horiz-adv-x="502" 
d="M0 0h499v500h-499v-500zM9 10v480h480v-480h-480z" />
    <glyph glyph-name=".null" horiz-adv-x="0" 
 />
    <glyph glyph-name="nonmarkingreturn" horiz-adv-x="500" 
 />
    <glyph glyph-name="space" unicode=" " horiz-adv-x="278" 
 />
    <glyph glyph-name="numbersign" unicode="#" 
d="M107 0h61l31 219h130l-31 -219h61l31 219h104v54h-96l21 152h103v54h-96l31 219h-61l-31 -219h-130l31 219h-61l-31 -219h-114v-54h107l-22 -152h-111v-54h104zM337 273h-130l21 152h130z" />
    <glyph glyph-name="dollar" unicode="$" 
d="M257 771v-65q-77 -12 -124.5 -59.5t-47.5 -118.5q0 -34 14.5 -62t38.5 -50.5t51.5 -40t67.5 -39.5v-287q-4 -1 -9 -1q-47 0 -84.5 10.5t-69.5 30.5l-7 -71q31 -13 71 -21t87 -8q8 0 12 1v-78h51v83q72 15 119 62.5t47 127.5q0 38 -13.5 68t-36.5 53t-50 40.5t-66 38.5
v265q37 -1 69.5 -7.5t54.5 -18.5l11 63q-32 12 -68.5 17.5t-66.5 5.5v61h-51zM308 307q47 -28 72 -55t25 -61q0 -54 -26 -87.5t-71 -46.5v250zM257 413q-50 28 -76.5 54.5t-26.5 62.5q0 49 29 77.5t74 37.5v-232z" />
    <glyph glyph-name="percent" unicode="%" horiz-adv-x="1000" 
d="M579 180q0 -85 39 -135.5t119 -50.5t119 50.5t39 135.5t-39 136t-119 51t-119 -51t-39 -136zM642 180q0 26 4.5 49t15.5 42t29.5 30.5t45.5 11.5t45.5 -11.5t29.5 -30.5t15.5 -42t4.5 -49t-4.5 -49t-15.5 -42t-29.5 -30.5t-45.5 -11.5t-45.5 11.5t-29.5 30.5t-15.5 42
t-4.5 49zM105 518q0 -85 39 -136t119 -51t119 51t39 136t-39 136t-119 51t-119 -51t-39 -136zM168 518q0 26 4.5 49t15.5 42t29.5 30.5t45.5 11.5t45.5 -11.5t29.5 -30.5t15.5 -42t4.5 -49t-4.5 -49t-15.5 -42t-29.5 -30.5t-45.5 -11.5t-45.5 11.5t-29.5 30.5t-15.5 42
t-4.5 49zM264 -21h58l413 741h-58z" />
    <glyph glyph-name="ampersand" unicode="&#x26;" horiz-adv-x="667" 
d="M308 376l7 3q42 21 66.5 35.5t46.5 35.5t35 49.5t13 66.5q0 69 -48 106.5t-116 37.5q-35 0 -68.5 -10t-60.5 -29t-43 -48t-16 -65q0 -45 22.5 -82t65.5 -87l3 -3q-77 -30 -121 -79t-44 -124q0 -49 18.5 -86t50.5 -61t73.5 -35.5t86.5 -11.5q63 0 116.5 22t95.5 69l74 -78
h88l-119 129q38 52 58 117.5t20 134.5h-60q0 -60 -14 -113.5t-46 -98.5zM453 123q-30 -37 -77.5 -59t-94.5 -22q-67 0 -114.5 38t-47.5 106q0 54 38.5 97t92.5 64zM193 554q0 48 34 75t81 27q45 0 72 -26.5t27 -74.5q0 -28 -11 -50t-29 -37.5t-37 -26t-51 -26.5l-7 -3l-1 1
q-38 43 -58 74t-20 67z" />
    <glyph glyph-name="quotesingle" unicode="'" horiz-adv-x="278" 
d="M108 480h63v218h-63v-218z" />
    <glyph glyph-name="parenleft" unicode="(" horiz-adv-x="278" 
d="M255 -139l-2 4q-73 140 -110.5 238.5t-37.5 204.5q0 107 37.5 205.5t110.5 238.5l2 4h-42q-82 -130 -126.5 -232.5t-44.5 -215.5t44.5 -215t126.5 -232h42z" />
    <glyph glyph-name="parenright" unicode=")" horiz-adv-x="278" 
d="M23 756l2 -4q74 -141 111 -239t37 -205q0 -106 -37.5 -205t-110.5 -238l-2 -4h42q83 130 127 232t44 215t-44 215.5t-127 232.5h-42z" />
    <glyph glyph-name="asterisk" unicode="*" 
d="M249 698l7 -153l-147 56l-17 -58l147 -42l-94 -119l49 -38l84 131l86 -131l50 38l-97 119l147 42l-19 58l-145 -56l7 153h-58z" />
    <glyph glyph-name="plus" unicode="+" horiz-adv-x="600" 
d="M46 219h219v-219h69v219h219v69h-219v219h-69v-219h-219v-69z" />
    <glyph glyph-name="comma" unicode="," horiz-adv-x="278" 
d="M54 -133h63l79 217h-84z" />
    <glyph glyph-name="hyphen" unicode="-" horiz-adv-x="333" 
d="M41 235h251v69h-251v-69z" />
    <glyph glyph-name="period" unicode="." horiz-adv-x="278" 
d="M98 0h81v84h-81v-84z" />
    <glyph glyph-name="slash" unicode="/" horiz-adv-x="278" 
d="M-30 -11h68l271 721h-69z" />
    <glyph glyph-name="zero" unicode="0" 
d="M278 645q51 0 83.5 -28t49 -72.5t22 -93t5.5 -102.5t-5.5 -103t-21.5 -93t-49 -72t-84 -28t-83.5 28t-49 72.5t-22 93t-5.5 102.5t5.5 103t21.5 93t49 72t84 28zM278 705q-66 0 -111.5 -31t-71 -82.5t-36 -113t-10.5 -129.5q0 -64 9 -124t33 -113t70 -85.5t117 -32.5
t117 32.5t70 85.5t33 113t9 124q0 68 -10.5 129.5t-36 113t-70.5 82.5t-112 31z" />
    <glyph glyph-name="one" unicode="1" 
d="M123 566l38 -45l113 99v-620h69v698h-62z" />
    <glyph glyph-name="two" unicode="2" 
d="M50 0h419v60h-334l126 138q40 44 72.5 83.5t59.5 80.5t43.5 82t16.5 78q0 91 -56 137t-146 46q-40 0 -87 -13t-89 -34l12 -63q43 25 83 37.5t85 12.5q52 0 87.5 -35.5t35.5 -90.5q0 -31 -13.5 -65.5t-37 -70t-52 -70.5t-65.5 -76l-160 -177v-60z" />
    <glyph glyph-name="three" unicode="3" 
d="M150 332h64q34 0 66 -4.5t60.5 -18t46.5 -40t18 -69.5q0 -38 -15.5 -66t-41.5 -46t-57.5 -26.5t-64.5 -8.5q-43 0 -85.5 7.5t-82.5 26.5l-8 -66q75 -27 172 -27q52 0 98 13t81 39.5t54 64t19 83.5q0 72 -38.5 119t-106.5 50v2q66 16 105.5 60.5t39.5 106.5q0 45 -18 78
t-49 54t-70.5 31t-84.5 10q-42 0 -85.5 -8.5t-83.5 -23.5l6 -65q79 37 156 37q29 0 57.5 -7t51.5 -21t37 -35.5t14 -49.5q0 -46 -22 -74.5t-57 -42.5t-74 -18.5t-84 -4.5h-18v-60z" />
    <glyph glyph-name="four" unicode="4" 
d="M23 161h333v-161h69v161h103v60h-103v477h-88l-314 -469v-68zM356 221h-270l268 408h2v-408z" />
    <glyph glyph-name="five" unicode="5" 
d="M458 698h-357l-7 -351q40 12 74.5 17t76.5 5q175 0 175 -158q0 -39 -15.5 -69t-42 -50t-59.5 -29.5t-68 -9.5q-38 0 -77.5 9.5t-71.5 26.5v-71q65 -24 149 -24q116 0 185 59.5t69 171.5q0 96 -58.5 150t-160.5 54q-36 0 -60.5 -4t-45.5 -11l5 224h289v60z" />
    <glyph glyph-name="six" unicode="6" 
d="M279 -6q106 0 167 63t61 166q0 62 -20 104.5t-52 67.5t-69.5 35.5t-75.5 10.5q-51 0 -94.5 -21.5t-69.5 -64.5h-2q0 56 12 107.5t39.5 92.5t74 65.5t111.5 24.5q30 0 61.5 -6t53.5 -16l6 66q-66 16 -112 16q-86 0 -147 -29t-98 -80.5t-53.5 -120t-16.5 -151.5
q0 -67 10 -125t34.5 -104.5t69 -73.5t110.5 -27zM290 381q72 0 110 -42.5t38 -120.5q0 -73 -41.5 -119t-115.5 -46q-73 0 -111.5 51t-38.5 122q0 70 42.5 112.5t116.5 42.5z" />
    <glyph glyph-name="seven" unicode="7" 
d="M138 0h76l270 638v60h-426v-60h358z" />
    <glyph glyph-name="eight" unicode="8" 
d="M68 542q0 -63 38 -106t101 -73q-78 -28 -119.5 -69t-41.5 -115q0 -46 20 -81.5t53.5 -58.5t74.5 -34t84 -11q44 0 85 9.5t74.5 32t53 58.5t19.5 85q0 40 -12 69.5t-34 50t-51 35.5t-69 29q61 34 102 77.5t41 101.5q0 41 -16.5 72t-46 51.5t-67 30t-79.5 9.5
q-34 0 -70.5 -9.5t-68.5 -29.5t-51.5 -51t-19.5 -73zM441 185q0 -34 -13.5 -60t-36.5 -41.5t-52 -23t-61 -7.5q-30 0 -59 9t-53 25.5t-37.5 40t-13.5 51.5q0 33 12 57t32.5 41t43.5 28t63 27q6 3 12 5q11 -5 31 -15q29 -14 50.5 -25.5t40 -27t30 -36.5t11.5 -48zM137 536
q0 52 41 80.5t100 28.5q54 0 97 -28.5t43 -80.5q0 -26 -12 -48t-32.5 -40t-44 -32t-51.5 -28l-3 1q-28 14 -50 26.5t-42.5 30t-33 40t-12.5 50.5z" />
    <glyph glyph-name="nine" unicode="9" 
d="M277 705q-106 0 -167 -63.5t-61 -166.5q0 -61 20 -104t52 -68t69.5 -35.5t75.5 -10.5q51 0 94.5 21.5t69.5 64.5h2q0 -56 -12 -107.5t-39.5 -92.5t-74 -65.5t-111.5 -24.5q-30 0 -61.5 6t-53.5 16l-6 -66q66 -15 112 -15q86 0 147 28.5t98 80t53.5 120t16.5 151.5
q0 67 -9.5 125.5t-34.5 104.5t-69.5 73.5t-110.5 27.5zM266 317q-72 0 -110 43t-38 120q0 73 41.5 119t115.5 46q73 0 111.5 -51t38.5 -122q0 -70 -42.5 -112.5t-116.5 -42.5z" />
    <glyph glyph-name="colon" unicode=":" horiz-adv-x="278" 
d="M179 510h-81v-84h81v84zM98 0h81v84h-81v-84z" />
    <glyph glyph-name="semicolon" unicode=";" horiz-adv-x="278" 
d="M54 -133h63l79 217h-84zM179 510h-81v-84h81v84z" />
    <glyph glyph-name="less" unicode="&#x3c;" horiz-adv-x="600" 
d="M553 514l-507 -230v-62l507 -229v65l-430 195l430 195v66z" />
    <glyph glyph-name="equal" unicode="=" horiz-adv-x="600" 
d="M46 319h507v69h-507v-69zM46 118h507v69h-507v-69z" />
    <glyph glyph-name="greater" unicode="&#x3e;" horiz-adv-x="600" 
d="M47 -7l507 229v62l-507 230v-66l431 -195l-431 -195v-65z" />
    <glyph glyph-name="question" unicode="?" horiz-adv-x="500" 
d="M89 622q43 14 74 21t66 7q55 0 90.5 -32.5t35.5 -86.5q0 -51 -19.5 -85t-58.5 -76q-43 -47 -65 -86t-22 -102v-13h63v15q0 53 21 89t64 82t64.5 83.5t21.5 92.5q0 88 -54.5 133.5t-137.5 45.5q-62 0 -146 -25zM182 0h81v84h-81v-84z" />
    <glyph glyph-name="at" unicode="@" horiz-adv-x="800" 
d="M266 290q0 43 14.5 81t38.5 66t51.5 43t51.5 15q32 0 56 -21t24 -69q0 -31 -12 -68t-34.5 -69.5t-52.5 -53t-65 -20.5q-32 0 -51 25.5t-21 70.5zM616 538h-63l-21 -60q-17 39 -45.5 58t-64.5 19q-50 0 -93 -23.5t-74 -62.5t-47.5 -87.5t-16.5 -97.5q0 -63 38.5 -106.5
t96.5 -43.5q45 0 71.5 16t51.5 45h2q12 -61 79 -61q32 0 71.5 19.5t75 55.5t57.5 87t22 112q0 71 -29.5 128t-80.5 96t-114.5 58.5t-130.5 19.5q-87 0 -155 -30t-114 -81t-69 -115.5t-23 -134.5q0 -69 23 -133.5t69 -116t114 -81t155 -29.5q107 0 192.5 45t132.5 125h-61
q-43 -51 -112 -81t-152 -30q-62 0 -116 22.5t-94.5 63.5t-62.5 96.5t-22 119.5t22 119t62.5 96t94.5 63t116 22q57 0 109.5 -16t93 -47.5t63.5 -77t23 -101.5q0 -42 -12 -81t-33 -69t-47.5 -47t-54.5 -17q-11 0 -16.5 6.5t-5.5 16.5q0 21 10 49z" />
    <glyph glyph-name="B" unicode="B" 
d="M340 365v2q126 25 126 159q0 48 -17.5 82t-48 53.5t-70 28t-84.5 8.5h-166v-698h139q58 0 106.5 10t85 33t57.5 62t21 94q0 67 -40 110.5t-109 55.5zM150 333h61q45 0 80.5 -4.5t64.5 -18.5t46.5 -42t17.5 -72q0 -40 -17 -66.5t-45.5 -42t-63 -21.5t-72.5 -6h-72v273z
M150 638h95q26 0 52 -4.5t48.5 -16t37 -35t14.5 -59.5q0 -39 -15.5 -65.5t-40.5 -40.5t-54 -19t-60 -5h-77v245z" />
    <glyph glyph-name="C" unicode="C" horiz-adv-x="667" 
d="M569 684q-24 13 -73 19.5t-87 6.5q-80 0 -145.5 -26t-111.5 -74.5t-70.5 -115t-24.5 -145.5q0 -80 24 -147t69.5 -115t111 -73t147.5 -25q41 0 87.5 6.5t72.5 22.5l-4 60q-27 -16 -70 -23t-86 -7q-135 0 -209 83t-74 218q0 65 19 120.5t55 95.5t89 62.5t120 22.5
q42 0 84 -7t72 -23z" />
    <glyph glyph-name="D" unicode="D" horiz-adv-x="667" 
d="M80 0h122q89 0 162 19.5t126.5 61.5t82.5 109t29 160q0 78 -20 141.5t-62 110t-108.5 71.5t-158.5 25h-173v-698zM149 638h101q61 0 112 -15t89.5 -48.5t60 -88.5t21.5 -132q0 -79 -22.5 -135t-65.5 -91.5t-103 -51.5t-136 -16h-57v578z" />
    <glyph glyph-name="E" unicode="E" horiz-adv-x="500" 
d="M86 0h354v60h-285v269h259v60h-259v249h273v60h-342v-698z" />
    <glyph glyph-name="F" unicode="F" horiz-adv-x="444" 
d="M77 0h69v329h251v60h-251v249h263v60h-332v-698z" />
    <glyph glyph-name="G" unicode="G" horiz-adv-x="722" 
d="M564 73q-22 -13 -64 -19t-84 -6q-135 0 -209 83t-74 218q0 65 19 120.5t55 95.5t89 62.5t120 22.5q52 0 96.5 -8t82.5 -29l8 64q-32 16 -86 24.5t-101 8.5q-80 0 -145.5 -26t-111.5 -74.5t-70.5 -115t-24.5 -145.5q0 -80 24 -147t69.5 -115t111 -73t147.5 -25
q59 0 112 9.5t105 32.5v347h-231v-60h162v-245z" />
    <glyph glyph-name="H" unicode="H" horiz-adv-x="667" 
d="M88 0h69v329h353v-329h69v698h-69v-309h-353v309h-69v-698z" />
    <glyph glyph-name="I" unicode="I" horiz-adv-x="222" 
d="M77 0h69v698h-69v-698z" />
    <glyph glyph-name="J" unicode="J" horiz-adv-x="333" 
d="M250 698h-69v-520q0 -58 -24 -94t-78 -36q-16 0 -34 3.5t-31 9.5v-61q15 -5 35 -8t37 -3q83 0 123.5 52.5t40.5 138.5v518z" />
    <glyph glyph-name="K" unicode="K" horiz-adv-x="611" 
d="M95 0h69v349l338 -349h95l-367 369l338 329h-90l-314 -313v313h-69v-698z" />
    <glyph glyph-name="L" unicode="L" horiz-adv-x="444" 
d="M80 0h349v60h-280v638h-69v-698z" />
    <glyph glyph-name="M" unicode="M" horiz-adv-x="889" 
d="M86 0h69v629h2l262 -629h59l254 629h2v-629h69v698h-99l-256 -614l-255 614h-107v-698z" />
    <glyph glyph-name="N" unicode="N" horiz-adv-x="667" 
d="M77 0h69v602h2l349 -602h93v698h-69v-614h-2l-355 614h-87v-698z" />
    <glyph glyph-name="O" unicode="O" horiz-adv-x="722" 
d="M54 349q2 -165 81 -262.5t226 -97.5t226.5 97.5t80.5 262.5q0 74 -19 139t-57.5 115t-96.5 78.5t-134 28.5q-75 0 -133.5 -28.5t-97 -78.5t-57.5 -115t-19 -139zM361 650q59 0 104.5 -25t75 -68.5t44 -97t14.5 -110.5t-14.5 -110.5t-44 -97t-75 -68.5t-104.5 -25
t-104.5 25t-75 68.5t-44 97t-14.5 110.5t14.5 110.5t44 97t75 68.5t104.5 25z" />
    <glyph glyph-name="P" unicode="P" horiz-adv-x="500" 
d="M86 0h69v302h96q98 0 160.5 52t62.5 146q0 97 -57.5 147.5t-158.5 50.5h-172v-698zM155 638h112q66 0 102 -36t36 -102q0 -45 -16 -73t-44 -42t-62 -18.5t-80 -4.5h-48v276z" />
    <glyph glyph-name="Q" unicode="Q" horiz-adv-x="722" 
d="M634 -129l-147 141q87 36 133.5 124t47.5 213q0 74 -19 139t-57.5 115t-96.5 78.5t-134 28.5q-75 0 -133.5 -28.5t-97 -78.5t-57.5 -115t-19 -139q2 -165 81 -262.5t226 -97.5q35 0 57 5l124 -123h92zM361 650q59 0 104.5 -25t75 -68.5t44 -97t14.5 -110.5t-14.5 -110.5
t-44 -97t-75 -68.5t-104.5 -25t-104.5 25t-75 68.5t-44 97t-14.5 110.5t14.5 110.5t44 97t75 68.5t104.5 25z" />
    <glyph glyph-name="R" unicode="R" 
d="M88 0h69v329h57q29 0 46.5 -2.5t32.5 -11t28.5 -27.5t28.5 -52l101 -236h76l-119 270l-2 5q-19 40 -35 57t-53 22v2q67 9 111 52.5t44 108.5q0 93 -54 137t-151 44h-180v-698zM157 638h71q43 0 72.5 -3.5t53 -15t37 -36.5t13.5 -66q0 -35 -15 -60t-40.5 -40t-55.5 -21.5
t-63 -6.5h-73v249z" />
    <glyph glyph-name="S" unicode="S" horiz-adv-x="500" 
d="M60 18q31 -13 71 -21t87 -8q42 0 82.5 11t74 35t53 62t19.5 88q0 38 -14 68.5t-37.5 53.5t-51 41t-66.5 38q-5 3 -16 9q-69 37 -102 65t-33 70q0 32 13 55.5t34.5 37.5t48 20.5t55.5 6.5q37 0 70.5 -7t56.5 -19l11 63q-32 12 -69.5 17.5t-67.5 5.5q-94 0 -157 -49
q-30 -24 -47 -58t-17 -75q0 -34 14.5 -62.5t38.5 -51t50.5 -39t70.5 -41.5l6 -3q71 -39 105.5 -68.5t34.5 -71.5q0 -71 -44 -107t-113 -36q-47 0 -84.5 10.5t-69.5 30.5z" />
    <glyph glyph-name="T" unicode="T" horiz-adv-x="500" 
d="M216 0h69v638h206v60h-481v-60h206v-638z" />
    <glyph glyph-name="U" unicode="U" horiz-adv-x="667" 
d="M587 698h-69v-454q0 -88 -48 -142t-136 -54t-136 54t-48 142v454h-69v-454q0 -73 23.5 -123.5t61.5 -79.5t81.5 -40.5t86.5 -11.5t86 11.5t81.5 40.5t62 79.5t23.5 123.5v454z" />
    <glyph glyph-name="V" unicode="V" horiz-adv-x="611" 
d="M605 698h-68l-233 -629l-225 629h-73l260 -698h74z" />
    <glyph glyph-name="W" unicode="W" horiz-adv-x="944" 
d="M935 698h-66l-175 -620h-2l-176 620h-83l-179 -620h-2l-172 620h-71l200 -698h83l180 620h2l177 -620h82z" />
    <glyph glyph-name="X" unicode="X" horiz-adv-x="611" 
d="M7 0h79l221 318l213 -318h84l-254 367l235 331h-77l-198 -282l-196 282h-81l234 -331z" />
    <glyph glyph-name="Y" unicode="Y" horiz-adv-x="611" 
d="M271 0h69v296l259 402h-75l-219 -341l-213 341h-80l259 -402v-296z" />
    <glyph glyph-name="Z" unicode="Z" horiz-adv-x="500" 
d="M21 0h449v60h-374l362 578v60h-428v-60h355l-364 -578v-60z" />
    <glyph glyph-name="bracketleft" unicode="[" horiz-adv-x="278" 
d="M69 -139h162v48h-99v799h99v48h-162v-895z" />
    <glyph glyph-name="backslash" unicode="\" horiz-adv-x="278" 
d="M38 710h-68l270 -721h69z" />
    <glyph glyph-name="bracketright" unicode="]" horiz-adv-x="278" 
d="M209 756h-162v-48h99v-799h-99v-48h162v895z" />
    <glyph glyph-name="asciicircum" unicode="^" horiz-adv-x="600" 
d="M50 265h71l179 364l179 -364h71l-218 433h-64z" />
    <glyph glyph-name="underscore" unicode="_" horiz-adv-x="500" 
d="M0 -74v-50h500v50h-500z" />
    <glyph glyph-name="grave" unicode="`" horiz-adv-x="222" 
d="M75 716h-78l125 -144h46z" />
    <glyph glyph-name="a" unicode="a" horiz-adv-x="500" 
d="M372 0h62q-3 24 -4 46t-1 61v225q0 100 -42 145t-137 45q-33 0 -77 -10.5t-73 -24.5v-61q66 42 150 42q62 0 89 -32t27 -99v-26h-12q-64 0 -114.5 -5t-96.5 -22t-74.5 -54t-28.5 -98q0 -21 6.5 -45t24.5 -46.5t52 -37t85 -14.5q50 0 96 24.5t66 68.5h2v-82zM366 226
q0 -31 -3.5 -59t-18 -57t-46 -48.5t-83.5 -19.5q-47 0 -76.5 22.5t-29.5 69.5q0 40 20.5 65t55 37.5t74.5 16.5t89 4h18v-31z" />
    <glyph glyph-name="b" unicode="b" 
d="M73 0h63v81h2q49 -92 159 -92q101 0 155.5 74t54.5 192q0 123 -49 192q-26 36 -66 55.5t-95 19.5q-35 0 -63.5 -11t-48.5 -27t-31.5 -32t-15.5 -28h-2v326h-63v-750zM438 255q0 -41 -7 -78t-24.5 -67.5t-47 -49t-72.5 -18.5q-40 0 -69 19t-47 50.5t-26.5 69t-8.5 74.5
q0 38 8 75t25.5 68.5t47 50.5t70.5 19q43 0 72.5 -18.5t47 -49t24.5 -67.5t7 -78z" />
    <glyph glyph-name="c" unicode="c" horiz-adv-x="444" 
d="M416 502q-23 8 -53.5 14t-69.5 6q-56 0 -102.5 -19.5t-80 -55t-51.5 -85t-18 -107.5q0 -54 15.5 -102.5t46 -85.5t77 -57.5t105.5 -20.5q39 0 70 3.5t61 13.5l-6 59q-62 -23 -115 -23q-42 0 -76.5 16.5t-58.5 46t-37 68t-13 82.5q0 95 51 154t141 59q24 0 53 -7t56 -19z
" />
    <glyph glyph-name="d" unicode="d" 
d="M483 750h-63v-326h-2q-4 11 -15.5 27.5t-31.5 32.5t-48.5 27t-63.5 11q-55 0 -95 -19.5t-66 -55.5q-49 -69 -49 -192q0 -118 54.5 -192t155.5 -74q110 0 159 92h2v-81h63v750zM118 255q0 41 7.5 78t24.5 67.5t46.5 49t72.5 18.5q40 0 69 -19t47 -50.5t26.5 -69t8.5 -74.5
t-8.5 -74.5t-26 -69t-47 -50.5t-69.5 -19q-43 0 -72.5 18.5t-47 49t-24.5 67.5t-7 78z" />
    <glyph glyph-name="e" unicode="e" horiz-adv-x="500" 
d="M421 80q-23 -15 -66.5 -26.5t-76.5 -11.5q-79 0 -123.5 55t-44.5 140h349v32q0 53 -12 98.5t-36.5 80.5t-63.5 54.5t-91 19.5q-47 0 -87 -19.5t-68.5 -55.5t-44 -85t-15.5 -107q0 -59 13 -107.5t40.5 -84.5t72 -55t106.5 -19q37 0 76.5 7t71.5 20v64zM110 291
q0 32 10.5 63.5t30 57.5t47.5 41t62 15t59 -14.5t40.5 -39.5t23 -56.5t7.5 -66.5h-280z" />
    <glyph glyph-name="f" unicode="f" horiz-adv-x="333" 
d="M122 0h63v456h115v54h-115v44q0 80 14 117t63 37q30 0 50 -11l4 55q-8 5 -25.5 7.5t-33.5 2.5q-47 0 -75 -17.5t-40.5 -47.5t-16 -65t-3.5 -85v-37h-103v-54h103v-456z" />
    <glyph glyph-name="g" unicode="g" 
d="M118 255q0 41 7.5 78t24.5 67.5t46.5 49t72.5 18.5q42 0 71.5 -15.5t47 -44t25 -66.5t7.5 -87q0 -37 -8.5 -72.5t-27 -64.5t-48.5 -46.5t-71 -17.5q-38 0 -66.5 16.5t-46.5 45.5t-26 64.5t-8 74.5zM483 510h-63v-58h-2q-33 43 -68 56.5t-91 13.5q-55 0 -95 -19.5
t-66 -55.5q-49 -69 -49 -192q0 -45 11.5 -90t36.5 -82t67 -60t100 -23q52 0 91.5 23.5t63.5 76.5h2q0 -63 -5.5 -107t-23 -79t-53.5 -55t-94 -20q-39 0 -79 10t-71 26l-5 -63h1q36 -11 73 -19t80 -8q64 0 110 19.5t74.5 55t41.5 82t13 100.5v468z" />
    <glyph glyph-name="h" unicode="h" 
d="M79 0h63v273q0 35 8.5 69.5t26 63t47 45.5t69.5 17q38 0 62 -12.5t37 -35t17.5 -51t4.5 -65.5v-304h63v305q0 50 -8.5 89t-28 68t-53.5 44.5t-84 15.5q-54 0 -96 -27t-63 -71h-2v326h-63v-750z" />
    <glyph glyph-name="i" unicode="i" horiz-adv-x="222" 
d="M79 0h63v510h-63v-510zM142 730h-63v-84h63v84z" />
    <glyph glyph-name="j" unicode="j" horiz-adv-x="222" 
d="M-27 -210q25 -5 54 -5q65 0 90 38t25 106v581h-63v-573q0 -49 -13 -73.5t-56 -24.5q-8 0 -19 2t-18 4v-55zM142 730h-63v-84h63v84z" />
    <glyph glyph-name="k" unicode="k" horiz-adv-x="500" 
d="M79 0h63v262l252 -262h87l-279 284l249 226h-81l-228 -209v449h-63v-750z" />
    <glyph glyph-name="l" unicode="l" horiz-adv-x="222" 
d="M79 0h63v750h-63v-750z" />
    <glyph glyph-name="m" unicode="m" horiz-adv-x="833" 
d="M758 0v351q0 76 -42.5 123.5t-118.5 47.5q-58 0 -101.5 -30.5t-61.5 -77.5h-2q-6 32 -20.5 53t-34.5 33t-40 17t-40 5q-36 0 -63 -9t-44 -23t-27 -27.5t-22 -33.5l-3 -6l-2 1v86h-61q4 -41 4 -120v-390h63v282q0 90 40.5 138t96.5 48q57 0 82.5 -35t25.5 -94v-339h63v282
q0 90 40.5 138t96.5 48q57 0 82.5 -35t25.5 -94v-339h63z" />
    <glyph glyph-name="n" unicode="n" 
d="M79 0h63v282q0 34 8 66.5t25.5 60t47 43.5t70.5 16q63 0 92 -41t29 -117v-310h63v326q0 90 -42 143t-132 53q-37 0 -65.5 -9t-47 -24t-30.5 -32t-22 -38h-2v91h-61q4 -41 4 -120v-390z" />
    <glyph glyph-name="o" unicode="o" 
d="M40 255q0 -53 14.5 -101.5t43.5 -85.5t74.5 -58t105.5 -21t105.5 21t74.5 58.5t43.5 85.5t14.5 101t-14.5 101.5t-43.5 85.5t-74.5 58.5t-105.5 21.5t-105 -21.5t-74.5 -59t-44 -85.5t-14.5 -101zM109 255q0 92 44.5 152.5t124.5 60.5t124.5 -60.5t44.5 -152.5
t-44.5 -152.5t-124.5 -60.5t-124.5 60.5t-44.5 152.5z" />
    <glyph glyph-name="p" unicode="p" 
d="M73 -209h63v296h2q24 -50 62 -74t97 -24q101 0 155.5 74t54.5 192q0 123 -49 192q-26 36 -66 55.5t-95 19.5q-36 0 -64 -10.5t-46.5 -26.5t-29.5 -31.5t-21 -32.5l-2 -4h-2l4 93h-63v-719zM438 255q0 -41 -7 -78t-24.5 -67.5t-47 -49t-72.5 -18.5q-40 0 -69 19t-47 50.5
t-26.5 69t-8.5 74.5t8.5 74.5t26 69t47 50.5t69.5 19q43 0 72.5 -18.5t47 -49t24.5 -67.5t7 -78z" />
    <glyph glyph-name="q" unicode="q" 
d="M483 510h-63v-83h-2l-3 5q-10 16 -20 28.5t-28.5 27.5t-45.5 24.5t-62 9.5q-55 0 -95 -19.5t-66 -55.5q-49 -69 -49 -192q0 -118 54.5 -192t155.5 -74q59 0 97 24t62 74h2v-296h63v719zM118 255q0 41 7.5 78t24.5 67.5t46.5 49t72.5 18.5q40 0 69 -19t47 -50.5t26.5 -69
t8.5 -74.5t-8.5 -74.5t-26 -69t-47 -50.5t-69.5 -19q-43 0 -72.5 18.5t-47 49t-24.5 67.5t-7 78z" />
    <glyph glyph-name="r" unicode="r" horiz-adv-x="333" 
d="M79 0h63v252q0 38 6 73.5t21 65t39.5 47.5t60.5 18q27 0 46 -6v66q-9 3 -21.5 4.5t-22.5 1.5q-45 0 -78.5 -31t-52.5 -79h-2v98h-63q3 -26 3.5 -46.5t0.5 -67.5v-396z" />
    <glyph glyph-name="s" unicode="s" horiz-adv-x="389" 
d="M34 12q60 -23 143 -23q31 0 62 7.5t57.5 24.5t42.5 45t16 67q0 33 -12 58t-32.5 43t-43.5 31t-55 28q-9 4 -11 5q-49 23 -73 40.5t-24 44.5q0 46 28.5 65.5t81.5 19.5q26 0 57.5 -6.5t55.5 -17.5l6 55q-31 12 -66.5 17.5t-59.5 5.5q-33 0 -62.5 -7.5t-53 -24.5t-37 -43.5
t-13.5 -63.5q0 -28 11 -49.5t29 -37t38.5 -26.5t53.5 -26l7 -4q53 -25 79.5 -47.5t26.5 -59.5q0 -42 -33 -66.5t-80 -24.5q-69 0 -133 32z" />
    <glyph glyph-name="t" unicode="t" horiz-adv-x="333" 
d="M299 510h-116v145l-63 -22v-123h-100v-54h100v-298q0 -43 3 -71t14 -50.5t35 -35t64 -12.5q21 0 42.5 4.5t34.5 8.5l-4 52q-15 -6 -28.5 -9t-29.5 -3q-36 0 -52 23t-16 61v330h116v54z" />
    <glyph glyph-name="u" unicode="u" 
d="M477 510h-63v-282q0 -34 -8 -66.5t-25.5 -59.5t-47 -43.5t-70.5 -16.5q-63 0 -92 41.5t-29 116.5v310h-63v-326q0 -90 42 -142.5t132 -52.5q38 0 66 8.5t47 23.5t30.5 32t21.5 38h2v-91h61q-4 41 -4 120v390z" />
    <glyph glyph-name="v" unicode="v" horiz-adv-x="444" 
d="M435 510h-66l-148 -441h-2l-141 441h-69l173 -510h74z" />
    <glyph glyph-name="w" unicode="w" horiz-adv-x="778" 
d="M771 510h-63l-141 -441h-2l-135 441h-76l-142 -441h-2l-134 441h-69l164 -510h76l139 441h2l139 -441h76z" />
    <glyph glyph-name="x" unicode="x" horiz-adv-x="444" 
d="M8 0h73l143 220l134 -220h78l-175 270l158 240h-72l-123 -190l-121 190h-78l162 -240z" />
    <glyph glyph-name="y" unicode="y" horiz-adv-x="444" 
d="M78 510h-69l181 -515l-13 -45q-18 -58 -36.5 -84.5t-55.5 -26.5q-15 0 -25 2t-22 6l-6 -54q34 -8 68 -8q48 0 78.5 38.5t52.5 101.5l204 585h-66l-147 -425h-1z" />
    <glyph glyph-name="z" unicode="z" horiz-adv-x="444" 
d="M32 0h380v54h-307l307 402v54h-368v-54h295l-307 -403v-53z" />
    <glyph glyph-name="braceleft" unicode="{" horiz-adv-x="278" 
d="M273 756h-55q-44 0 -73 -32.5t-29 -88.5v-168q0 -59 -20 -97t-58 -38v-48q38 0 58 -37t20 -95v-169q0 -56 29 -89t72 -33h56v48h-50q-22 0 -33 26.5t-11 66.5v162q0 35 -9 61.5t-23 43.5t-28 26t-24 12v2q10 3 24 12t28 26t23 43t9 60v165q0 40 11 66.5t33 26.5h50v48z
" />
    <glyph glyph-name="bar" unicode="|" horiz-adv-x="222" 
d="M77 750v-999h69v999h-69z" />
    <glyph glyph-name="braceright" unicode="}" horiz-adv-x="278" 
d="M5 -139h55q44 0 73 32.5t29 88.5v167q0 59 20 97t58 38v48q-38 0 -58 37t-20 95v170q0 56 -29 89t-72 33h-56v-48h50q23 0 33.5 -26.5t10.5 -67.5v-162q0 -35 9 -61.5t23 -43.5t28 -26t24 -12v-2q-10 -3 -24 -12t-28 -26t-23 -43t-9 -60v-165q0 -39 -10.5 -65.5
t-33.5 -26.5h-50v-48z" />
    <glyph glyph-name="asciitilde" unicode="~" horiz-adv-x="600" 
d="M495 324q-22 -35 -41.5 -54t-46.5 -19q-17 0 -38.5 8.5t-56.5 26.5l-4 2q-35 17 -62 26.5t-52 9.5q-45 0 -74.5 -25.5t-50.5 -65.5l36 -51q23 35 42 54t46 19q16 0 35.5 -7.5t50.5 -22.5l13 -6l3 -1q38 -18 62.5 -27t48.5 -9q45 0 74.5 26t50.5 65z" />
    <glyph glyph-name="nonbreakingspace" unicode="&#xa0;" horiz-adv-x="278" 
 />
    <glyph glyph-name="exclamdown" unicode="&#xa1;" horiz-adv-x="389" 
d="M154 -187h81l-12 528h-57zM235 510h-81v-84h81v84z" />
    <glyph glyph-name="cent" unicode="&#xa2;" 
d="M407 588l-22 -68q-11 2 -34 2q-56 0 -102.5 -19.5t-80 -55t-51.5 -85t-18 -107.5q0 -77 30.5 -140.5t88.5 -95.5l-37 -109h47l31 92q36 -13 84 -13q39 0 70 3.5t61 13.5l-6 59q-62 -23 -115 -23q-39 0 -75 17l134 402q33 -8 57 -19l5 60q-24 8 -45 12l25 74h-47zM239 83
q-34 29 -52.5 74t-18.5 98q0 95 51 154t141 59q4 0 7 -1z" />
    <glyph glyph-name="sterling" unicode="&#xa3;" 
d="M67 0h418v60h-246v287h166v54h-166v43q0 40 5 74t20.5 63t46 46.5t78.5 17.5q34 0 60 -6.5t42 -16.5l10 62q-15 8 -45.5 14.5t-66.5 6.5q-63 0 -106.5 -21t-68 -56.5t-34.5 -80.5t-10 -97v-49h-91v-54h91v-287h-103v-60z" />
    <glyph glyph-name="currency" unicode="&#xa4;" 
d="M27 141l43 -43l57 56q30 -26 69 -39.5t82 -13.5t83 13.5t69 39.5l54 -56l45 43l-54 55q51 63 51 153q0 42 -13 81.5t-38 69.5l54 55l-45 45l-54 -56q-31 26 -70.5 39.5t-81.5 13.5q-40 0 -80.5 -14t-70.5 -39l-57 56l-43 -45l57 -55q-27 -30 -40.5 -69.5t-13.5 -81.5
q0 -85 54 -153zM278 161q-38 0 -71 14.5t-57.5 40t-37.5 60t-13 73.5q0 36 13.5 69.5t38 60t57.5 42t70 16.5q38 0 71.5 -15t57.5 -41.5t37 -60.5t13 -71t-13 -71t-37 -60.5t-57 -41.5t-72 -15z" />
    <glyph glyph-name="yen" unicode="&#xa5;" 
d="M244 0h69v175h144v48h-144v75l3 6h141v48h-114l194 346h-71l-188 -337l-183 337h-76l195 -346h-114v-48h141l3 -6v-75h-144v-48h144v-175z" />
    <glyph glyph-name="section" unicode="&#xa7;" 
d="M421 688q-29 9 -66.5 15.5t-78.5 6.5q-31 0 -63 -8.5t-58.5 -26.5t-43 -47t-16.5 -68q0 -36 20 -62.5t55 -46.5l7 -4l-9 -8q-36 -32 -57.5 -62t-21.5 -67q0 -35 14.5 -61t39.5 -44t51 -30t71 -29q67 -26 100 -47.5t33 -59.5q0 -49 -41.5 -76.5t-92.5 -27.5q-89 0 -162 33
l-7 -59q81 -28 169 -28q28 0 62.5 8t66.5 26t53 50t21 76q0 39 -22 69t-56 49l5 5q36 37 53 64t17 67q0 33 -14 57.5t-37 42.5t-49.5 31t-64.5 29q-69 28 -102 51.5t-33 64.5q0 22 12.5 38.5t33 27t43 15t42.5 4.5q30 0 65.5 -8.5t53.5 -17.5zM313 382q44 -21 65 -41t21 -58
q0 -23 -10 -42t-28 -37l-21 -21l-117 51q-31 13 -48 33.5t-17 46.5q0 34 21 64t40 41l7 4z" />
    <glyph glyph-name="dieresis" unicode="&#xa8;" horiz-adv-x="222" 
d="M159 604h75v84h-75v-84zM-12 604h75v84h-75v-84z" />
    <glyph glyph-name="ordfeminine" unicode="&#xaa;" horiz-adv-x="325" 
d="M242 396h50q-3 22 -3 65v135q0 56 -28 85t-88 29q-29 0 -54.5 -5.5t-49.5 -14.5v-46q44 24 98 24q23 0 38 -6t22 -15.5t9 -19.5t2 -22v-15h-8q-41 0 -75 -3t-64 -13.5t-48.5 -34t-18.5 -60.5q0 -43 27.5 -67t87.5 -24q33 0 61.5 15t39.5 41h2v-48zM238 530q0 -18 -2 -33
t-11 -31t-29 -26t-52 -10q-31 0 -50 13t-19 41q0 19 13.5 31.5t35.5 19.5t47.5 10t54.5 3h12v-18z" />
    <glyph glyph-name="guillemotleft" unicode="&#xab;" 
d="M290 474h-59l-140 -205l140 -205h59l-133 205zM465 474h-59l-140 -205l140 -205h59l-133 205z" />
    <glyph glyph-name="logicalnot" unicode="&#xac;" horiz-adv-x="600" 
d="M46 319h438v-205h69v274h-507v-69z" />
    <glyph glyph-name="registered" unicode="&#xae;" horiz-adv-x="800" 
d="M39 349q0 -73 28 -139t78 -116t116 -77.5t139 -27.5t139 27.5t116 77.5t78 116t28 139t-28 139t-78 116t-116 78t-139 28t-139 -28t-116 -78t-78 -116t-28 -139zM108 349q0 64 22 120t61.5 98t93.5 65.5t116 23.5q61 0 114.5 -23.5t93 -65t61.5 -98t22 -120.5t-21.5 -120
t-61.5 -98t-93.5 -65.5t-114.5 -23.5q-62 0 -116 23.5t-93.5 65.5t-61.5 98t-22 120zM262 138h69v187h58l118 -187h73l-120 187q49 0 79 33t30 84q0 119 -145 119h-162v-423zM331 507h82q38 0 62.5 -14.5t24.5 -47.5q0 -39 -21.5 -52.5t-65.5 -13.5h-82v128z" />
    <glyph glyph-name="macron" unicode="&#xaf;" horiz-adv-x="222" 
d="M-10 614h243v54h-243v-54z" />
    <glyph glyph-name="degree" unicode="&#xb0;" horiz-adv-x="400" 
d="M200 657q47 0 77 -27.5t30 -73.5q0 -42 -32.5 -71.5t-74.5 -29.5t-74.5 29.5t-32.5 71.5q0 46 30 73.5t77 27.5zM200 705q-65 0 -111.5 -42t-46.5 -107t46.5 -107t111.5 -42t111.5 42t46.5 107t-46.5 107t-111.5 42z" />
    <glyph glyph-name="plusminus" unicode="&#xb1;" horiz-adv-x="600" 
d="M46 269h219v-169h69v169h219v69h-219v169h-69v-169h-219v-69zM46 0h507v69h-507v-69z" />
    <glyph glyph-name="acute" unicode="&#xb4;" horiz-adv-x="222" 
d="M53 572h46l126 144h-79z" />
    <glyph glyph-name="mu" unicode="&#xb5;" 
d="M79 -209h63v226q48 -28 111 -28q38 0 66 8.5t47 23.5t30.5 32t21.5 38h2v-91h61q-4 41 -4 120v390h-63v-282q0 -34 -8 -66.5t-25.5 -59.5t-47 -43.5t-70.5 -16.5q-63 0 -92 41.5t-29 116.5v310h-63v-719z" />
    <glyph glyph-name="paragraph" unicode="&#xb6;" horiz-adv-x="600" 
d="M256 -107h63v751h134v-751h63v805h-240q-108 0 -168 -48.5t-60 -143.5q0 -38 15.5 -72.5t43.5 -60t66 -39.5t83 -14v-427z" />
    <glyph glyph-name="cedilla" unicode="&#xb8;" horiz-adv-x="222" 
d="M75 -84q19 4 42 4q38 0 38 -37q0 -18 -14 -27.5t-38 -9.5t-49.5 9.5t-39.5 19.5l-7 -37q18 -7 46 -14.5t55 -7.5q20 0 39 3t35 10t26 21t10 35q0 30 -21 47.5t-52 17.5q-9 0 -26 -2q-5 -1 -7 -1l19 53h-27z" />
    <glyph glyph-name="ordmasculine" unicode="&#xba;" horiz-adv-x="361" 
d="M23 548q0 -69 39.5 -114.5t118.5 -45.5q78 1 117.5 47t39.5 113q0 71 -39 116t-118 46q-79 0 -118.5 -46t-39.5 -116zM74 548q0 50 29.5 85t77.5 35q49 0 77.5 -35t28.5 -85q0 -52 -28.5 -85t-77.5 -33t-78 33t-29 85z" />
    <glyph glyph-name="guillemotright" unicode="&#xbb;" 
d="M266 64h59l140 205l-140 205h-59l133 -205zM91 64h59l140 205l-140 205h-59l133 -205z" />
    <glyph glyph-name="questiondown" unicode="&#xbf;" horiz-adv-x="500" 
d="M411 -111q-43 -14 -74 -21t-66 -7q-55 0 -90.5 32.5t-35.5 86.5q0 50 19.5 84t58.5 76q43 47 65 86t22 102v13h-63v-15q0 -53 -21 -89t-63 -82q-44 -46 -65.5 -83.5t-21.5 -91.5q0 -88 54.5 -133.5t137.5 -45.5q62 0 146 25zM318 510h-81v-84h81v84z" />
    <glyph glyph-name="Agrave" unicode="&#xc0;" horiz-adv-x="667" 
d="M13 0h67l75 187h352l75 -187h72l-277 698h-78zM484 247h-303l152 385zM297 870h-78l125 -144h46z" />
    <glyph glyph-name="Aacute" unicode="&#xc1;" horiz-adv-x="667" 
d="M13 0h67l75 187h352l75 -187h72l-277 698h-78zM484 247h-303l152 385zM276 726h46l126 144h-79z" />
    <glyph glyph-name="Acircumflex" unicode="&#xc2;" horiz-adv-x="667" 
d="M13 0h67l75 187h352l75 -187h72l-277 698h-78zM484 247h-303l152 385zM201 726h45l88 102l88 -102h46l-93 144h-82z" />
    <glyph glyph-name="Atilde" unicode="&#xc3;" horiz-adv-x="667" 
d="M13 0h67l75 187h352l75 -187h72l-277 698h-78zM484 247h-303l152 385zM232 749q7 19 16.5 27.5t27.5 8.5q11 0 41 -10l6 -2q39 -13 62 -13q11 0 23.5 4t25 13.5t22 27t12.5 43.5h-37q-4 -16 -18 -25t-31 -9q-6 0 -28 8q-10 3 -16 5q-38 12 -61 12q-32 0 -52 -26.5
t-28 -63.5h35z" />
    <glyph glyph-name="Adieresis" unicode="&#xc4;" horiz-adv-x="667" 
d="M13 0h67l75 187h352l75 -187h72l-277 698h-78zM484 247h-303l152 385zM382 758h75v84h-75v-84zM211 758h75v84h-75v-84z" />
    <glyph glyph-name="Aring" unicode="&#xc5;" horiz-adv-x="667" 
d="M13 0h67l75 187h352l75 -187h72l-277 698h-78zM484 247h-303l152 385zM238 816q0 -41 27.5 -68t68.5 -27t68.5 27.5t27.5 67.5t-28 67.5t-68 27.5q-41 0 -68.5 -27.5t-27.5 -67.5zM274 816q0 25 18 42t42 17q25 0 42.5 -17t17.5 -42t-17 -42t-43 -17q-24 0 -42 17t-18 42
z" />
    <glyph glyph-name="AE" unicode="&#xc6;" horiz-adv-x="889" 
d="M0 0h76l116 187h286v-187h351v60h-283v269h257v60h-257v249h271v60h-381zM477 247h-248l246 397h2v-397z" />
    <glyph glyph-name="Ccedilla" unicode="&#xc7;" horiz-adv-x="667" 
d="M343 -84q19 4 42 4q38 0 38 -37q0 -18 -14 -27.5t-38 -9.5t-49.5 9.5t-39.5 19.5l-7 -37q18 -7 46 -14.5t55 -7.5q20 0 39 3t35 10t26 21t10 35q0 30 -21 47.5t-52 17.5q-9 0 -26 -2q-5 -1 -7 -1l15 42h14q41 0 87.5 6.5t72.5 22.5l-4 60q-27 -16 -70 -23t-86 -7
q-135 0 -209 83t-74 218q0 65 19 120.5t55 95.5t89 62.5t120 22.5q42 0 84 -7t72 -23l4 64q-24 13 -73 19.5t-87 6.5q-80 0 -145.5 -26t-111.5 -74.5t-70.5 -115t-24.5 -145.5q0 -80 24 -147t69.5 -115t110.5 -73q49 -18 107 -23z" />
    <glyph glyph-name="Egrave" unicode="&#xc8;" horiz-adv-x="500" 
d="M86 0h354v60h-285v269h259v60h-259v249h273v60h-342v-698zM214 870h-78l125 -144h46z" />
    <glyph glyph-name="Eacute" unicode="&#xc9;" horiz-adv-x="500" 
d="M86 0h354v60h-285v269h259v60h-259v249h273v60h-342v-698zM192 726h46l126 144h-79z" />
    <glyph glyph-name="Ecircumflex" unicode="&#xca;" horiz-adv-x="500" 
d="M86 0h354v60h-285v269h259v60h-259v249h273v60h-342v-698zM118 726h45l88 102l88 -102h46l-93 144h-82z" />
    <glyph glyph-name="Edieresis" unicode="&#xcb;" horiz-adv-x="500" 
d="M86 0h354v60h-285v269h259v60h-259v249h273v60h-342v-698zM298 758h75v84h-75v-84zM127 758h75v84h-75v-84z" />
    <glyph glyph-name="Igrave" unicode="&#xcc;" horiz-adv-x="222" 
d="M77 0h69v698h-69v-698zM75 870h-78l125 -144h46z" />
    <glyph glyph-name="Iacute" unicode="&#xcd;" horiz-adv-x="222" 
d="M77 0h69v698h-69v-698zM53 726h46l126 144h-79z" />
    <glyph glyph-name="Icircumflex" unicode="&#xce;" horiz-adv-x="222" 
d="M77 0h69v698h-69v-698zM-22 726h45l88 102l88 -102h46l-93 144h-82z" />
    <glyph glyph-name="Idieresis" unicode="&#xcf;" horiz-adv-x="222" 
d="M77 0h69v698h-69v-698zM159 758h75v84h-75v-84zM-12 758h75v84h-75v-84z" />
    <glyph glyph-name="Ntilde" unicode="&#xd1;" horiz-adv-x="667" 
d="M77 0h69v602h2l349 -602h93v698h-69v-614h-2l-355 614h-87v-698zM232 749q7 19 16.5 27.5t27.5 8.5q11 0 41 -10l6 -2q39 -13 62 -13q11 0 23.5 4t25 13.5t22 27t12.5 43.5h-37q-4 -16 -18 -25t-31 -9q-6 0 -28 8q-10 3 -16 5q-38 12 -61 12q-32 0 -52 -26.5t-28 -63.5
h35z" />
    <glyph glyph-name="Ograve" unicode="&#xd2;" horiz-adv-x="722" 
d="M54 349q2 -165 81 -262.5t226 -97.5t226.5 97.5t80.5 262.5q0 74 -19 139t-57.5 115t-96.5 78.5t-134 28.5q-75 0 -133.5 -28.5t-97 -78.5t-57.5 -115t-19 -139zM361 650q59 0 104.5 -25t75 -68.5t44 -97t14.5 -110.5t-14.5 -110.5t-44 -97t-75 -68.5t-104.5 -25
t-104.5 25t-75 68.5t-44 97t-14.5 110.5t14.5 110.5t44 97t75 68.5t104.5 25zM325 870h-78l125 -144h46z" />
    <glyph glyph-name="Oacute" unicode="&#xd3;" horiz-adv-x="722" 
d="M54 349q2 -165 81 -262.5t226 -97.5t226.5 97.5t80.5 262.5q0 74 -19 139t-57.5 115t-96.5 78.5t-134 28.5q-75 0 -133.5 -28.5t-97 -78.5t-57.5 -115t-19 -139zM361 650q59 0 104.5 -25t75 -68.5t44 -97t14.5 -110.5t-14.5 -110.5t-44 -97t-75 -68.5t-104.5 -25
t-104.5 25t-75 68.5t-44 97t-14.5 110.5t14.5 110.5t44 97t75 68.5t104.5 25zM303 726h46l126 144h-79z" />
    <glyph glyph-name="Ocircumflex" unicode="&#xd4;" horiz-adv-x="722" 
d="M54 349q2 -165 81 -262.5t226 -97.5t226.5 97.5t80.5 262.5q0 74 -19 139t-57.5 115t-96.5 78.5t-134 28.5q-75 0 -133.5 -28.5t-97 -78.5t-57.5 -115t-19 -139zM361 650q59 0 104.5 -25t75 -68.5t44 -97t14.5 -110.5t-14.5 -110.5t-44 -97t-75 -68.5t-104.5 -25
t-104.5 25t-75 68.5t-44 97t-14.5 110.5t14.5 110.5t44 97t75 68.5t104.5 25zM228 726h45l88 102l88 -102h46l-93 144h-82z" />
    <glyph glyph-name="Otilde" unicode="&#xd5;" horiz-adv-x="722" 
d="M54 349q2 -165 81 -262.5t226 -97.5t226.5 97.5t80.5 262.5q0 74 -19 139t-57.5 115t-96.5 78.5t-134 28.5q-75 0 -133.5 -28.5t-97 -78.5t-57.5 -115t-19 -139zM361 650q59 0 104.5 -25t75 -68.5t44 -97t14.5 -110.5t-14.5 -110.5t-44 -97t-75 -68.5t-104.5 -25
t-104.5 25t-75 68.5t-44 97t-14.5 110.5t14.5 110.5t44 97t75 68.5t104.5 25zM259 749q7 19 16.5 27.5t27.5 8.5q11 0 41 -10l6 -2q39 -13 62 -13q11 0 23.5 4t25 13.5t22 27t12.5 43.5h-37q-4 -16 -18 -25t-31 -9q-6 0 -28 8q-10 3 -16 5q-38 12 -61 12q-32 0 -52 -26.5
t-28 -63.5h35z" />
    <glyph glyph-name="Odieresis" unicode="&#xd6;" horiz-adv-x="722" 
d="M54 349q2 -165 81 -262.5t226 -97.5t226.5 97.5t80.5 262.5q0 74 -19 139t-57.5 115t-96.5 78.5t-134 28.5q-75 0 -133.5 -28.5t-97 -78.5t-57.5 -115t-19 -139zM361 650q59 0 104.5 -25t75 -68.5t44 -97t14.5 -110.5t-14.5 -110.5t-44 -97t-75 -68.5t-104.5 -25
t-104.5 25t-75 68.5t-44 97t-14.5 110.5t14.5 110.5t44 97t75 68.5t104.5 25zM409 758h75v84h-75v-84zM238 758h75v84h-75v-84z" />
    <glyph glyph-name="Oslash" unicode="&#xd8;" horiz-adv-x="722" 
d="M166 169q-21 39 -32 85t-11 95q0 57 14.5 110.5t44 97t75 68.5t104.5 25q51 0 91.5 -19t70.5 -54zM554 534q23 -39 34 -87t11 -98q0 -57 -14.5 -110.5t-44 -97t-75 -68.5t-104.5 -25q-52 0 -93.5 20t-71.5 56zM654 727l-86 -98q-79 81 -207 81q-75 0 -133.5 -28.5
t-97 -78.5t-57.5 -115t-19 -139q2 -147 63 -237l-88 -101l39 -32l81 92q77 -82 212 -82q147 0 226.5 97.5t80.5 262.5q0 146 -66 240l91 105z" />
    <glyph glyph-name="Ugrave" unicode="&#xd9;" horiz-adv-x="667" 
d="M587 698h-69v-454q0 -88 -48 -142t-136 -54t-136 54t-48 142v454h-69v-454q0 -73 23.5 -123.5t61.5 -79.5t81.5 -40.5t86.5 -11.5t86 11.5t81.5 40.5t62 79.5t23.5 123.5v454zM298 870h-78l125 -144h46z" />
    <glyph glyph-name="Uacute" unicode="&#xda;" horiz-adv-x="667" 
d="M587 698h-69v-454q0 -88 -48 -142t-136 -54t-136 54t-48 142v454h-69v-454q0 -73 23.5 -123.5t61.5 -79.5t81.5 -40.5t86.5 -11.5t86 11.5t81.5 40.5t62 79.5t23.5 123.5v454zM276 726h46l126 144h-79z" />
    <glyph glyph-name="Ucircumflex" unicode="&#xdb;" horiz-adv-x="667" 
d="M587 698h-69v-454q0 -88 -48 -142t-136 -54t-136 54t-48 142v454h-69v-454q0 -73 23.5 -123.5t61.5 -79.5t81.5 -40.5t86.5 -11.5t86 11.5t81.5 40.5t62 79.5t23.5 123.5v454zM201 726h45l88 102l88 -102h46l-93 144h-82z" />
    <glyph glyph-name="Udieresis" unicode="&#xdc;" horiz-adv-x="667" 
d="M587 698h-69v-454q0 -88 -48 -142t-136 -54t-136 54t-48 142v454h-69v-454q0 -73 23.5 -123.5t61.5 -79.5t81.5 -40.5t86.5 -11.5t86 11.5t81.5 40.5t62 79.5t23.5 123.5v454zM382 758h75v84h-75v-84zM211 758h75v84h-75v-84z" />
    <glyph glyph-name="germandbls" unicode="&#xdf;" 
d="M334 400v2q63 14 98.5 60t35.5 114q0 86 -51.5 136t-137.5 50q-99 0 -149.5 -59.5t-50.5 -160.5v-542h63v520q0 54 11 91t30 58t43 30t53 9q56 0 88 -37.5t32 -96.5q0 -69 -40.5 -111t-104.5 -42h-18v-54h10q93 0 142 -35t49 -118q0 -75 -38.5 -121t-108.5 -46
q-24 0 -45.5 4t-36.5 13l-4 -59q18 -6 41 -8.5t44 -2.5q100 0 158.5 61.5t58.5 159.5q0 81 -44 129.5t-128 55.5z" />
    <glyph glyph-name="agrave" unicode="&#xe0;" horiz-adv-x="500" 
d="M372 0h62q-3 24 -4 46t-1 61v225q0 100 -42 145t-137 45q-33 0 -77 -10.5t-73 -24.5v-61q66 42 150 42q62 0 89 -32t27 -99v-26h-12q-64 0 -114.5 -5t-96.5 -22t-74.5 -54t-28.5 -98q0 -21 6.5 -45t24.5 -46.5t52 -37t85 -14.5q50 0 96 24.5t66 68.5h2v-82zM366 226
q0 -31 -3.5 -59t-18 -57t-46 -48.5t-83.5 -19.5q-47 0 -76.5 22.5t-29.5 69.5q0 40 20.5 65t55 37.5t74.5 16.5t89 4h18v-31zM214 710h-78l125 -144h46z" />
    <glyph glyph-name="aacute" unicode="&#xe1;" horiz-adv-x="500" 
d="M372 0h62q-3 24 -4 46t-1 61v225q0 100 -42 145t-137 45q-33 0 -77 -10.5t-73 -24.5v-61q66 42 150 42q62 0 89 -32t27 -99v-26h-12q-64 0 -114.5 -5t-96.5 -22t-74.5 -54t-28.5 -98q0 -21 6.5 -45t24.5 -46.5t52 -37t85 -14.5q50 0 96 24.5t66 68.5h2v-82zM366 226
q0 -31 -3.5 -59t-18 -57t-46 -48.5t-83.5 -19.5q-47 0 -76.5 22.5t-29.5 69.5q0 40 20.5 65t55 37.5t74.5 16.5t89 4h18v-31zM192 566h46l126 144h-79z" />
    <glyph glyph-name="acircumflex" unicode="&#xe2;" horiz-adv-x="500" 
d="M372 0h62q-3 24 -4 46t-1 61v225q0 100 -42 145t-137 45q-33 0 -77 -10.5t-73 -24.5v-61q66 42 150 42q62 0 89 -32t27 -99v-26h-12q-64 0 -114.5 -5t-96.5 -22t-74.5 -54t-28.5 -98q0 -21 6.5 -45t24.5 -46.5t52 -37t85 -14.5q50 0 96 24.5t66 68.5h2v-82zM366 226
q0 -31 -3.5 -59t-18 -57t-46 -48.5t-83.5 -19.5q-47 0 -76.5 22.5t-29.5 69.5q0 40 20.5 65t55 37.5t74.5 16.5t89 4h18v-31zM117 566h45l88 102l88 -102h46l-93 144h-82z" />
    <glyph glyph-name="atilde" unicode="&#xe3;" horiz-adv-x="500" 
d="M372 0h62q-3 24 -4 46t-1 61v225q0 100 -42 145t-137 45q-33 0 -77 -10.5t-73 -24.5v-61q66 42 150 42q62 0 89 -32t27 -99v-26h-12q-64 0 -114.5 -5t-96.5 -22t-74.5 -54t-28.5 -98q0 -21 6.5 -45t24.5 -46.5t52 -37t85 -14.5q50 0 96 24.5t66 68.5h2v-82zM366 226
q0 -31 -3.5 -59t-18 -57t-46 -48.5t-83.5 -19.5q-47 0 -76.5 22.5t-29.5 69.5q0 40 20.5 65t55 37.5t74.5 16.5t89 4h18v-31zM148 589q7 19 16.5 27.5t27.5 8.5q11 0 41 -10l6 -2q39 -13 62 -13q11 0 23.5 4t25 13.5t22 27t12.5 43.5h-37q-4 -16 -18 -25t-31 -9q-6 0 -28 8
q-10 3 -16 5q-38 12 -61 12q-32 0 -52 -26.5t-28 -63.5h35z" />
    <glyph glyph-name="adieresis" unicode="&#xe4;" horiz-adv-x="500" 
d="M372 0h62q-3 24 -4 46t-1 61v225q0 100 -42 145t-137 45q-33 0 -77 -10.5t-73 -24.5v-61q66 42 150 42q62 0 89 -32t27 -99v-26h-12q-64 0 -114.5 -5t-96.5 -22t-74.5 -54t-28.5 -98q0 -21 6.5 -45t24.5 -46.5t52 -37t85 -14.5q50 0 96 24.5t66 68.5h2v-82zM366 226
q0 -31 -3.5 -59t-18 -57t-46 -48.5t-83.5 -19.5q-47 0 -76.5 22.5t-29.5 69.5q0 40 20.5 65t55 37.5t74.5 16.5t89 4h18v-31zM298 598h75v84h-75v-84zM127 598h75v84h-75v-84z" />
    <glyph glyph-name="aring" unicode="&#xe5;" horiz-adv-x="500" 
d="M372 0h62q-3 24 -4 46t-1 61v225q0 100 -42 145t-137 45q-33 0 -77 -10.5t-73 -24.5v-61q66 42 150 42q62 0 89 -32t27 -99v-26h-12q-64 0 -114.5 -5t-96.5 -22t-74.5 -54t-28.5 -98q0 -21 6.5 -45t24.5 -46.5t52 -37t85 -14.5q50 0 96 24.5t66 68.5h2v-82zM366 226
q0 -31 -3.5 -59t-18 -57t-46 -48.5t-83.5 -19.5q-47 0 -76.5 22.5t-29.5 69.5q0 40 20.5 65t55 37.5t74.5 16.5t89 4h18v-31zM154 648q0 -41 27.5 -68t68.5 -27t68.5 27.5t27.5 67.5t-28 67.5t-68 27.5q-41 0 -68.5 -27.5t-27.5 -67.5zM190 648q0 25 18 42t42 17
q25 0 42.5 -17t17.5 -42t-17 -42t-43 -17q-24 0 -42 17t-18 42z" />
    <glyph glyph-name="ae" unicode="&#xe6;" horiz-adv-x="833" 
d="M372 210q0 -76 -36 -122t-115 -46q-42 0 -74 22t-32 60q0 40 23.5 63.5t60 34t72 13t79.5 2.5h22v-27zM749 80q-23 -15 -66.5 -26.5t-76.5 -11.5q-84 0 -124.5 47t-40.5 125v23h346v32q0 53 -12 98.5t-36.5 80.5t-63.5 54.5t-91 19.5q-49 0 -93 -25t-72 -67
q-24 51 -63.5 71.5t-99.5 20.5q-33 0 -77 -10.5t-73 -24.5v-61q66 42 151 42q65 0 90 -39t25 -111v-27h-44q-52 0 -96 -4t-87.5 -20t-71 -51t-27.5 -92q0 -66 45 -100.5t123 -34.5q56 0 105 22.5t88 79.5q20 -47 69 -74.5t125 -27.5q37 0 76.5 7t71.5 20v64zM441 291
q0 33 10.5 64.5t30 57.5t47 40.5t59.5 14.5q34 0 59 -14.5t40.5 -39.5t23 -56.5t7.5 -66.5h-277z" />
    <glyph glyph-name="ccedilla" unicode="&#xe7;" horiz-adv-x="444" 
d="M231 -84q19 4 42 4q38 0 38 -37q0 -18 -14 -27.5t-38 -9.5t-49.5 9.5t-39.5 19.5l-7 -37q18 -7 46 -14.5t55 -7.5q20 0 39 3t35 10t26 21t10 35q0 30 -21 47.5t-52 17.5q-9 0 -26 -2q-5 -1 -7 -1l15 42h2q39 0 70 3.5t61 13.5l-6 59q-62 -23 -115 -23q-42 0 -76.5 16.5
t-58.5 46t-37 68t-13 82.5q0 95 51 154t141 59q24 0 53 -7t56 -19l5 60q-23 8 -53.5 14t-69.5 6q-56 0 -102.5 -19.5t-80 -55t-51.5 -85t-18 -107.5q0 -54 15.5 -102.5t46 -85.5t76.5 -58q35 -15 77 -19z" />
    <glyph glyph-name="egrave" unicode="&#xe8;" horiz-adv-x="500" 
d="M421 80q-23 -15 -66.5 -26.5t-76.5 -11.5q-79 0 -123.5 55t-44.5 140h349v32q0 53 -12 98.5t-36.5 80.5t-63.5 54.5t-91 19.5q-47 0 -87 -19.5t-68.5 -55.5t-44 -85t-15.5 -107q0 -59 13 -107.5t40.5 -84.5t72 -55t106.5 -19q37 0 76.5 7t71.5 20v64zM110 291
q0 32 10.5 63.5t30 57.5t47.5 41t62 15t59 -14.5t40.5 -39.5t23 -56.5t7.5 -66.5h-280zM214 710h-78l125 -144h46z" />
    <glyph glyph-name="eacute" unicode="&#xe9;" horiz-adv-x="500" 
d="M421 80q-23 -15 -66.5 -26.5t-76.5 -11.5q-79 0 -123.5 55t-44.5 140h349v32q0 53 -12 98.5t-36.5 80.5t-63.5 54.5t-91 19.5q-47 0 -87 -19.5t-68.5 -55.5t-44 -85t-15.5 -107q0 -59 13 -107.5t40.5 -84.5t72 -55t106.5 -19q37 0 76.5 7t71.5 20v64zM110 291
q0 32 10.5 63.5t30 57.5t47.5 41t62 15t59 -14.5t40.5 -39.5t23 -56.5t7.5 -66.5h-280zM192 566h46l126 144h-79z" />
    <glyph glyph-name="ecircumflex" unicode="&#xea;" horiz-adv-x="500" 
d="M421 80q-23 -15 -66.5 -26.5t-76.5 -11.5q-79 0 -123.5 55t-44.5 140h349v32q0 53 -12 98.5t-36.5 80.5t-63.5 54.5t-91 19.5q-47 0 -87 -19.5t-68.5 -55.5t-44 -85t-15.5 -107q0 -59 13 -107.5t40.5 -84.5t72 -55t106.5 -19q37 0 76.5 7t71.5 20v64zM110 291
q0 32 10.5 63.5t30 57.5t47.5 41t62 15t59 -14.5t40.5 -39.5t23 -56.5t7.5 -66.5h-280zM117 566h45l88 102l88 -102h46l-93 144h-82z" />
    <glyph glyph-name="edieresis" unicode="&#xeb;" horiz-adv-x="500" 
d="M421 80q-23 -15 -66.5 -26.5t-76.5 -11.5q-79 0 -123.5 55t-44.5 140h349v32q0 53 -12 98.5t-36.5 80.5t-63.5 54.5t-91 19.5q-47 0 -87 -19.5t-68.5 -55.5t-44 -85t-15.5 -107q0 -59 13 -107.5t40.5 -84.5t72 -55t106.5 -19q37 0 76.5 7t71.5 20v64zM110 291
q0 32 10.5 63.5t30 57.5t47.5 41t62 15t59 -14.5t40.5 -39.5t23 -56.5t7.5 -66.5h-280zM298 598h75v84h-75v-84zM127 598h75v84h-75v-84z" />
    <glyph glyph-name="igrave" unicode="&#xec;" horiz-adv-x="222" 
d="M79 0h63v510h-63v-510zM75 710h-78l125 -144h46z" />
    <glyph glyph-name="iacute" unicode="&#xed;" horiz-adv-x="222" 
d="M79 0h63v510h-63v-510zM53 566h46l126 144h-79z" />
    <glyph glyph-name="icircumflex" unicode="&#xee;" horiz-adv-x="222" 
d="M79 0h63v510h-63v-510zM-22 566h45l88 102l88 -102h46l-93 144h-82z" />
    <glyph glyph-name="idieresis" unicode="&#xef;" horiz-adv-x="222" 
d="M79 0h63v510h-63v-510zM159 598h75v84h-75v-84zM-12 598h75v84h-75v-84z" />
    <glyph glyph-name="ntilde" unicode="&#xf1;" 
d="M79 0h63v282q0 34 8 66.5t25.5 60t47 43.5t70.5 16q63 0 92 -41t29 -117v-310h63v326q0 90 -42 143t-132 53q-37 0 -65.5 -9t-47 -24t-30.5 -32t-22 -38h-2v91h-61q4 -41 4 -120v-390zM176 589q7 19 16.5 27.5t27.5 8.5q11 0 41 -10l6 -2q39 -13 62 -13q11 0 23.5 4
t25 13.5t22 27t12.5 43.5h-37q-4 -16 -18 -25t-31 -9q-6 0 -28 8q-10 3 -16 5q-38 12 -61 12q-32 0 -52 -26.5t-28 -63.5h35z" />
    <glyph glyph-name="ograve" unicode="&#xf2;" 
d="M40 255q0 -53 14.5 -101.5t43.5 -85.5t74.5 -58t105.5 -21t105.5 21t74.5 58.5t43.5 85.5t14.5 101t-14.5 101.5t-43.5 85.5t-74.5 58.5t-105.5 21.5t-105 -21.5t-74.5 -59t-44 -85.5t-14.5 -101zM109 255q0 92 44.5 152.5t124.5 60.5t124.5 -60.5t44.5 -152.5
t-44.5 -152.5t-124.5 -60.5t-124.5 60.5t-44.5 152.5zM242 710h-78l125 -144h46z" />
    <glyph glyph-name="oacute" unicode="&#xf3;" 
d="M40 255q0 -53 14.5 -101.5t43.5 -85.5t74.5 -58t105.5 -21t105.5 21t74.5 58.5t43.5 85.5t14.5 101t-14.5 101.5t-43.5 85.5t-74.5 58.5t-105.5 21.5t-105 -21.5t-74.5 -59t-44 -85.5t-14.5 -101zM109 255q0 92 44.5 152.5t124.5 60.5t124.5 -60.5t44.5 -152.5
t-44.5 -152.5t-124.5 -60.5t-124.5 60.5t-44.5 152.5zM220 566h46l126 144h-79z" />
    <glyph glyph-name="ocircumflex" unicode="&#xf4;" 
d="M40 255q0 -53 14.5 -101.5t43.5 -85.5t74.5 -58t105.5 -21t105.5 21t74.5 58.5t43.5 85.5t14.5 101t-14.5 101.5t-43.5 85.5t-74.5 58.5t-105.5 21.5t-105 -21.5t-74.5 -59t-44 -85.5t-14.5 -101zM109 255q0 92 44.5 152.5t124.5 60.5t124.5 -60.5t44.5 -152.5
t-44.5 -152.5t-124.5 -60.5t-124.5 60.5t-44.5 152.5zM145 566h45l88 102l88 -102h46l-93 144h-82z" />
    <glyph glyph-name="otilde" unicode="&#xf5;" 
d="M40 255q0 -53 14.5 -101.5t43.5 -85.5t74.5 -58t105.5 -21t105.5 21t74.5 58.5t43.5 85.5t14.5 101t-14.5 101.5t-43.5 85.5t-74.5 58.5t-105.5 21.5t-105 -21.5t-74.5 -59t-44 -85.5t-14.5 -101zM109 255q0 92 44.5 152.5t124.5 60.5t124.5 -60.5t44.5 -152.5
t-44.5 -152.5t-124.5 -60.5t-124.5 60.5t-44.5 152.5zM176 589q7 19 16.5 27.5t27.5 8.5q11 0 41 -10l6 -2q39 -13 62 -13q11 0 23.5 4t25 13.5t22 27t12.5 43.5h-37q-4 -16 -18 -25t-31 -9q-6 0 -28 8q-10 3 -16 5q-38 12 -61 12q-32 0 -52 -26.5t-28 -63.5h35z" />
    <glyph glyph-name="odieresis" unicode="&#xf6;" 
d="M40 255q0 -53 14.5 -101.5t43.5 -85.5t74.5 -58t105.5 -21t105.5 21t74.5 58.5t43.5 85.5t14.5 101t-14.5 101.5t-43.5 85.5t-74.5 58.5t-105.5 21.5t-105 -21.5t-74.5 -59t-44 -85.5t-14.5 -101zM109 255q0 92 44.5 152.5t124.5 60.5t124.5 -60.5t44.5 -152.5
t-44.5 -152.5t-124.5 -60.5t-124.5 60.5t-44.5 152.5zM326 598h75v84h-75v-84zM155 598h75v84h-75v-84z" />
    <glyph glyph-name="divide" unicode="&#xf7;" horiz-adv-x="600" 
d="M46 219h507v69h-507v-69zM236 450q0 -26 19 -45t45 -19q25 0 44.5 20t19.5 44q0 26 -19 45t-45 19t-45 -19t-19 -45zM236 57q0 -26 19 -44.5t45 -18.5q25 0 44.5 19.5t19.5 43.5q0 26 -19 45t-45 19t-45 -19t-19 -45z" />
    <glyph glyph-name="oslash" unicode="&#xf8;" 
d="M502 545l-68 -79q-58 56 -156 56q-60 0 -105 -21.5t-74.5 -59t-44 -85.5t-14.5 -101q0 -52 13.5 -98t40.5 -82l-75 -85l35 -29l70 80q61 -52 154 -52q60 0 105.5 21t74.5 58.5t43.5 85.5t14.5 101q0 51 -13 97t-39 80l73 84zM139 127q-30 54 -30 128q0 92 44.5 152.5
t124.5 60.5q69 0 115 -49zM419 380q28 -52 28 -125q0 -92 -44.5 -152.5t-124.5 -60.5q-68 0 -112 47z" />
    <glyph glyph-name="ugrave" unicode="&#xf9;" 
d="M477 510h-63v-282q0 -34 -8 -66.5t-25.5 -59.5t-47 -43.5t-70.5 -16.5q-63 0 -92 41.5t-29 116.5v310h-63v-326q0 -90 42 -142.5t132 -52.5q38 0 66 8.5t47 23.5t30.5 32t21.5 38h2v-91h61q-4 41 -4 120v390zM242 710h-78l125 -144h46z" />
    <glyph glyph-name="uacute" unicode="&#xfa;" 
d="M477 510h-63v-282q0 -34 -8 -66.5t-25.5 -59.5t-47 -43.5t-70.5 -16.5q-63 0 -92 41.5t-29 116.5v310h-63v-326q0 -90 42 -142.5t132 -52.5q38 0 66 8.5t47 23.5t30.5 32t21.5 38h2v-91h61q-4 41 -4 120v390zM220 566h46l126 144h-79z" />
    <glyph glyph-name="ucircumflex" unicode="&#xfb;" 
d="M477 510h-63v-282q0 -34 -8 -66.5t-25.5 -59.5t-47 -43.5t-70.5 -16.5q-63 0 -92 41.5t-29 116.5v310h-63v-326q0 -90 42 -142.5t132 -52.5q38 0 66 8.5t47 23.5t30.5 32t21.5 38h2v-91h61q-4 41 -4 120v390zM145 566h45l88 102l88 -102h46l-93 144h-82z" />
    <glyph glyph-name="udieresis" unicode="&#xfc;" 
d="M477 510h-63v-282q0 -34 -8 -66.5t-25.5 -59.5t-47 -43.5t-70.5 -16.5q-63 0 -92 41.5t-29 116.5v310h-63v-326q0 -90 42 -142.5t132 -52.5q38 0 66 8.5t47 23.5t30.5 32t21.5 38h2v-91h61q-4 41 -4 120v390zM326 598h75v84h-75v-84zM155 598h75v84h-75v-84z" />
    <glyph glyph-name="ydieresis" unicode="&#xff;" horiz-adv-x="444" 
d="M78 510h-69l181 -515l-13 -45q-18 -58 -36.5 -84.5t-55.5 -26.5q-15 0 -25 2t-22 6l-6 -54q34 -8 68 -8q48 0 78.5 38.5t52.5 101.5l204 585h-66l-147 -425h-1zM270 595h75v84h-75v-84zM99 595h75v84h-75v-84z" />
    <glyph glyph-name="dotlessi" unicode="&#x131;" horiz-adv-x="222" 
d="M79 0h63v510h-63v-510z" />
    <glyph glyph-name="OE" unicode="&#x152;" horiz-adv-x="889" 
d="M817 698h-318q-30 0 -84 4q-54 3 -84 3q-72 0 -125 -29.5t-86.5 -80.5t-49.5 -114.5t-16 -131.5t16 -131.5t49.5 -114.5t86.5 -80t125 -29q30 0 84 3t84 3h330v60h-283v269h257v60h-257v249h271v60zM477 60q-36 -3 -64.5 -4.5t-62.5 -1.5q-27 0 -59.5 6.5t-72 34.5
t-67.5 90t-28 164t28 164t67.5 90t72 34.5t59.5 6.5q37 0 95 -4q25 -2 32 -2v-578z" />
    <glyph glyph-name="oe" unicode="&#x153;" horiz-adv-x="889" 
d="M503 291q0 80 39.5 128.5t110.5 48.5q62 0 96 -52t34 -125h-280zM852 237v34q0 50 -12 95t-36.5 80.5t-63.5 55.5t-91 20q-126 0 -183 -110q-26 56 -75.5 83t-116.5 27q-60 0 -105 -21.5t-74.5 -59t-44 -85.5t-14.5 -101t14.5 -101.5t43.5 -85.5t74.5 -58t105.5 -21
q69 0 118.5 27t77.5 76q27 -50 75 -76.5t121 -26.5q37 0 76.5 7t71.5 20v64q-23 -15 -66.5 -26.5t-76.5 -11.5q-79 0 -123.5 55t-44.5 140h349zM105 255q0 92 44.5 152.5t124.5 60.5q46 0 77.5 -17t49.5 -47t25.5 -67.5t7.5 -81.5q0 -46 -7.5 -84t-26 -67t-49.5 -45.5
t-77 -16.5q-80 0 -124.5 60.5t-44.5 152.5z" />
    <glyph glyph-name="Ydieresis" unicode="&#x178;" horiz-adv-x="611" 
d="M354 758h75v84h-75v-84zM183 758h75v84h-75v-84zM271 0h69v296l259 402h-75l-219 -341l-213 341h-80l259 -402v-296z" />
    <glyph glyph-name="florin" unicode="&#x192;" 
d="M458 419h-115l18 92q17 80 40.5 110t62.5 30q24 0 56 -13l13 50q-34 17 -64 17q-44 0 -75 -16t-50 -43t-30 -60t-20 -76l-17 -91h-122v-54h111l-67 -352q-8 -42 -16 -72.5t-20.5 -53.5t-31.5 -35.5t-47 -12.5q-10 0 -29 5q-8 3 -14 4l-16 -53q12 -4 28.5 -7t29.5 -3
q80 0 117 49.5t61 167.5l71 363h126v54z" />
    <glyph glyph-name="circumflex" unicode="&#x2c6;" horiz-adv-x="222" 
d="M-22 572h45l88 102l88 -102h46l-93 144h-82z" />
    <glyph glyph-name="caron" unicode="&#x2c7;" horiz-adv-x="222" 
d="M245 716h-46l-88 -102l-88 102h-45l92 -144h82z" />
    <glyph glyph-name="breve" unicode="&#x2d8;" horiz-adv-x="222" 
d="M-11 699q7 -52 39 -84t83 -32t83.5 32t39.5 84h-30q-8 -29 -33.5 -42.5t-59.5 -13.5t-59.5 13.5t-33.5 42.5h-29z" />
    <glyph glyph-name="dotaccent" unicode="&#x2d9;" horiz-adv-x="222" 
d="M74 604h75v84h-75v-84z" />
    <glyph glyph-name="ring" unicode="&#x2da;" horiz-adv-x="222" 
d="M15 648q0 -41 27.5 -68t68.5 -27t68.5 27.5t27.5 67.5t-28 67.5t-68 27.5q-41 0 -68.5 -27.5t-27.5 -67.5zM51 648q0 25 18 42t42 17q25 0 42.5 -17t17.5 -42t-17 -42t-43 -17q-24 0 -42 17t-18 42z" />
    <glyph glyph-name="ogonek" unicode="&#x2db;" horiz-adv-x="222" 
d="M254 -136q-22 -37 -60 -37q-52 0 -52 50q0 28 18.5 56.5t67.5 66.5h-28l-5 -2q-21 -12 -38.5 -24t-35.5 -29t-30 -37.5t-12 -43.5q0 -33 27 -53t61 -20q40 0 65.5 20.5t35.5 44.5z" />
    <glyph glyph-name="tilde" unicode="&#x2dc;" horiz-adv-x="222" 
d="M9 595q7 19 16.5 27.5t27.5 8.5q11 0 41 -10l6 -2q39 -13 62 -13q11 0 23.5 4t25 13.5t22 27t12.5 43.5h-37q-4 -16 -18 -25t-31 -9q-6 0 -28 8q-10 3 -16 5q-38 12 -61 12q-32 0 -52 -26.5t-28 -63.5h35z" />
    <glyph glyph-name="hungarumlaut" unicode="&#x2dd;" horiz-adv-x="222" 
d="M138 572h46l126 144h-79zM-31 572h45l126 144h-79z" />
    <glyph glyph-name="endash" unicode="&#x2013;" horiz-adv-x="500" 
d="M0 242h500v54h-500v-54z" />
    <glyph glyph-name="emdash" unicode="&#x2014;" horiz-adv-x="1000" 
d="M0 242h1000v54h-1000v-54z" />
    <glyph glyph-name="quoteleft" unicode="&#x2018;" horiz-adv-x="278" 
d="M206 698h-57l-77 -218h75z" />
    <glyph glyph-name="quoteright" unicode="&#x2019;" horiz-adv-x="278" 
d="M72 480h57l77 218h-75z" />
    <glyph glyph-name="quotesinglbase" unicode="&#x201a;" horiz-adv-x="278" 
d="M72 -133h57l77 217h-75z" />
    <glyph glyph-name="quotedblleft" unicode="&#x201c;" 
d="M257 698h-57l-77 -218h75zM433 698h-57l-77 -218h75z" />
    <glyph glyph-name="quotedblright" unicode="&#x201d;" 
d="M299 480h57l77 218h-75zM123 480h57l77 218h-75z" />
    <glyph glyph-name="quotedblbase" unicode="&#x201e;" 
d="M123 -133h57l77 217h-75zM299 -133h57l77 217h-75z" />
    <glyph glyph-name="dagger" unicode="&#x2020;" 
d="M246 0h63v456h176v54h-176v188h-63v-188h-175v-54h175v-456z" />
    <glyph glyph-name="daggerdbl" unicode="&#x2021;" 
d="M71 188h175v-188h63v188h176v54h-176v214h176v54h-176v188h-63v-188h-175v-54h175v-214h-175v-54z" />
    <glyph glyph-name="bullet" unicode="&#x2022;" horiz-adv-x="500" 
d="M76 349q0 -35 13.5 -67t37.5 -56t56 -37.5t67 -13.5t67 13.5t56.5 37.5t38 56t13.5 67t-13.5 67t-38 56.5t-56.5 38t-67 13.5t-67 -13.5t-56 -38t-37.5 -56.5t-13.5 -67z" />
    <glyph glyph-name="ellipsis" unicode="&#x2026;" horiz-adv-x="1000" 
d="M127 0h81v84h-81v-84zM460 0h81v84h-81v-84zM793 0h81v84h-81v-84z" />
    <glyph glyph-name="perthousand" unicode="&#x2030;" horiz-adv-x="1000" 
d="M42 528q0 -37 6 -68.5t20.5 -56t41 -38.5t64.5 -14q39 0 65 14t40.5 38t20.5 55.5t6 69.5t-6 69.5t-20.5 56t-40.5 38t-65 13.5t-65 -14t-40.5 -38t-20.5 -55.5t-6 -69.5zM105 528q0 27 1.5 46.5t8 38.5t21 31.5t38.5 12.5t38.5 -12.5t21 -31.5t8 -38.5t1.5 -46.5
t-1.5 -46.5t-8 -38.5t-21 -31.5t-38.5 -12.5t-38.5 12.5t-21 31.5t-8 38.5t-1.5 46.5zM380 170q0 -35 5.5 -66t19.5 -56t40.5 -39.5t66.5 -14.5t66.5 14.5t40.5 39.5t19.5 56t5.5 66q0 36 -5.5 66.5t-19.5 55.5t-40.5 40t-66.5 15t-66.5 -15t-40.5 -40t-19.5 -55.5
t-5.5 -66.5zM443 170q0 27 1.5 46.5t8 38.5t21 31.5t38.5 12.5t38.5 -12.5t21 -31.5t8 -38.5t1.5 -46.5t-1.5 -46.5t-8 -38.5t-21 -31.5t-38.5 -12.5t-38.5 12.5t-21 31.5t-8 38.5t-1.5 46.5zM694 170q0 -35 5.5 -66t19.5 -56t40.5 -39.5t66.5 -14.5t66.5 14.5t40.5 39.5
t19.5 56t5.5 66q0 36 -5.5 66.5t-19.5 55.5t-40.5 40t-66.5 15t-66.5 -15t-40.5 -40t-19.5 -55.5t-5.5 -66.5zM757 170q0 27 1.5 46.5t8 38.5t21 31.5t38.5 12.5t38.5 -12.5t21 -31.5t8 -38.5t1.5 -46.5t-1.5 -46.5t-8 -38.5t-21 -31.5t-38.5 -12.5t-38.5 12.5t-21 31.5
t-8 38.5t-1.5 46.5zM108 -21h58l413 741h-58z" />
    <glyph glyph-name="guilsinglleft" unicode="&#x2039;" horiz-adv-x="278" 
d="M238 474h-59l-140 -205l140 -205h59l-133 205z" />
    <glyph glyph-name="guilsinglright" unicode="&#x203a;" horiz-adv-x="278" 
d="M40 64h59l140 205l-140 205h-59l133 -205z" />
    <glyph glyph-name="fraction" unicode="&#x2044;" horiz-adv-x="167" 
d="M-151 -21h57l412 741h-57z" />
    <glyph glyph-name="trademark" unicode="&#x2122;" horiz-adv-x="990" 
d="M195 284h63v366h131v48h-325v-48h131v-366zM478 284h63v360h2l137 -360h43l138 360h2v-360h63v414h-102l-122 -319l-122 319h-102v-414z" />
    <glyph glyph-name="periodcentered" unicode="&#xb7;" horiz-adv-x="278" 
d="M92 311q0 -22 14.5 -34.5t33.5 -12.5t33 13t14 34q0 22 -14.5 35t-32.5 13q-19 0 -33.5 -13t-14.5 -35z" />
    <glyph glyph-name="periodcentered" unicode="&#x2219;" horiz-adv-x="278" 
d="M92 311q0 -22 14.5 -34.5t33.5 -12.5t33 13t14 34q0 22 -14.5 35t-32.5 13q-19 0 -33.5 -13t-14.5 -35z" />
    <glyph glyph-name="A" unicode="A" horiz-adv-x="667" 
d="M13 0h67l75 187h352l75 -187h72l-277 698h-78zM484 247h-303l152 385z" />
    <glyph glyph-name="copyright" unicode="&#xa9;" horiz-adv-x="800" 
d="M530 280q-8 -46 -39 -74t-78 -28q-66 0 -106.5 50t-40.5 122q0 76 38 123.5t107 47.5q46 0 78 -26.5t41 -70.5h60q-10 72 -59.5 111.5t-120.5 39.5q-98 0 -155.5 -63t-57.5 -163q0 -47 15.5 -88.5t44 -72t68.5 -47.5t88 -17q66 0 114.5 42t63.5 114h-61zM39 349
q0 -73 28 -139t78 -116t116 -77.5t139 -27.5t139 27.5t116 77.5t78 116t28 139t-28 139t-78 116t-116 78t-139 28t-139 -28t-116 -78t-78 -116t-28 -139zM108 349q0 64 22 120t61.5 98t93.5 65.5t116 23.5q61 0 114.5 -23.5t93 -65t61.5 -98t22 -120.5t-21.5 -120t-61.5 -98
t-93.5 -65.5t-114.5 -23.5q-62 0 -116 23.5t-93.5 65.5t-61.5 98t-22 120z" />
    <glyph glyph-name="quotedbl" unicode="&#x22;" 
d="M179 480h63v218h-63v-218zM314 480h63v218h-63v-218z" />
    <glyph glyph-name="exclam" unicode="!" horiz-adv-x="389" 
d="M235 698h-81l12 -529h57zM154 0h81v84h-81v-84z" />
    <glyph glyph-name="glyph209" horiz-adv-x="278" 
 />
    <glyph glyph-name="glyph210" horiz-adv-x="278" 
 />
    <glyph glyph-name=".274" horiz-adv-x="667" 
d="M13 0h67l75 187h352l75 -187h72l-277 698h-78zM484 247h-303l152 385z" />
    <glyph glyph-name="brokenbar" unicode="&#xa6;" horiz-adv-x="222" 
d="M77 675v-350h69v350h-69zM77 175v-349h69v349h-69z" />
    <glyph glyph-name="FL275" horiz-adv-x="800" 
d="M39 349q0 -73 28 -139t78 -116t116 -77.5t139 -27.5t139 27.5t116 77.5t78 116t28 139t-28 139t-78 116t-116 78t-139 28t-139 -28t-116 -78t-78 -116t-28 -139zM108 349q0 64 22 120t61.5 98t93.5 65.5t116 23.5q61 0 114.5 -23.5t93 -65t61.5 -98t22 -120.5t-21.5 -120
t-61.5 -98t-93.5 -65.5t-114.5 -23.5q-62 0 -116 23.5t-93.5 65.5t-61.5 98t-22 120z" />
    <glyph glyph-name="minus" unicode="&#xad;" horiz-adv-x="600" 
d="M46 219h507v69h-507v-69z" />
    <glyph glyph-name="twosuperior" unicode="&#xb2;" horiz-adv-x="361" 
d="M45 284h272v48h-197l74 65l4 4q54 51 84.5 93t30.5 95q0 59 -37 87.5t-98 28.5q-29 0 -59.5 -7.5t-57.5 -20.5l8 -50q55 30 109 30q33 0 55.5 -19t22.5 -52q0 -36 -29 -78t-76 -88l-106 -95v-41z" />
    <glyph glyph-name="threesuperior" unicode="&#xb3;" horiz-adv-x="361" 
d="M99 476h28q25 0 46 -1.5t42 -8.5t35 -22.5t14 -41.5q0 -34 -31.5 -55.5t-73.5 -21.5q-67 0 -120 21l-5 -52q28 -9 56.5 -13t63.5 -4q30 0 59.5 7t54 21.5t39 37.5t14.5 53q0 44 -25.5 73t-71.5 31v2q43 9 69 35t26 63q0 27 -12.5 47.5t-33.5 33t-46.5 18.5t-52.5 6
q-28 0 -62 -5t-57 -14l4 -52q49 23 103 23q17 0 33 -2t31.5 -8t25.5 -18.5t10 -32.5q0 -23 -14 -37.5t-35 -22t-43 -10t-43 -2.5h-28v-48z" />
    <glyph glyph-name="onesuperior" unicode="&#xb9;" horiz-adv-x="361" 
d="M232 705h-52l-103 -80l22 -33l76 58v-366h57v421z" />
    <glyph glyph-name="onequarter" unicode="&#xbc;" horiz-adv-x="834" 
d="M130 -21h57l443 741h-57zM226 705h-52l-103 -80l22 -33l76 58v-366h57v421zM431 91h219v-91h57v91h56v48h-56v282h-68l-208 -281v-49zM650 139h-162l160 213h2v-213z" />
    <glyph glyph-name="onehalf" unicode="&#xbd;" horiz-adv-x="834" 
d="M117 -21h57l443 741h-57zM214 705h-52l-103 -80l22 -33l76 58v-366h57v421zM503 0h272v48h-197l74 65l4 4q54 51 84.5 93t30.5 95q0 59 -37 87.5t-98 28.5q-29 0 -59.5 -7.5t-57.5 -20.5l8 -50q55 30 109 30q33 0 55.5 -19t22.5 -52q0 -36 -29 -78t-76 -88l-106 -95v-41z
" />
    <glyph glyph-name="threequarters" unicode="&#xbe;" horiz-adv-x="834" 
d="M207 -21h58l443 741h-58zM450 91h219v-91h57v91h56v48h-56v282h-68l-208 -281v-49zM669 139h-162l160 213h2v-213zM243 502q43 9 69 35t26 63q0 27 -12.5 47.5t-33.5 33t-46.5 18.5t-52.5 6q-28 0 -62 -5t-57 -14l4 -52q49 23 103 23q17 0 33 -2t31.5 -8t25.5 -18.5
t10 -32.5q0 -23 -14 -37.5t-35 -22t-43 -10t-43 -2.5h-28v-48h28q25 0 46 -1.5t42 -8.5t35 -22.5t14 -41.5q0 -34 -31.5 -55.5t-73.5 -21.5q-67 0 -120 21l-5 -52q28 -9 56.5 -13t63.5 -4q30 0 59.5 7t54 21.5t39 37.5t14.5 53q0 44 -25.5 73t-71.5 31v2z" />
    <glyph glyph-name="Eth" unicode="&#xd0;" horiz-adv-x="667" 
d="M80 389h-69v-60h69v-329h122q89 0 162 19.5t126.5 61.5t82.5 109t29 160q0 180 -104 264t-300 84h-118v-309zM149 638h46q80 0 141.5 -13.5t105.5 -45.5t67.5 -87.5t23.5 -137.5q0 -79 -22.5 -135t-65.5 -91.5t-103 -51.5t-136 -16h-57v269h213v60h-213v249z" />
    <glyph glyph-name="multiply" unicode="&#xd7;" horiz-adv-x="600" 
d="M252 257l-181 -181l49 -50l181 182l179 -182l50 50l-180 181l180 180l-50 49l-179 -181l-181 181l-49 -49z" />
    <glyph glyph-name="Yacute" unicode="&#xdd;" horiz-adv-x="611" 
d="M271 0h69v296l259 402h-75l-219 -341l-213 341h-80l259 -402v-296zM248 726h46l126 144h-79z" />
    <glyph glyph-name="Thorn" unicode="&#xde;" horiz-adv-x="500" 
d="M86 0h69v172h96q98 0 160.5 52t62.5 146q0 97 -57.5 147.5t-158.5 50.5h-103v130h-69v-698zM155 508h112q66 0 102 -36t36 -102q0 -45 -16 -73t-44 -42t-62 -18.5t-80 -4.5h-48v276z" />
    <glyph glyph-name="eth" unicode="&#xf0;" 
d="M212 564l108 67q43 -35 73.5 -82.5t43.5 -105.5h-2q-63 79 -157 79q-60 0 -105 -21.5t-74.5 -59t-44 -85.5t-14.5 -101t14.5 -101.5t43.5 -85.5t74.5 -58t105.5 -21q120 0 179 78t59 229q0 119 -34.5 213.5t-105.5 156.5l93 57l-30 42l-107 -66q-77 49 -182 63l-12 -48
q76 -15 135 -51l-91 -57zM109 255q0 92 44.5 152.5t124.5 60.5t124.5 -60.5t44.5 -152.5t-44.5 -152.5t-124.5 -60.5t-124.5 60.5t-44.5 152.5z" />
    <glyph glyph-name="yacute" unicode="&#xfd;" horiz-adv-x="444" 
d="M78 510h-69l181 -515l-13 -45q-18 -58 -36.5 -84.5t-55.5 -26.5q-15 0 -25 2t-22 6l-6 -54q34 -8 68 -8q48 0 78.5 38.5t52.5 101.5l204 585h-66l-147 -425h-1zM164 563h46l126 144h-79z" />
    <glyph glyph-name="thorn" unicode="&#xfe;" 
d="M73 -209h63v302h2q23 -54 61 -79t98 -25q101 0 155.5 74t54.5 192q0 123 -49 192q-26 36 -66 55.5t-95 19.5q-38 0 -66.5 -11.5t-47 -28.5t-29 -33.5t-16.5 -31.5h-2v333h-63v-959zM438 255q0 -41 -7 -78t-24.5 -67.5t-47 -49t-72.5 -18.5q-40 0 -69 19t-47 50.5
t-26.5 69t-8.5 74.5t8.5 74.5t26 69t47 50.5t69.5 19q43 0 72.5 -18.5t47 -49t24.5 -67.5t7 -78z" />
    <glyph glyph-name="Lslash" unicode="&#x141;" horiz-adv-x="444" 
d="M80 311l-72 -51v-69l72 51v-242h349v60h-280v231l175 124v68l-175 -123v338h-69v-387z" />
    <glyph glyph-name="Scaron" unicode="&#x160;" horiz-adv-x="500" 
d="M384 870h-46l-88 -102l-88 102h-46l93 -144h82zM60 18q31 -13 71 -21t87 -8q42 0 82.5 11t74 35t53 62t19.5 88q0 38 -14 68.5t-37.5 53.5t-51 41t-66.5 38q-5 3 -16 9q-69 37 -102 65t-33 70q0 32 13 55.5t34.5 37.5t48 20.5t55.5 6.5q37 0 70.5 -7t56.5 -19l11 63
q-32 12 -69.5 17.5t-67.5 5.5q-94 0 -157 -49q-30 -24 -47 -58t-17 -75q0 -34 14.5 -62.5t38.5 -51t50.5 -39t70.5 -41.5l6 -3q71 -39 105.5 -68.5t34.5 -71.5q0 -71 -44 -107t-113 -36q-47 0 -84.5 10.5t-69.5 30.5z" />
    <glyph glyph-name="scaron" unicode="&#x161;" horiz-adv-x="389" 
d="M34 12q60 -23 143 -23q31 0 62 7.5t57.5 24.5t42.5 45t16 67q0 33 -12 58t-32.5 43t-43.5 31t-55 28q-9 4 -11 5q-49 23 -73 40.5t-24 44.5q0 46 28.5 65.5t81.5 19.5q26 0 57.5 -6.5t55.5 -17.5l6 55q-31 12 -66.5 17.5t-59.5 5.5q-33 0 -62.5 -7.5t-53 -24.5t-37 -43.5
t-13.5 -63.5q0 -28 11 -49.5t29 -37t38.5 -26.5t53.5 -26l7 -4q53 -25 79.5 -47.5t26.5 -59.5q0 -42 -33 -66.5t-80 -24.5q-69 0 -133 32zM329 707h-46l-88 -102l-88 102h-46l93 -144h82z" />
    <glyph glyph-name="Zcaron" unicode="&#x17d;" horiz-adv-x="500" 
d="M21 0h449v60h-374l362 578v60h-428v-60h355l-364 -578v-60zM384 870h-46l-88 -102l-88 102h-45l92 -144h82z" />
    <glyph glyph-name="zcaron" unicode="&#x17e;" horiz-adv-x="444" 
d="M32 0h380v54h-307l307 402v54h-368v-54h295l-307 -403v-53zM245 710h-46l-88 -102l-88 102h-45l92 -144h82z" />
    <glyph glyph-name="fi" unicode="&#xf001;" 
d="M403 0h63v510h-63v-510zM466 730h-63v-84h63v84zM122 0h63v456h115v54h-115v44q0 80 14 117t63 37q30 0 50 -11l4 55q-8 5 -25.5 7.5t-33.5 2.5q-47 0 -75 -17.5t-40.5 -47.5t-16 -65t-3.5 -85v-37h-103v-54h103v-456z" />
    <glyph glyph-name="fl" unicode="&#xf002;" 
d="M403 0h63v750h-63v-750zM122 0h63v456h115v54h-115v44q0 80 14 117t63 37q30 0 50 -11l4 55q-8 5 -25.5 7.5t-33.5 2.5q-47 0 -75 -17.5t-40.5 -47.5t-16 -65t-3.5 -85v-37h-103v-54h103v-456z" />
    <glyph glyph-name="uni20AC" horiz-adv-x="629" 
d="M432 260h-239q12 -63 38.5 -104t58.5 -65t65 -33.5t59 -9.5q20 0 35.5 2.5t29 6.5t26.5 10t27 13l3 -68q-14 -5 -44 -13.5t-75 -8.5q-65 0 -114.5 21t-85.5 58t-58 86t-31 105h-71l14 48h51q-1 11 -1.5 21.5t-0.5 21.5v15q0 8 1 17h-64l14 48h55q9 56 30 105.5t57 87
t87.5 59t120.5 21.5q13 0 30 -1.5t33.5 -4.5t32 -8.5t26.5 -12.5l-18 -59q-18 11 -47.5 19.5t-61.5 8.5q-11 0 -29.5 -2.5t-41 -10t-46 -21.5t-45 -38t-38 -59t-24.5 -84h280l-11 -48h-274q-1 -9 -1 -18v-16q0 -11 0.5 -21t1.5 -20h257z" />
    <glyph glyph-name="uni20AC" unicode="&#x20ac;" horiz-adv-x="629" 
d="M432 260h-239q12 -63 38.5 -104t58.5 -65t65 -33.5t59 -9.5q20 0 35.5 2.5t29 6.5t26.5 10t27 13l3 -68q-14 -5 -44 -13.5t-75 -8.5q-65 0 -114.5 21t-85.5 58t-58 86t-31 105h-71l14 48h51q-1 11 -1.5 21.5t-0.5 21.5v15q0 8 1 17h-64l14 48h55q9 56 30 105.5t57 87
t87.5 59t120.5 21.5q13 0 30 -1.5t33.5 -4.5t32 -8.5t26.5 -12.5l-18 -59q-18 11 -47.5 19.5t-61.5 8.5q-11 0 -29.5 -2.5t-41 -10t-46 -21.5t-45 -38t-38 -59t-24.5 -84h280l-11 -48h-274q-1 -9 -1 -18v-16q0 -11 0.5 -21t1.5 -20h257z" />
    <glyph glyph-name="Sacute" unicode="&#x15a;" horiz-adv-x="500" 
d="M60 18q31 -13 71 -21t87 -8q42 0 82.5 11t74 35t53 62t19.5 88q0 38 -14 68.5t-37.5 53.5t-51 41t-66.5 38q-5 3 -16 9q-69 37 -102 65t-33 70q0 32 13 55.5t34.5 37.5t48 20.5t55.5 6.5q37 0 70.5 -7t56.5 -19l11 63q-32 12 -69.5 17.5t-67.5 5.5q-94 0 -157 -49
q-30 -24 -47 -58t-17 -75q0 -34 14.5 -62.5t38.5 -51t50.5 -39t70.5 -41.5l6 -3q71 -39 105.5 -68.5t34.5 -71.5q0 -71 -44 -107t-113 -36q-47 0 -84.5 10.5t-69.5 30.5zM187 734h46l126 144h-79z" />
    <glyph glyph-name="Tcaron" unicode="&#x164;" horiz-adv-x="500" 
d="M216 0h69v638h206v60h-481v-60h206v-638zM384 878h-46l-88 -102l-88 102h-45l92 -144h82z" />
    <glyph glyph-name="Zacute" unicode="&#x179;" horiz-adv-x="500" 
d="M21 0h449v60h-374l362 578v60h-428v-60h355l-364 -578v-60zM183 734h46l126 144h-79z" />
    <glyph glyph-name="sacute" unicode="&#x15b;" horiz-adv-x="389" 
d="M34 12q60 -23 143 -23q31 0 62 7.5t57.5 24.5t42.5 45t16 67q0 33 -12 58t-32.5 43t-43.5 31t-55 28q-9 4 -11 5q-49 23 -73 40.5t-24 44.5q0 46 28.5 65.5t81.5 19.5q26 0 57.5 -6.5t55.5 -17.5l6 55q-31 12 -66.5 17.5t-59.5 5.5q-33 0 -62.5 -7.5t-53 -24.5t-37 -43.5
t-13.5 -63.5q0 -28 11 -49.5t29 -37t38.5 -26.5t53.5 -26l7 -4q53 -25 79.5 -47.5t26.5 -59.5q0 -42 -33 -66.5t-80 -24.5q-69 0 -133 32zM139 572h46l126 144h-79z" />
    <glyph glyph-name="FL322" horiz-adv-x="373" 
d="M464 698h-75l-59 -218h57z" />
    <glyph glyph-name="zacute" unicode="&#x17a;" horiz-adv-x="444" 
d="M32 0h380v54h-307l307 402v54h-368v-54h295l-307 -403v-53zM160 572h46l126 144h-79z" />
    <glyph glyph-name="Aogonek" unicode="&#x104;" horiz-adv-x="667" 
d="M688 -145l-14 8q-10 -17 -25 -27t-35 -10q-26 0 -39 13.5t-13 36.5q0 13 3.5 26t13 28t26.5 32t43 38h6l-277 698h-78l-286 -698h67l75 187h352l75 -187h38q-13 -8 -33.5 -21t-40 -30t-33.5 -39t-14 -47q0 -18 8 -31.5t20.5 -22.5t28 -14t31.5 -5q22 0 39.5 6.5t30 16.5
t20 21.5t11.5 20.5zM484 247h-303l152 385z" />
    <glyph glyph-name="Scommaaccent" unicode="&#x15e;" horiz-adv-x="500" 
d="M447 185q0 51 -23.5 86.5t-59.5 62.5t-77 47.5t-77 42t-59.5 46.5t-23.5 60q0 34 13.5 57t35 37t48.5 20t54 6q35 0 69.5 -6.5t57.5 -19.5l11 63q-36 14 -73.5 18.5t-63.5 4.5q-46 0 -86.5 -12.5t-70.5 -36.5t-47 -57.5t-17 -75.5q0 -46 23.5 -79t59.5 -59t77 -47.5
t77 -44t59.5 -48t23.5 -59.5q0 -37 -12.5 -64t-34 -44.5t-50 -26t-60.5 -8.5q-49 0 -86 10.5t-68 30.5l-7 -71q28 -12 67.5 -21t90.5 -9q5 0 10 0.5t10 0.5l-25 -74q19 4 42 4q17 0 27.5 -10t10.5 -27q0 -19 -14.5 -28t-37.5 -9q-14 0 -27.5 3.5t-25.5 8t-21.5 9.5t-14.5 8
l-7 -37q3 -1 13 -4.5t24.5 -7.5t31 -7t32.5 -3q17 0 36.5 2.5t36 10t27 21t10.5 35.5q0 32 -21.5 48.5t-51.5 16.5q-8 0 -17 -1t-16 -2l16 46q35 6 67.5 20t58 37.5t40.5 57t15 78.5z" />
    <glyph glyph-name="Zdotaccent" unicode="&#x17b;" horiz-adv-x="500" 
d="M21 0h449v60h-374l362 578v60h-428v-60h355l-364 -578v-60zM204 767h75v84h-75v-84z" />
    <glyph glyph-name="aogonek" unicode="&#x105;" horiz-adv-x="500" 
d="M469 -145l-14 8q-10 -17 -25 -27t-35 -10q-26 0 -39 13.5t-13 36.5q0 13 3.5 26t13 28t26.5 32t43 38h5q-4 26 -4.5 51t-0.5 56v225q0 100 -42 145t-137 45q-17 0 -37 -3t-40.5 -7.5t-39 -11t-33.5 -13.5v-61q35 23 72.5 32.5t77.5 9.5q64 0 90 -32.5t26 -98.5v-26h-12
q-50 0 -105 -4t-101.5 -21.5t-77 -53.5t-30.5 -100q0 -17 6 -42t24 -47.5t51 -38.5t87 -16q24 0 48 6t46 18t39.5 29.5t28.5 40.5h2v-82h29q-13 -8 -33.5 -21t-40 -30t-33.5 -39t-14 -47q0 -18 8 -31.5t20.5 -22.5t28 -14t31.5 -5q22 0 39.5 6.5t30 16.5t20 21.5t11.5 20.5z
M366 226q0 -21 -3 -52t-17 -60.5t-45 -50.5t-86 -21q-44 0 -75 21t-31 71q0 42 22 66.5t56.5 37t77 16t83.5 3.5h18v-31z" />
    <glyph glyph-name="scommaaccent" unicode="&#x15f;" horiz-adv-x="389" 
d="M355 133q0 42 -18.5 70t-46.5 48t-60.5 34t-60.5 28t-46.5 30t-18.5 40q0 49 30.5 67t79.5 18q26 0 57 -6.5t56 -17.5l6 55q-34 13 -70 18t-56 5q-32 0 -61.5 -7.5t-53 -24t-37.5 -43t-14 -64.5q0 -37 18 -61.5t45.5 -42t59 -31.5t59 -29.5t45.5 -35.5t18 -50
q0 -22 -9 -39t-25 -28.5t-36.5 -17.5t-42.5 -6q-37 0 -70.5 9t-62.5 23l-6 -62q34 -14 70 -19t73 -5h2l-25 -73q19 4 42 4q17 0 27.5 -10t10.5 -27q0 -19 -14.5 -28t-37.5 -9q-14 0 -27.5 3.5t-25.5 8t-21.5 9.5t-14.5 8l-7 -37q3 -1 13 -4.5t24.5 -7.5t31 -7t32.5 -3
q17 0 36.5 2.5t36 10t27 21t10.5 35.5q0 32 -21.5 48.5t-51.5 16.5q-8 0 -17 -1t-16 -2l15 44q27 3 53.5 12.5t47.5 26.5t34.5 42.5t13.5 61.5z" />
    <glyph glyph-name="Lcaron" unicode="&#x13d;" horiz-adv-x="444" 
d="M389 698h-75l-59 -218h57zM80 0h349v60h-280v638h-69v-698z" />
    <glyph glyph-name="lcaron" unicode="&#x13e;" horiz-adv-x="242" 
d="M79 0h63v750h-63v-750zM321 698h-75l-59 -218h57z" />
    <glyph glyph-name="zdotaccent" unicode="&#x17c;" horiz-adv-x="444" 
d="M32 0h380v54h-307l307 402v54h-368v-54h295l-307 -403v-53zM194 604h75v84h-75v-84z" />
    <glyph glyph-name="Racute" unicode="&#x154;" 
d="M88 0h69v329h57q29 0 46.5 -2.5t32.5 -11t28.5 -27.5t28.5 -52l101 -236h76l-119 270l-2 5q-19 40 -35 57t-53 22v2q67 9 111 52.5t44 108.5q0 93 -54 137t-151 44h-180v-698zM157 638h71q43 0 72.5 -3.5t53 -15t37 -36.5t13.5 -66q0 -35 -15 -60t-40.5 -40t-55.5 -21.5
t-63 -6.5h-73v249zM213 733h46l126 144h-79z" />
    <glyph glyph-name="Abreve" unicode="&#x102;" horiz-adv-x="667" 
d="M13 0h67l75 187h352l75 -187h72l-277 698h-78zM484 247h-303l152 385zM213 853q7 -52 39 -84t83 -32t83.5 32t39.5 84h-30q-8 -29 -33.5 -42.5t-59.5 -13.5t-59.5 13.5t-33.5 42.5h-29z" />
    <glyph glyph-name="Lacute" unicode="&#x139;" horiz-adv-x="444" 
d="M80 0h349v60h-280v638h-69v-698zM122 734h46l126 144h-79z" />
    <glyph glyph-name="Cacute" unicode="&#x106;" horiz-adv-x="667" 
d="M569 684q-24 13 -73 19.5t-87 6.5q-80 0 -145.5 -26t-111.5 -74.5t-70.5 -115t-24.5 -145.5q0 -80 24 -147t69.5 -115t111 -73t147.5 -25q41 0 87.5 6.5t72.5 22.5l-4 60q-27 -16 -70 -23t-86 -7q-135 0 -209 83t-74 218q0 65 19 120.5t55 95.5t89 62.5t120 22.5
q42 0 84 -7t72 -23zM301 735h46l126 144h-79z" />
    <glyph glyph-name="Ccaron" unicode="&#x10c;" horiz-adv-x="667" 
d="M569 684q-24 13 -73 19.5t-87 6.5q-80 0 -145.5 -26t-111.5 -74.5t-70.5 -115t-24.5 -145.5q0 -80 24 -147t69.5 -115t111 -73t147.5 -25q41 0 87.5 6.5t72.5 22.5l-4 60q-27 -16 -70 -23t-86 -7q-135 0 -209 83t-74 218q0 65 19 120.5t55 95.5t89 62.5t120 22.5
q42 0 84 -7t72 -23zM506 878h-46l-88 -102l-88 102h-45l92 -144h82z" />
    <glyph glyph-name="Eogonek" unicode="&#x118;" horiz-adv-x="500" 
d="M470 -145l-14 8q-10 -17 -25 -27t-35 -10q-26 0 -39 13.5t-13 36.5q0 13 3.5 26t13 28t26.5 32t43 38h10v60h-285v269h259v60h-259v249h273v60h-342v-698h316q-13 -8 -33.5 -21t-40 -30t-33.5 -39t-14 -47q0 -18 8 -31.5t20.5 -22.5t28 -14t31.5 -5q22 0 39.5 6.5
t30 16.5t20 21.5t11.5 20.5z" />
    <glyph glyph-name="Ecaron" unicode="&#x11a;" horiz-adv-x="500" 
d="M86 0h354v60h-285v269h259v60h-259v249h273v60h-342v-698zM396 879h-46l-88 -102l-88 102h-45l92 -144h82z" />
    <glyph glyph-name="Dcaron" unicode="&#x10e;" horiz-adv-x="667" 
d="M80 0h122q89 0 162 19.5t126.5 61.5t82.5 109t29 160q0 78 -20 141.5t-62 110t-108.5 71.5t-158.5 25h-173v-698zM149 638h101q61 0 112 -15t89.5 -48.5t60 -88.5t21.5 -132q0 -79 -22.5 -135t-65.5 -91.5t-103 -51.5t-136 -16h-57v578zM434 879h-46l-88 -102l-88 102
h-45l92 -144h82z" />
    <glyph glyph-name="Dcroat" unicode="&#x110;" horiz-adv-x="667" 
d="M602 350q0 93 -27.5 159t-80 108t-127.5 61.5t-169 19.5h-118v-309h-69v-60h69v-329h122q87 0 160 19t126.5 61t83.5 108.5t30 161.5zM533 354q0 -80 -23.5 -136t-66 -91t-103 -51t-134.5 -16h-57v269h213v60h-213v249h46q76 0 138.5 -13t107 -45t68.5 -87t24 -139z" />
    <glyph glyph-name="Nacute" unicode="&#x143;" horiz-adv-x="667" 
d="M77 0h69v602h2l349 -602h93v698h-69v-614h-2l-355 614h-87v-698zM290 734h46l126 144h-79z" />
    <glyph glyph-name="Ncaron" unicode="&#x147;" horiz-adv-x="667" 
d="M77 0h69v602h2l349 -602h93v698h-69v-614h-2l-355 614h-87v-698zM471 878h-46l-88 -102l-88 102h-45l92 -144h82z" />
    <glyph glyph-name="Ohungarumlaut" unicode="&#x150;" horiz-adv-x="722" 
d="M54 349q2 -165 81 -262.5t226 -97.5t226.5 97.5t80.5 262.5q0 74 -19 139t-57.5 115t-96.5 78.5t-134 28.5q-75 0 -133.5 -28.5t-97 -78.5t-57.5 -115t-19 -139zM361 650q59 0 104.5 -25t75 -68.5t44 -97t14.5 -110.5t-14.5 -110.5t-44 -97t-75 -68.5t-104.5 -25
t-104.5 25t-75 68.5t-44 97t-14.5 110.5t14.5 110.5t44 97t75 68.5t104.5 25zM380 735h46l126 144h-79zM211 735h45l126 144h-79z" />
    <glyph glyph-name="Rcaron" unicode="&#x158;" 
d="M88 0h69v329h57q29 0 46.5 -2.5t32.5 -11t28.5 -27.5t28.5 -52l101 -236h76l-119 270l-2 5q-19 40 -35 57t-53 22v2q67 9 111 52.5t44 108.5q0 93 -54 137t-151 44h-180v-698zM157 638h71q43 0 72.5 -3.5t53 -15t37 -36.5t13.5 -66q0 -35 -15 -60t-40.5 -40t-55.5 -21.5
t-63 -6.5h-73v249zM397 878h-46l-88 -102l-88 102h-45l92 -144h82z" />
    <glyph glyph-name="Uring" unicode="&#x16e;" horiz-adv-x="667" 
d="M587 698h-69v-454q0 -88 -48 -142t-136 -54t-136 54t-48 142v454h-69v-454q0 -73 23.5 -123.5t61.5 -79.5t81.5 -40.5t86.5 -11.5t86 11.5t81.5 40.5t62 79.5t23.5 123.5v454zM244 811q0 -41 27.5 -68t68.5 -27t68.5 27.5t27.5 67.5t-28 67.5t-68 27.5q-41 0 -68.5 -27.5
t-27.5 -67.5zM280 811q0 25 18 42t42 17q25 0 42.5 -17t17.5 -42t-17 -42t-43 -17q-24 0 -42 17t-18 42z" />
    <glyph glyph-name="Uhungarumlaut" unicode="&#x170;" horiz-adv-x="667" 
d="M587 698h-69v-454q0 -88 -48 -142t-136 -54t-136 54t-48 142v454h-69v-454q0 -73 23.5 -123.5t61.5 -79.5t81.5 -40.5t86.5 -11.5t86 11.5t81.5 40.5t62 79.5t23.5 123.5v454zM353 735h46l126 144h-79zM184 735h45l126 144h-79z" />
    <glyph glyph-name="Tcommaaccent" unicode="&#x162;" horiz-adv-x="500" 
d="M491 638v60h-481v-60h206v-638h26l-29 -85q19 4 42 4q17 0 27.5 -10t10.5 -27q0 -19 -14.5 -28t-37.5 -9q-14 0 -27.5 3.5t-25.5 8t-21.5 9.5t-14.5 8l-7 -37q3 -1 13 -4.5t24.5 -7.5t31 -7t32.5 -3q17 0 36.5 2.5t36 10t27 21t10.5 35.5q0 32 -21.5 48.5t-51.5 16.5
q-8 0 -17 -1t-16 -2l19 54h16v638h206z" />
    <glyph glyph-name="racute" unicode="&#x155;" horiz-adv-x="333" 
d="M79 0h63v252q0 38 6 73.5t21 65t39.5 47.5t60.5 18q27 0 46 -6v66q-9 3 -21.5 4.5t-22.5 1.5q-45 0 -78.5 -31t-52.5 -79h-2v98h-63q3 -26 3.5 -46.5t0.5 -67.5v-396zM139 572h46l126 144h-79z" />
    <glyph glyph-name="abreve" unicode="&#x103;" horiz-adv-x="500" 
d="M372 0h62q-3 24 -4 46t-1 61v225q0 100 -42 145t-137 45q-33 0 -77 -10.5t-73 -24.5v-61q66 42 150 42q62 0 89 -32t27 -99v-26h-12q-64 0 -114.5 -5t-96.5 -22t-74.5 -54t-28.5 -98q0 -21 6.5 -45t24.5 -46.5t52 -37t85 -14.5q50 0 96 24.5t66 68.5h2v-82zM366 226
q0 -31 -3.5 -59t-18 -57t-46 -48.5t-83.5 -19.5q-47 0 -76.5 22.5t-29.5 69.5q0 40 20.5 65t55 37.5t74.5 16.5t89 4h18v-31zM119 699q7 -52 39 -84t83 -32t83.5 32t39.5 84h-30q-8 -29 -33.5 -42.5t-59.5 -13.5t-59.5 13.5t-33.5 42.5h-29z" />
    <glyph glyph-name="lacute" unicode="&#x13a;" horiz-adv-x="222" 
d="M79 0h63v750h-63v-750zM54 785h46l126 144h-79z" />
    <glyph glyph-name="cacute" unicode="&#x107;" horiz-adv-x="444" 
d="M416 502q-23 8 -53.5 14t-69.5 6q-56 0 -102.5 -19.5t-80 -55t-51.5 -85t-18 -107.5q0 -54 15.5 -102.5t46 -85.5t77 -57.5t105.5 -20.5q39 0 70 3.5t61 13.5l-6 59q-62 -23 -115 -23q-42 0 -76.5 16.5t-58.5 46t-37 68t-13 82.5q0 95 51 154t141 59q24 0 53 -7t56 -19z
M203 572h46l126 144h-79z" />
    <glyph glyph-name="ccaron" unicode="&#x10d;" horiz-adv-x="444" 
d="M416 502q-23 8 -53.5 14t-69.5 6q-56 0 -102.5 -19.5t-80 -55t-51.5 -85t-18 -107.5q0 -54 15.5 -102.5t46 -85.5t77 -57.5t105.5 -20.5q39 0 70 3.5t61 13.5l-6 59q-62 -23 -115 -23q-42 0 -76.5 16.5t-58.5 46t-37 68t-13 82.5q0 95 51 154t141 59q24 0 53 -7t56 -19z
M402 716h-46l-88 -102l-88 102h-45l92 -144h82z" />
    <glyph glyph-name="eogonek" unicode="&#x119;" horiz-adv-x="500" 
d="M459 237v32q0 51 -11.5 97t-36 80.5t-63 55t-92.5 20.5q-48 0 -88 -20t-68 -55t-43.5 -84.5t-15.5 -107.5q0 -56 11.5 -103.5t37.5 -82.5t66.5 -56.5t99.5 -24.5q-15 -9 -33 -21.5t-33 -28.5t-25.5 -34.5t-10.5 -40.5q0 -18 8 -31.5t20.5 -22.5t28 -14t31.5 -5
q22 0 39.5 6.5t30 16.5t20 21.5t11.5 20.5l-14 8q-10 -17 -25 -27t-35 -10q-26 0 -39 13.5t-13 36.5q0 24 14 50t58 62q32 2 67.5 9t64.5 19v64q-11 -7 -28.5 -14t-37 -12t-40 -8.5t-37.5 -3.5q-41 0 -72.5 15.5t-52.5 41.5t-32 61.5t-11 76.5h349zM390 291h-280
q0 31 10.5 63t30 57t47 41t62.5 16t60 -15t40.5 -40t22.5 -57t7 -65z" />
    <glyph glyph-name="ecaron" unicode="&#x11b;" horiz-adv-x="500" 
d="M421 80q-23 -15 -66.5 -26.5t-76.5 -11.5q-79 0 -123.5 55t-44.5 140h349v32q0 53 -12 98.5t-36.5 80.5t-63.5 54.5t-91 19.5q-47 0 -87 -19.5t-68.5 -55.5t-44 -85t-15.5 -107q0 -59 13 -107.5t40.5 -84.5t72 -55t106.5 -19q37 0 76.5 7t71.5 20v64zM110 291
q0 32 10.5 63.5t30 57.5t47.5 41t62 15t59 -14.5t40.5 -39.5t23 -56.5t7.5 -66.5h-280zM383 716h-46l-88 -102l-88 102h-45l92 -144h82z" />
    <glyph glyph-name="dcaron" unicode="&#x10f;" horiz-adv-x="578" 
d="M654 698h-75l-59 -218h57zM483 750h-63v-326h-2q-4 11 -15.5 27.5t-31.5 32.5t-48.5 27t-63.5 11q-55 0 -95 -19.5t-66 -55.5q-49 -69 -49 -192q0 -118 54.5 -192t155.5 -74q110 0 159 92h2v-81h63v750zM118 255q0 41 7.5 78t24.5 67.5t46.5 49t72.5 18.5q40 0 69 -19
t47 -50.5t26.5 -69t8.5 -74.5t-8.5 -74.5t-26 -69t-47 -50.5t-69.5 -19q-43 0 -72.5 18.5t-47 49t-24.5 67.5t-7 78z" />
    <glyph glyph-name="dcroat" unicode="&#x111;" 
d="M549 583v52h-66v115h-63v-115h-101v-52h101v-159h-2q-3 9 -14.5 25.5t-31 32.5t-48 28t-65.5 12q-56 0 -96 -20t-65.5 -55.5t-37 -84.5t-11.5 -107q0 -57 13 -105.5t39.5 -84.5t65.5 -56.5t92 -20.5q55 0 94 22t65 71h2v-81h63v583h66zM420 255q0 -35 -8 -72.5t-25.5 -69
t-46.5 -51.5t-71 -20q-45 0 -74 19.5t-46.5 50t-24 68.5t-6.5 75t6.5 75t24 68.5t46.5 50t74 19.5q42 0 71 -20t46.5 -51.5t25.5 -69t8 -72.5z" />
    <glyph glyph-name="nacute" unicode="&#x144;" 
d="M79 0h63v282q0 34 8 66.5t25.5 60t47 43.5t70.5 16q63 0 92 -41t29 -117v-310h63v326q0 90 -42 143t-132 53q-37 0 -65.5 -9t-47 -24t-30.5 -32t-22 -38h-2v91h-61q4 -41 4 -120v-390zM209 572h46l126 144h-79z" />
    <glyph glyph-name="ncaron" unicode="&#x148;" 
d="M79 0h63v282q0 34 8 66.5t25.5 60t47 43.5t70.5 16q63 0 92 -41t29 -117v-310h63v326q0 90 -42 143t-132 53q-37 0 -65.5 -9t-47 -24t-30.5 -32t-22 -38h-2v91h-61q4 -41 4 -120v-390zM402 716h-46l-88 -102l-88 102h-45l92 -144h82z" />
    <glyph glyph-name="ohungarumlaut" unicode="&#x151;" 
d="M40 255q0 -53 14.5 -101.5t43.5 -85.5t74.5 -58t105.5 -21t105.5 21t74.5 58.5t43.5 85.5t14.5 101t-14.5 101.5t-43.5 85.5t-74.5 58.5t-105.5 21.5t-105 -21.5t-74.5 -59t-44 -85.5t-14.5 -101zM109 255q0 92 44.5 152.5t124.5 60.5t124.5 -60.5t44.5 -152.5
t-44.5 -152.5t-124.5 -60.5t-124.5 60.5t-44.5 152.5zM308 572h46l126 144h-79zM139 572h45l126 144h-79z" />
    <glyph glyph-name="rcaron" unicode="&#x159;" horiz-adv-x="333" 
d="M79 0h63v252q0 38 6 73.5t21 65t39.5 47.5t60.5 18q27 0 46 -6v66q-9 3 -21.5 4.5t-22.5 1.5q-45 0 -78.5 -31t-52.5 -79h-2v98h-63q3 -26 3.5 -46.5t0.5 -67.5v-396zM320 716h-46l-88 -102l-88 102h-45l92 -144h82z" />
    <glyph glyph-name="uring" unicode="&#x16f;" 
d="M477 510h-63v-282q0 -34 -8 -66.5t-25.5 -59.5t-47 -43.5t-70.5 -16.5q-63 0 -92 41.5t-29 116.5v310h-63v-326q0 -90 42 -142.5t132 -52.5q38 0 66 8.5t47 23.5t30.5 32t21.5 38h2v-91h61q-4 41 -4 120v390zM192 648q0 -41 27.5 -68t68.5 -27t68.5 27.5t27.5 67.5
t-28 67.5t-68 27.5q-41 0 -68.5 -27.5t-27.5 -67.5zM228 648q0 25 18 42t42 17q25 0 42.5 -17t17.5 -42t-17 -42t-43 -17q-24 0 -42 17t-18 42z" />
    <glyph glyph-name="uhungarumlaut" unicode="&#x171;" 
d="M477 510h-63v-282q0 -34 -8 -66.5t-25.5 -59.5t-47 -43.5t-70.5 -16.5q-63 0 -92 41.5t-29 116.5v310h-63v-326q0 -90 42 -142.5t132 -52.5q38 0 66 8.5t47 23.5t30.5 32t21.5 38h2v-91h61q-4 41 -4 120v390zM318 572h46l126 144h-79zM149 572h45l126 144h-79z" />
    <glyph glyph-name="tcommaaccent" unicode="&#x163;" horiz-adv-x="333" 
d="M313 2l-4 52q-14 -5 -27 -8.5t-31 -3.5q-38 0 -53 24.5t-15 59.5v330h116v54h-116v145l-63 -22v-123h-100v-54h100v-298q0 -43 4.5 -79.5t24.5 -59.5l-37 -104q19 4 42 4q17 0 27.5 -10t10.5 -27q0 -19 -14.5 -28t-37.5 -9q-14 0 -27.5 3.5t-25.5 8t-21.5 9.5t-14.5 8
l-7 -37q3 -1 13 -4.5t24.5 -7.5t31 -7t32.5 -3q17 0 36.5 2.5t36 10t27 21t10.5 35.5q0 32 -21.5 48.5t-51.5 16.5q-8 0 -17 -1t-16 -2l20 56q25 -14 67 -14q23 0 44.5 4.5t32.5 9.5z" />
    <glyph glyph-name="lslash" unicode="&#x142;" horiz-adv-x="222" 
d="M208 445v69l-66 -53v289h-63v-339l-66 -53v-69l66 53v-342h63v392z" />
    <glyph glyph-name="tcaron" unicode="&#x165;" horiz-adv-x="373" 
d="M299 510h-116v145l-63 -22v-123h-100v-54h100v-298q0 -43 3 -71t14 -50.5t35 -35t64 -12.5q21 0 42.5 4.5t34.5 8.5l-4 52q-15 -6 -28.5 -9t-29.5 -3q-36 0 -52 23t-16 61v330h116v54zM464 698h-75l-59 -218h57z" />
    </font>
</defs>
</svg>
