<?xml version="1.0" encoding="UTF-8" standalone="no"?>
<svg width="20px" height="20px" viewBox="0 0 20 20" version="1.1" xmlns="http://www.w3.org/2000/svg" xmlns:xlink="http://www.w3.org/1999/xlink">
    <!-- Generator: sketchtool 42 (36781) - http://www.bohemiancoding.com/sketch -->
    <title>B92AAB9E-5085-4D6F-8C82-455B5DF67649</title>
    <desc>Created with sketchtool.</desc>
    <defs></defs>
    <g id="Page-1" stroke="none" stroke-width="1" fill="none" fill-rule="evenodd" opacity="0.539999962">
        <g id="dealer-central-Dashboard" transform="translate(-1068.000000, -1022.000000)" stroke="#000000" fill-rule="nonzero" stroke-width="0.2" fill="#000000">
            <g id="footer" transform="translate(0.000000, 1004.000000)">
                <g id="email" transform="translate(1068.000000, 18.000000)">
                    <path d="M2.55813953,5 C2.2553693,5 2,5.25536744 2,5.55813953 L2,14.8604707 C2,15.1632428 2.2553693,15.4186102 2.55813953,15.4186102 L17.4418605,15.4186102 C17.7446307,15.4186102 18,15.1632428 18,14.8604707 L18,5.55813953 C18,5.25536744 17.7446307,5 17.4418605,5 L2.55813953,5 Z M2.74418605,5.74418605 L17.255814,5.74418605 L17.255814,5.93603721 L10,11.5988521 L2.74418605,5.93603721 L2.74418605,5.74418605 Z M2.74418605,6.87209674 L9.77325581,12.3604707 C9.90696033,12.4632139 10.0930397,12.4632139 10.2267442,12.3604707 L17.255814,6.87209674 L17.255814,14.6744242 L2.74418605,14.6744242 L2.74418605,6.87209674 L2.74418605,6.87209674 Z" id="Shape"></path>
                </g>
            </g>
        </g>
    </g>
</svg>