<?xml version="1.0" encoding="UTF-8" standalone="no"?>
<svg width="16px" height="22px" viewBox="0 0 16 22" version="1.1" xmlns="http://www.w3.org/2000/svg" xmlns:xlink="http://www.w3.org/1999/xlink">
    <!-- Generator: sketchtool 42 (36781) - http://www.bohemiancoding.com/sketch -->
    <title>54C318E0-4923-496C-98EC-A49B6F410B27</title>
    <desc>Created with sketchtool.</desc>
    <defs></defs>
    <g id="Page-1" stroke="none" stroke-width="1" fill="none" fill-rule="evenodd" opacity="0.539999962">
        <g id="dealer-central-Dashboard" transform="translate(-770.000000, -24.000000)" fill-rule="nonzero" stroke="#000000" stroke-width="0.2" fill="#000000">
            <g id="Logo-bar">
                <g id="notification" transform="translate(692.000000, 16.000000)">
                    <g transform="translate(78.000000, 8.000000)" id="Shape">
                        <path d="M13.3890161,14.1258588 L13.2825969,14.1258588 L12.7447585,9.12759844 C12.537662,7.40919522 11.48859,5.61002056 9.82224804,4.82737958 L9.82224804,3.49043967 C9.82224804,2.48443307 9.00400637,1.666 7.99799977,1.666 C6.99199317,1.666 6.1737515,2.48443307 6.1737515,3.49043967 L6.1737515,4.81953211 C4.6168912,5.52733508 3.47805192,7.12687792 3.25085827,9.13257488 L2.71340269,14.1258588 L2.60698342,14.1258588 C1.79429239,14.1258588 1.133,14.787534 1.133,15.6006078 C1.133,16.4136816 1.79429239,17.074974 2.60698342,17.074974 L5.93220273,17.074974 L5.93220273,17.7194231 C5.93220273,18.8586452 6.85896908,19.7856029 7.99799977,19.7856029 C9.13722186,19.7856029 10.0641796,18.8586452 10.0641796,17.7194231 L10.0641796,17.074974 L13.3890161,17.074974 C14.2017072,17.074974 14.8629995,16.4134902 14.8629995,15.6006078 C14.8629995,14.787534 14.2017072,14.1258588 13.3890161,14.1258588 Z M6.93935774,3.49043967 C6.93935774,2.90666492 7.41422501,2.43160624 7.99799977,2.43160624 C8.58177453,2.43160624 9.0566418,2.90666492 9.0566418,3.49043967 L9.0566418,4.55501515 C8.72245468,4.47079847 8.3695102,4.42390509 7.99799977,4.42390509 C7.6337626,4.42390509 7.27966971,4.46888445 6.93935774,4.55290974 L6.93935774,3.49043967 Z M4.01167947,9.21640876 C4.23849032,7.21530544 5.68070108,5.18931993 7.99799977,5.18931993 C10.2720417,5.18931993 11.749279,7.26545265 11.9841287,9.21411194 L12.5127798,14.1256674 L3.48321976,14.1256674 L4.01167947,9.21640876 Z M13.3890161,16.3093678 L2.60698342,16.3093678 C2.21633283,16.3093678 1.89860624,15.9914498 1.89860624,15.6006078 C1.89860624,15.2095744 2.21633283,14.891465 2.60698342,14.891465 L13.3890161,14.891465 C13.7796667,14.891465 14.0973933,15.2095744 14.0973933,15.6006078 C14.0973933,15.9914498 13.7796667,16.3093678 13.3890161,16.3093678 Z"></path>
                    </g>
                </g>
            </g>
        </g>
    </g>
</svg>