<?xml version="1.0" encoding="UTF-8" standalone="no"?>
<svg width="18px" height="17px" viewBox="0 0 18 17" version="1.1" xmlns="http://www.w3.org/2000/svg" xmlns:xlink="http://www.w3.org/1999/xlink">
    <!-- Generator: sketchtool 42 (36781) - http://www.bohemiancoding.com/sketch -->
    <title>1671DC89-5DFB-4BBF-B991-60667980A7E6</title>
    <desc>Created with sketchtool.</desc>
    <defs></defs>
    <g id="Page-1" stroke="none" stroke-width="1" fill="none" fill-rule="evenodd" opacity="0.539999962">
        <g id="dealer-central-Dashboard" transform="translate(-842.000000, -26.000000)" fill-rule="nonzero" fill="#000000">
            <g id="Logo-bar">
                <g id="Group" transform="translate(835.000000, 19.000000)">
                    <g id="support" transform="translate(7.000000, 7.000000)">
                        <path d="M15.475,8.49056604 L15,8.49056604 L15,8.06289308 C15,4.74213836 12.3,2.02515723 9,2.02515723 C5.7,2.02515723 3,4.74213836 3,8.06289308 L3,8.49056604 L2.525,8.49056604 C1.675,8.49056604 1,9.22012579 1,10.1006289 L1,13.4213836 C1,14.3018868 1.7,15.0314465 2.525,15.0314465 L4,15.0314465 L4,8.08805031 C4,5.32075472 6.25,3.05660377 9,3.05660377 C11.75,3.05660377 14,5.32075472 14,8.08805031 L14,15.0566038 L15.475,15.0566038 C16.325,15.0566038 17,14.327044 17,13.4465409 L17,10.1006289 C17,9.22012579 16.3,8.49056604 15.475,8.49056604 Z" id="Shape"></path>
                    </g>
                </g>
            </g>
        </g>
    </g>
</svg>