<?xml version="1.0" encoding="UTF-8"?>
<svg width="24px" height="20px" viewBox="0 0 24 20" version="1.1" xmlns="http://www.w3.org/2000/svg" xmlns:xlink="http://www.w3.org/1999/xlink">
    <!-- Generator: Sketch 46.2 (44496) - http://www.bohemiancoding.com/sketch -->
    <title>noun_1021581_cc</title>
    <desc>Created with Sketch.</desc>
    <defs></defs>
    <g id="Page-1" stroke="none" stroke-width="1" fill="none" fill-rule="evenodd">
        <g id="noun_1021581_cc" fill-rule="nonzero" fill="#000000">
            <path d="M20.72,6.82666667 L19.6266667,1.41333333 C19.4666667,0.666666667 18.8266667,0.133333333 18.0533333,0.133333333 L5.94666667,0.133333333 C5.17333333,0.133333333 4.53333333,0.666666667 4.37333333,1.41333333 L3.28,6.82666667 C1.44,7.04 0,8.61333333 0,10.5333333 L0,15.0666667 C0,15.52 0.346666667,15.8666667 0.8,15.8666667 L2.8,15.8666667 L2.8,17.2 C2.8,18.5333333 3.86666667,19.6 5.2,19.6 C6.53333333,19.6 7.6,18.5333333 7.6,17.2 L7.6,15.8666667 L16.4,15.8666667 L16.4,17.2 C16.4,18.5333333 17.4666667,19.6 18.8,19.6 C20.1333333,19.6 21.2,18.5333333 21.2,17.2 L21.2,15.8666667 L23.2,15.8666667 C23.6533333,15.8666667 24,15.52 24,15.0666667 L24,10.5333333 C24,8.61333333 22.56,7.04 20.72,6.82666667 Z M5.41333333,1.62666667 C5.46666667,1.38666667 5.68,1.2 5.94666667,1.2 L18.0533333,1.2 C18.32,1.2 18.5333333,1.38666667 18.5866667,1.62666667 L19.6266667,6.8 L17.7866667,6.8 L17.12,3.52 C17.0133333,2.96 16.5066667,2.53333333 15.92,2.53333333 L8.08,2.53333333 C7.49333333,2.53333333 6.98666667,2.93333333 6.88,3.52 L6.21333333,6.8 L4.37333333,6.8 L5.41333333,1.62666667 Z M16.6666667,6.8 L7.33333333,6.8 L7.94666667,3.73333333 C7.97333333,3.65333333 8.02666667,3.6 8.10666667,3.6 L15.92,3.6 C16,3.6 16.0533333,3.65333333 16.08,3.73333333 L16.6666667,6.8 Z M6.53333333,17.2 C6.53333333,17.9466667 5.94666667,18.5333333 5.2,18.5333333 C4.45333333,18.5333333 3.86666667,17.9466667 3.86666667,17.2 L3.86666667,15.8666667 L6.53333333,15.8666667 L6.53333333,17.2 Z M20.1333333,17.2 C20.1333333,17.9466667 19.5466667,18.5333333 18.8,18.5333333 C18.0533333,18.5333333 17.4666667,17.9466667 17.4666667,17.2 L17.4666667,15.8666667 L20.1333333,15.8666667 L20.1333333,17.2 Z M22.9333333,14.8 L21.2,14.8 L16.4,14.8 L7.6,14.8 L2.8,14.8 L1.06666667,14.8 L1.06666667,10.5333333 C1.06666667,9.06666667 2.26666667,7.86666667 3.73333333,7.86666667 L20.2666667,7.86666667 C21.7333333,7.86666667 22.9333333,9.06666667 22.9333333,10.5333333 L22.9333333,14.8 Z M5.2,8.93333333 C4.02666667,8.93333333 3.06666667,9.89333333 3.06666667,11.0666667 C3.06666667,12.24 4.02666667,13.2 5.2,13.2 C6.37333333,13.2 7.33333333,12.24 7.33333333,11.0666667 C7.33333333,9.89333333 6.37333333,8.93333333 5.2,8.93333333 Z M5.2,12.1333333 C4.61333333,12.1333333 4.13333333,11.6533333 4.13333333,11.0666667 C4.13333333,10.48 4.61333333,10 5.2,10 C5.78666667,10 6.26666667,10.48 6.26666667,11.0666667 C6.26666667,11.6533333 5.78666667,12.1333333 5.2,12.1333333 Z M18.8,8.93333333 C17.6266667,8.93333333 16.6666667,9.89333333 16.6666667,11.0666667 C16.6666667,12.24 17.6266667,13.2 18.8,13.2 C19.9733333,13.2 20.9333333,12.24 20.9333333,11.0666667 C20.9333333,9.89333333 19.9733333,8.93333333 18.8,8.93333333 Z M18.8,12.1333333 C18.2133333,12.1333333 17.7333333,11.6533333 17.7333333,11.0666667 C17.7333333,10.48 18.2133333,10 18.8,10 C19.3866667,10 19.8666667,10.48 19.8666667,11.0666667 C19.8666667,11.6533333 19.3866667,12.1333333 18.8,12.1333333 Z" id="Shape"></path>
        </g>
    </g>
</svg>