<?xml version="1.0" encoding="UTF-8"?>
<svg width="24px" height="24px" viewBox="0 0 24 24" version="1.1" xmlns="http://www.w3.org/2000/svg" xmlns:xlink="http://www.w3.org/1999/xlink">
    <!-- Generator: Sketch 52.5 (67469) - http://www.bohemiancoding.com/sketch -->
    <title>Group 5</title>
    <desc>Created with Sketch.</desc>
    <g id="Page-1" stroke="none" stroke-width="1" fill="none" fill-rule="evenodd" opacity="0.54">
        <g id="History-Popup-Copy" transform="translate(-902.000000, -211.000000)" fill="#000000">
            <g id="Group-4" transform="translate(315.000000, 126.000000)">
                <g id="Group-5" transform="translate(587.000000, 85.000000)">
                    <rect id="Rectangle" x="6" y="15.9" width="11.4" height="1.8"></rect>
                    <path d="M12,0 C5.373,0 0,5.373 0,12 C0,18.6279 5.373,24 12,24 C18.6279,24 24,18.6279 24,12 C24,5.373 18.6279,0 12,0 Z M12,21.9999 C6.4767,21.9999 2.0001,17.5233 2.0001,12 C2.0001,6.4764 6.4767,2.0001 12,2.0001 C17.5233,2.0001 21.9999,6.4764 21.9999,12 C21.9999,17.5233 17.5233,21.9999 12,21.9999 Z" id="Shape" fill-rule="nonzero"></path>
                    <path d="M8.4141,9.0999 L6.9999,10.5141 L11.2932,14.8071 C11.6838,15.198 12.3174,15.198 12.7071,14.8071 L17.0004,10.5141 L15.5862,9.0999 L13.0002,11.6859 L13.0002,5.9001 L11.0004,5.9001 L11.0004,11.6862 L8.4141,9.0999 Z" id="Path"></path>
                </g>
            </g>
        </g>
    </g>
</svg>