<?xml version="1.0" encoding="utf-8"?>
<!-- Generator: Adobe Illustrator 19.0.0, SVG Export Plug-In . SVG Version: 6.00 Build 0)  -->
<svg version="1.1" id="Layer_1" xmlns="http://www.w3.org/2000/svg" xmlns:xlink="http://www.w3.org/1999/xlink" x="0px" y="0px"
	 viewBox="-240 243.8 30.8 26.3" style="enable-background:new -240 243.8 30.8 26.3;" xml:space="preserve">
<g>
	<path d="M-209.7,246.5l-2.2-2.2c-0.6-0.6-1.4-0.7-1.9-0.3l4.4,4.4C-209,247.9-209.1,247.1-209.7,246.5z"/>
	<rect x="-217.2" y="245.9" transform="matrix(0.706 0.7082 -0.7082 0.706 117.0084 228.5524)" width="0.9" height="18.6"/>
	<polygon points="-211.2,247.7 -213.1,245.8 -226.2,258.9 -224.3,260.8 	"/>
	<rect x="-221.1" y="242.1" transform="matrix(0.7071 0.7071 -0.7071 0.7071 113.182 229.601)" width="1" height="18.6"/>
	<polygon points="-230.1,264.6 -228.1,264 -229.4,262.6 	"/>
	<polygon points="-229.1,261.7 -227.3,263.7 -223.7,262.6 -228.1,258.3 	"/>
	<path d="M-238,250.8h14.6l4-4H-238c-1.1,0-2,0.9-2,2S-239.1,250.8-238,250.8z"/>
	<path d="M-238,257.8h8l3.6-4H-238c-1.1,0-2,0.9-2,2S-239.1,257.8-238,257.8z"/>
	<path d="M-240,262.8c0,1.1,0.9,2,2,2h6c0-0.2,0-0.5,0.1-0.7l1.1-3.3h-7.1C-239.1,260.8-240,261.6-240,262.8z"/>
</g>
</svg>
