<svg xmlns="http://www.w3.org/2000/svg" xmlns:xlink="http://www.w3.org/1999/xlink" width="19" height="18" viewBox="0 0 19 18"><defs><path id="p13qa" d="M503.98 820.81l-.56 2.06 2.06-.56.65.65-3.17.86a.4.4 0 0 1-.4-.1.4.4 0 0 1-.1-.39l.87-3.16zm6.83-6.88l-6.28 6.3 1.56 1.56 6.27-6.28zm.66-.66l1.55 1.58.94-.94c.19-.19.17-.51-.04-.72l-.8-.8c-.21-.21-.54-.23-.73-.04zm-8.13 6.88l8.42-8.43c.5-.5 1.36-.45 1.92.1l.8.8c.55.56.6 1.42.1 1.92l-8.43 8.43zm11.5-2.42v7.95c0 .93-.76 1.69-1.69 1.69h-13.47c-.93 0-1.68-.76-1.68-1.69v-13c0-.93.75-1.68 1.68-1.68h8.65a.44.44 0 0 1 0 .89h-8.56c-.49 0-.88.4-.88.88v12.82c0 .5.4.9.88.9h13.3c.48 0 .88-.4.88-.9v-7.85a.44.44 0 0 1 .88 0z"/></defs><g><g opacity=".54" transform="translate(-497 -810)"><use xlink:href="#p13qa"/><use fill="#fff" fill-opacity="0" stroke="#000" stroke-miterlimit="50" stroke-width=".3" xlink:href="#p13qa"/></g></g></svg>