<svg xmlns="http://www.w3.org/2000/svg" xmlns:xlink="http://www.w3.org/1999/xlink" width="18" height="16" viewBox="0 0 18 16"><defs><path id="o7pba" d="M1168.57 726.59a1.68 1.68 0 0 1-.05-1.58l5.6-9.52c.4-.61.9-1.2 1.67-1.2.77 0 1.27.59 1.66 1.2l5.6 9.52c.23.5.24 1.1-.04 1.58-.24.4-.63.66-1.09.66h-12.27c-.46 0-.85-.26-1.08-.66zm7.83-4.31l.31-3.2c.06-.53-.44-1.05-.92-1.05-.48 0-.98.52-.93 1.06l.3 3.19c.05.39.29.7.63.7.35 0 .58-.32.61-.7zm-1.54 2.2c0 .53.41.95.93.95s.92-.42.92-.96c0-.53-.4-.97-.92-.97a.95.95 0 0 0-.93.97zm7.06 4.06c.89 0 1.68-.5 2.14-1.28.52-.87.54-2 .07-2.9l-5.64-9.6c-.65-.97-1.48-1.76-2.7-1.76-1.22 0-2.05.79-2.7 1.77l-5.67 9.64c-.43.92-.43 1.97.09 2.85a2.5 2.5 0 0 0 2.14 1.28z"/></defs><g><g transform="translate(-1167 -713)"><use fill="#e70000" xlink:href="#o7pba"/></g></g></svg>