<?xml version="1.0" encoding="UTF-8"?>
<svg width="24px" height="24px" viewBox="0 0 24 24" version="1.1" xmlns="http://www.w3.org/2000/svg" xmlns:xlink="http://www.w3.org/1999/xlink">
    <!-- Generator: Sketch 45.2 (43514) - http://www.bohemiancoding.com/sketch -->
    <title>danish chutiya h</title>
    <desc>Created with Sketch.</desc>
    <defs></defs>
    <g id="Page-1" stroke="none" stroke-width="1" fill="none" fill-rule="evenodd">
        <g id="danish-chutiya-h" fill-rule="nonzero" fill="#000000">
            <path d="M23.9999911,16.8351064 C23.9932251,16.4978809 23.7210804,16.1786043 23.4494591,16.0930979 L22.4281826,15.7978723 C22.388603,15.6942894 22.346294,15.5946638 22.300523,15.4946809 L22.81914,14.5691489 C22.9775323,14.2815574 22.9229221,13.8924511 22.6914804,13.6595745 L21.5824379,12.5505447 C21.348466,12.3155234 20.9541204,12.2606553 20.6648847,12.4228851 L19.7393528,12.9335234 C19.6401077,12.8882298 19.5389553,12.8450298 19.4361613,12.8058638 L19.1409485,11.7925532 C19.0515715,11.4749617 18.7368345,11.2354851 18.406906,11.2340426 L16.8350974,11.2340426 C16.5051664,11.2355745 16.1904294,11.4749617 16.1010421,11.7925532 L15.8058421,12.8058638 C15.7030506,12.8450298 15.6018932,12.8882298 15.5026506,12.9335234 L14.5771187,12.4228851 C14.2878932,12.2606553 13.8935272,12.3155234 13.6595528,12.5505447 L12.5505204,13.6595745 C12.3190736,13.8924511 12.2644609,14.2815574 12.4228609,14.5691489 L12.9414677,15.4946809 C12.8957145,15.5946638 12.8534081,15.6942638 12.8138081,15.7978723 L11.7925545,16.0930979 C11.4723843,16.1831745 11.2320268,16.5025277 11.2340438,16.8351064 L11.2340438,18.3989362 C11.2314906,18.7315149 11.4723843,19.0508681 11.7925545,19.1409702 L12.8138081,19.4361702 C12.8534081,19.5397787 12.8957145,19.6393787 12.9414677,19.7393617 L12.4228609,20.6648936 C12.2644609,20.9524851 12.3190736,21.3415915 12.5505204,21.5744681 L13.6595528,22.6835234 C13.8935272,22.9185191 14.2878932,22.9733872 14.5771187,22.811183 L15.5026506,22.3005447 C15.6018932,22.3458128 15.7030506,22.3890128 15.8058421,22.4282043 L16.1010421,23.4414894 C16.1904294,23.7590809 16.5051664,23.9985702 16.8350974,24 L18.406906,24 C18.7368345,23.9974468 19.0515715,23.7590809 19.1409485,23.4414894 L19.4361613,22.4282043 C19.5389553,22.3890128 19.6401077,22.3458128 19.7393528,22.3005447 L20.6648847,22.811183 C20.9541204,22.9733872 21.348466,22.9185191 21.5824379,22.6835234 L22.6914804,21.5744681 C22.9229221,21.3415915 22.9775323,20.9524851 22.81914,20.6648936 L22.300523,19.7393617 C22.346294,19.6393787 22.388603,19.5397532 22.4281826,19.4361702 L23.4494591,19.1409702 C23.766706,19.0479574 24.0029757,18.7295234 23.9999911,18.3989362 L23.9999911,16.8351064 Z M22.4680762,17.4095745 L22.4680762,17.8244681 L21.6622251,18.0558638 C21.4110906,18.1283489 21.2043511,18.3382213 21.1356294,18.5904255 C21.0555766,18.8809532 20.9409179,19.1514894 20.7925443,19.4122468 C20.6593621,19.6405532 20.6562115,19.9391489 20.7845783,20.1702128 L21.1994719,20.9042553 L20.9042464,21.1914894 L20.1702038,20.7845872 C19.9423979,20.6566979 19.6480072,20.6566979 19.4202038,20.7845872 C19.1595638,20.9329021 18.8809289,21.0556085 18.5904166,21.1356511 C18.33822,21.2043574 18.1283502,21.4110894 18.0558421,21.6622468 L17.8324379,22.4680851 L17.4095655,22.4680851 L17.1861613,21.6622468 C17.1136532,21.4110894 16.9037809,21.2043574 16.6515868,21.1356511 C16.3610847,21.0556085 16.0826081,20.9329532 15.8217996,20.7845872 C15.5940038,20.6566979 15.2995953,20.6566979 15.0717996,20.7845872 L14.337757,21.1914894 L14.0425315,20.9042553 L14.4494591,20.1702128 C14.5802081,19.9405277 14.5802081,19.6419319 14.4494591,19.4122468 C14.3010677,19.1514383 14.1863783,18.8808511 14.1063613,18.5904255 C14.0376549,18.3382213 13.830923,18.1283489 13.5797655,18.0558638 L12.7659357,17.8244681 L12.7659357,17.4095745 L13.5797655,17.1782043 C13.830923,17.1056936 14.0376549,16.8958213 14.1063613,16.643617 C14.1863783,16.3531915 14.3010677,16.0826043 14.4494591,15.8218213 C14.5802081,15.5921106 14.5802081,15.2935149 14.4494591,15.0638298 L14.0425315,14.3297872 L14.337757,14.0425532 L15.0717996,14.4494809 C15.2995953,14.5773702 15.5940038,14.5773702 15.8217996,14.4494809 C16.0826081,14.3010894 16.3610898,14.178434 16.6515868,14.098417 C16.9037809,14.0296851 17.1136532,13.8229532 17.1861613,13.5718213 L17.4095655,12.7659574 L17.8324379,12.7659574 L18.0558421,13.5718213 C18.1283502,13.8229532 18.33822,14.0296851 18.5904166,14.098417 C18.8809238,14.178434 19.1595587,14.3011404 19.4202038,14.4494809 C19.6480072,14.5773702 19.9423979,14.5773702 20.1702038,14.4494809 L20.9042464,14.0425532 L21.1994591,14.3297872 L20.7845655,15.0638298 C20.6562115,15.2948936 20.6593621,15.5934894 20.7925315,15.8218213 C20.9409077,16.0825532 21.0555638,16.3530894 21.1356166,16.643617 C21.2043383,16.8958213 21.4110779,17.1056936 21.6622123,17.1782043 L22.4680762,17.4095745 Z M20.1702038,17.6170213 C20.1702038,16.2160085 19.0180251,15.0638298 17.6170123,15.0638298 C16.2159868,15.0638298 15.0638081,16.2160085 15.0638081,17.6170213 C15.0638081,19.018034 16.2159868,20.1702128 17.6170123,20.1702128 C19.0180251,20.1702128 20.1702038,19.018034 20.1702038,17.6170213 Z M18.6382889,17.6170213 C18.6382889,18.1901362 18.1901119,18.6382979 17.6170123,18.6382979 C17.0439128,18.6382979 16.5957357,18.1901362 16.5957357,17.6170213 C16.5957357,17.0439064 17.0439128,16.5957447 17.6170123,16.5957447 C18.1901119,16.5957447 18.6382889,17.0439064 18.6382889,17.6170213 Z M14.8084889,6.4787234 C14.8046591,6.13350638 14.5295783,5.82221106 14.2579698,5.73670213 L12.98934,5.37765957 C12.9286251,5.21216681 12.864157,5.04866043 12.7898847,4.89095745 L13.4281826,3.73404255 C13.5865826,3.44646128 13.5319698,3.05733447 13.300523,2.82446809 L11.9920098,1.51595745 C11.7580353,1.2809566 11.3636949,1.22609106 11.0744694,1.38829787 L9.92553319,2.02659574 C9.76623957,1.95131489 9.60607787,1.88059404 9.4388183,1.81914894 L9.07179702,0.558510638 C8.98243532,0.240916596 8.6677034,0.00144255319 8.33775447,0 L6.47872468,0 C6.14880128,0.00153191489 5.83406936,0.240916596 5.74468213,0.558510638 L5.38562681,1.81914894 C5.21540553,1.88136766 5.04498,1.94207745 4.88298,2.01861702 L3.74200979,1.38829787 C3.45278426,1.22609106 3.05844383,1.2809566 2.82446936,1.51595745 L1.51595862,2.82446809 C1.28451181,3.05733447 1.22989905,3.44646128 1.38829905,3.73404255 L2.02659702,4.89095745 C1.95232468,5.04866043 1.8878566,5.21216681 1.82711617,5.37765957 L0.558511813,5.73670213 C0.2383416,5.8267966 -0.00201584681,6.14613702 1.17446809e-06,6.4787234 L1.17446809e-06,8.32978723 C-0.00255201702,8.66237362 0.2383416,8.98171404 0.558511813,9.07180851 L1.82711617,9.43085106 C1.8878566,9.59634383 1.95232468,9.75985021 2.02659702,9.91755319 L1.38829905,11.0744681 C1.22989905,11.3620494 1.28451181,11.751166 1.51595862,11.9840426 L2.82446936,13.2925532 C3.05844383,13.5275489 3.45278426,13.582417 3.74200979,13.4202128 L4.88298,12.7899064 C5.04498,12.8664255 5.21540553,12.9271404 5.38562681,12.9893617 L5.74468213,14.25 C5.83406936,14.5675915 6.14880128,14.8070809 6.47872468,14.8085106 L8.33775447,14.8085106 C8.6677034,14.8059574 8.98243532,14.5675915 9.07179702,14.25 L9.4388183,12.9893617 C9.60607787,12.9279064 9.76623957,12.8572085 9.92553319,12.7819149 L11.0744694,13.4202128 C11.3636949,13.582417 11.7580353,13.5275489 11.9920098,13.2925532 L13.300523,11.9840426 C13.5319698,11.751166 13.5865826,11.3620494 13.4281826,11.0744681 L12.7898847,9.91755319 C12.864157,9.75985021 12.9286251,9.59634383 12.98934,9.43085106 L14.2579698,9.07180851 C14.5752038,8.97881872 14.8114762,8.66036681 14.8084889,8.32978723 L14.8084889,6.4787234 Z M13.276574,7.05319149 L13.276574,7.75531915 L12.22338,8.05851064 C11.9741119,8.12959915 11.7678906,8.33581532 11.6968098,8.58510638 C11.5990226,8.94009191 11.4546651,9.28073617 11.2739247,9.59840426 C11.1460353,9.82620766 11.1460353,10.1206009 11.2739247,10.3484043 L11.8085119,11.3138298 L11.3138311,11.8085106 L10.3563843,11.2659574 C10.1253204,11.1376034 9.82672468,11.140754 9.59839277,11.2739234 C9.28075021,11.4546638 8.94806936,11.5989957 8.59307362,11.6968085 C8.34089489,11.7655149 8.13102255,11.9722468 8.05851191,12.2234043 L7.75532043,13.2765957 L7.05319277,13.2765957 L6.75796723,12.2234043 C6.68548213,11.9722468 6.47560979,11.7655149 6.22340553,11.6968085 C5.86840979,11.5989957 5.52776298,11.4546638 5.21009489,11.2739234 C4.98365234,11.143606 4.68926936,11.1404681 4.46009489,11.2659574 L3.49468213,11.8005447 L3.00796723,11.3138298 L3.54255447,10.3484043 C3.67044383,10.1206009 3.67044383,9.82620766 3.54255447,9.59840426 C3.36181404,9.28073362 3.21748213,8.94009447 3.11966936,8.58510638 C3.04858851,8.33581532 2.84236723,8.12959915 2.59307362,8.05851064 L1.53191607,7.75531915 L1.53191607,7.05319149 L2.59307362,6.75 C2.84236723,6.67891149 3.04858851,6.47269532 3.11966936,6.22340426 C3.21748213,5.86841617 3.36181404,5.52778213 3.54255447,5.21010638 C3.67044383,4.98230298 3.67044383,4.68790979 3.54255447,4.46010638 L3.00796723,3.49468085 L3.50264809,3.00797872 L4.46009489,3.54255319 C4.68926936,3.66802979 4.98365234,3.66489191 5.21009489,3.53458723 C5.52776298,3.35384681 5.86840979,3.20951234 6.22340553,3.11171489 C6.47560979,3.04299319 6.68548213,2.83625362 6.75796723,2.58511915 L7.05319277,1.53191489 L7.75532043,1.53191489 L8.05851191,2.58510638 C8.13102255,2.83624085 8.34089489,3.04298043 8.59307362,3.11170213 C8.94806936,3.20949957 9.28075021,3.35383404 9.59839277,3.53457447 C9.82672468,3.6677566 10.1253204,3.67090723 10.3563843,3.54254043 L11.3138311,2.99998723 L11.8085119,3.49466809 L11.2739247,4.46009362 C11.1460353,4.68789702 11.1460353,4.98229021 11.2739247,5.21009362 C11.4546906,5.52776681 11.5990226,5.8684034 11.6968098,6.22339149 C11.7678906,6.47268255 11.9741119,6.67889872 12.22338,6.74998723 L13.276574,7.05319149 Z M10.4680864,7.40425532 C10.4680864,5.72121957 9.08729489,4.34042553 7.4042566,4.34042553 C5.7212183,4.34042553 4.34042681,5.72121957 4.34042681,7.40425532 C4.34042681,9.08729106 5.7212183,10.4680851 7.4042566,10.4680851 C9.08729489,10.4680851 10.4680864,9.08729106 10.4680864,7.40425532 Z M8.93617149,7.40425532 C8.93617149,8.25937787 8.25937149,8.93617021 7.4042566,8.93617021 C6.5491417,8.93617021 5.8723417,8.25937787 5.8723417,7.40425532 C5.8723417,6.54913277 6.5491417,5.87234043 7.4042566,5.87234043 C8.25937149,5.87234043 8.93617149,6.54913277 8.93617149,7.40425532 Z" id="Shape"></path>
        </g>
    </g>
</svg>