<svg xmlns="http://www.w3.org/2000/svg" xmlns:xlink="http://www.w3.org/1999/xlink" viewBox="0 0 24 30" version="1.1" x="0px" y="0px"><title>12 -Add Delivery- (shipping, transport, delivery)</title><desc>Created with Sketch.</desc><g stroke="none" stroke-width="1" fill="none" fill-rule="evenodd"><g transform="translate(-148.000000, -365.000000)" fill="#000000"><g transform="translate(148.000000, 365.000000)"><path d="M20.543,0 L15,0 L9,0 L3.457,0 C1.551,0 0,1.551 0,3.457 L0,20.543 C0,22.449 1.551,24 3.457,24 L9,24 C9.552,24 10,23.552 10,23 C10,22.448 9.552,22 9,22 L3.457,22 C2.654,22 2,21.346 2,20.543 L2,3.457 C2,2.654 2.654,2 3.457,2 L8,2 L8,7 C8,7.369 8.203,7.708 8.528,7.882 C8.852,8.055 9.247,8.036 9.555,7.832 L12,6.202 L14.445,7.832 C14.613,7.944 14.806,8 15,8 C15.162,8 15.324,7.961 15.472,7.882 C15.797,7.708 16,7.369 16,7 L16,2 L20.543,2 C21.346,2 22,2.654 22,3.457 L22,7 C22,7.552 22.448,8 23,8 C23.553,8 24,7.552 24,7 L24,3.457 C24,1.551 22.449,0 20.543,0"/><path d="M20,18 L18,18 L18,20 C18,20.552 17.552,21 17,21 C16.448,21 16,20.552 16,20 L16,18 L14,18 C13.448,18 13,17.552 13,17 C13,16.448 13.448,16 14,16 L16,16 L16,14 C16,13.448 16.448,13 17,13 C17.552,13 18,13.448 18,14 L18,16 L20,16 C20.552,16 21,16.448 21,17 C21,17.552 20.552,18 20,18 M17,10 C13.14,10 10,13.14 10,17 C10,20.86 13.14,24 17,24 C20.86,24 24,20.86 24,17 C24,13.14 20.86,10 17,10"/></g></g></g><text x="0" y="39" fill="#000000" font-size="5px" font-weight="bold" font-family="'Helvetica Neue', Helvetica, Arial-Unicode, Arial, Sans-serif">Created by Oliviu Stoian</text><text x="0" y="44" fill="#000000" font-size="5px" font-weight="bold" font-family="'Helvetica Neue', Helvetica, Arial-Unicode, Arial, Sans-serif">from the Noun Project</text></svg>