<svg xmlns="http://www.w3.org/2000/svg" width="24" height="24" viewBox="0 0 24 24">
    <g fill="#000" fill-rule="evenodd">
        <path fill-rule="nonzero" d="M15.879 9.768h-.768V7.846A3.85 3.85 0 0 0 11.265 4 3.85 3.85 0 0 0 7.42 7.846v1.922h-.767C5.742 9.768 5 10.51 5 11.42v7.063c0 .91.741 1.652 1.652 1.652h9.227c.91 0 1.652-.741 1.652-1.652V11.42c0-.91-.742-1.652-1.652-1.652zm-7.22-1.922a2.61 2.61 0 0 1 2.606-2.607 2.61 2.61 0 0 1 2.607 2.607v1.922H8.658V7.846zm7.633 10.637a.413.413 0 0 1-.413.413H6.652a.413.413 0 0 1-.413-.413V11.42c0-.228.185-.413.413-.413h9.227c.227 0 .413.185.413.413v7.063z" opacity=".8"/>
        <path d="M11 14h1v2h-1z"/>
    </g>
</svg>
