<?xml version="1.0" encoding="iso-8859-1"?>
<!-- Generator: Adobe Illustrator 19.0.0, SVG Export Plug-In . SVG Version: 6.00 Build 0)  -->
<svg version="1.1" id="Layer_1" xmlns="http://www.w3.org/2000/svg" xmlns:xlink="http://www.w3.org/1999/xlink" x="0px" y="0px"
	 viewBox="0 0 512 512" style="enable-background:new 0 0 512 512;" xml:space="preserve">
<g>
	<g>
		<g>
			<path d="M384,0H128c-23.531,0-42.667,19.135-42.667,42.667v426.667C85.333,492.865,104.469,512,128,512h256
				c23.531,0,42.667-19.135,42.667-42.667V42.667C426.667,19.135,407.531,0,384,0z M405.333,469.333
				c0,11.76-9.573,21.333-21.333,21.333H128c-11.76,0-21.333-9.573-21.333-21.333v-42.667h298.667V469.333z M405.333,405.333
				H106.667V42.667c0-11.76,9.573-21.333,21.333-21.333h256c11.76,0,21.333,9.573,21.333,21.333V405.333z"/>
			<path d="M245.333,64h21.333c5.896,0,10.667-4.771,10.667-10.667c0-5.896-4.771-10.667-10.667-10.667h-21.333
				c-5.896,0-10.667,4.771-10.667,10.667C234.667,59.229,239.438,64,245.333,64z"/>
			<path d="M224,469.333h64c5.896,0,10.667-4.771,10.667-10.667S293.896,448,288,448h-64c-5.896,0-10.667,4.771-10.667,10.667
				S218.104,469.333,224,469.333z"/>
			<circle cx="373.333" cy="53.333" r="10.667"/>
			<path d="M365.26,202.99l-20.438-5.115l10.833-18.063c2.521-4.198,1.854-9.573-1.604-13.031l-30.167-30.167
				c-3.458-3.458-8.854-4.115-13.031-1.604l-18.063,10.833l-5.115-20.438c-1.188-4.74-5.448-8.073-10.344-8.073h-42.667
				c-4.896,0-9.156,3.333-10.344,8.073l-5.115,20.438l-18.063-10.833c-4.188-2.5-9.573-1.854-13.031,1.604l-30.167,30.167
				c-3.458,3.458-4.125,8.833-1.604,13.031l10.833,18.063l-20.438,5.115c-4.74,1.188-8.073,5.448-8.073,10.344V256
				c0,4.896,3.333,9.156,8.073,10.344l20.438,5.115l-10.833,18.063c-2.521,4.198-1.854,9.573,1.604,13.031l30.167,30.167
				c3.438,3.448,8.833,4.094,13.031,1.604l18.063-10.833l5.115,20.438c1.188,4.74,5.448,8.073,10.344,8.073h42.667
				c4.896,0,9.156-3.333,10.344-8.073l5.115-20.438l18.063,10.833c4.188,2.51,9.573,1.844,13.031-1.604l30.167-30.167
				c3.458-3.458,4.125-8.833,1.604-13.031l-10.833-18.063l20.438-5.115c4.74-1.188,8.073-5.448,8.073-10.344v-42.667
				C373.333,208.438,370,204.177,365.26,202.99z M352,247.677l-18.323,4.583c-3.479,0.865-6.292,3.427-7.479,6.823
				c-0.948,2.729-1.99,5.396-3.25,7.979c-1.573,3.25-1.406,7.063,0.448,10.156l9.688,16.135l-18.396,18.396l-16.135-9.688
				c-3.115-1.865-6.927-2.031-10.156-0.448c-2.583,1.26-5.25,2.302-7.979,3.25c-3.396,1.188-5.958,4-6.823,7.479l-4.583,18.323
				H242.99l-4.583-18.323c-0.865-3.479-3.427-6.292-6.823-7.479c-2.729-0.948-5.396-1.99-7.979-3.25
				c-3.25-1.573-7.052-1.417-10.156,0.448l-16.135,9.688l-18.396-18.396l9.688-16.135c1.854-3.094,2.021-6.906,0.448-10.156
				c-1.26-2.583-2.302-5.25-3.25-7.979c-1.188-3.396-4-5.958-7.479-6.823L160,247.677v-26.021l18.323-4.583
				c3.479-0.865,6.292-3.427,7.479-6.823c0.948-2.729,1.99-5.396,3.25-7.979c1.573-3.25,1.406-7.063-0.448-10.156l-9.688-16.135
				l18.396-18.396l16.135,9.688c3.104,1.833,6.896,2.021,10.156,0.448c2.583-1.26,5.25-2.302,7.979-3.25
				c3.396-1.188,5.958-4,6.823-7.479l4.583-18.323h26.021l4.583,18.323c0.865,3.479,3.427,6.292,6.823,7.479
				c2.729,0.948,5.396,1.99,7.979,3.25c3.24,1.583,7.063,1.406,10.156-0.448l16.135-9.688l18.396,18.396l-9.688,16.135
				c-1.854,3.094-2.021,6.906-0.448,10.156c1.26,2.583,2.302,5.25,3.25,7.979c1.188,3.396,4,5.958,7.479,6.823L352,221.656V247.677z
				"/>
			<path d="M256,181.333c-29.406,0-53.333,23.927-53.333,53.333S226.594,288,256,288s53.333-23.927,53.333-53.333
				S285.406,181.333,256,181.333z M256,266.667c-17.646,0-32-14.354-32-32c0-17.646,14.354-32,32-32s32,14.354,32,32
				C288,252.313,273.646,266.667,256,266.667z"/>
		</g>
	</g>
</g>
<g>
</g>
<g>
</g>
<g>
</g>
<g>
</g>
<g>
</g>
<g>
</g>
<g>
</g>
<g>
</g>
<g>
</g>
<g>
</g>
<g>
</g>
<g>
</g>
<g>
</g>
<g>
</g>
<g>
</g>
</svg>
