<?xml version="1.0" encoding="utf-8"?>
<!-- Generator: Adobe Illustrator 21.0.2, SVG Export Plug-In . SVG Version: 6.00 Build 0)  -->
<svg version="1.1" id="Layer_1" xmlns="http://www.w3.org/2000/svg" xmlns:xlink="http://www.w3.org/1999/xlink" x="0px" y="0px"
	 viewBox="0 0 20 25" style="enable-background:new 0 0 20 25;" xml:space="preserve">
<style type="text/css">
	.st0{display:none;}
</style>
<rect x="-167" y="-33" class="st0" width="198" height="87"/>
<g>
	<path d="M-123-6c-9.1,0-16.5,7.4-16.5,16.5S-132.1,27-123,27s16.5-7.4,16.5-16.5S-113.9-6-123-6z M-123,19.6c-5,0-9.1-4.1-9.1-9.1
		s4.1-9.1,9.1-9.1s9.1,4.1,9.1,9.1S-118,19.6-123,19.6z"/>
	<path d="M-99.8,5.9c-0.1-0.4-0.2-0.7-0.2-1.1l0,0c-0.8-3.4,5-5.9,5-5.9l-1.4-2.6l-0.1-0.1l0-0.1l-0.1-0.1L-98-6.7
		c0,0-5.3,3.6-7.7,1.1l-0.1,0c0,0,0,0,0,0l0-0.1c-2.3-2.5,1.5-7.6,1.5-7.6l-2.5-1.6l-0.1-0.1L-107-15l-0.1-0.1l-2.5-1.6
		c0,0-2.8,5.7-6.2,4.7l0,0c-0.5-0.1-0.9-0.3-1.4-0.4c-3.2-1.1-2.6-7.2-2.6-7.2h-3h-0.2h-0.1h-0.2h-3c0,0,0.6,6.3-2.7,7.3v0.1
		l-0.1-0.1c-3.4,0.8-5.9-5-5.9-5l-2.6,1.5l-0.1,0.1l-0.1,0.1l-0.1,0.1l-2.6,1.5c0,0,3.6,5.2,1.2,7.7l0.1,0.2
		c-0.1,0.1-0.1,0.1-0.2,0.2l-0.2-0.1c-2.5,2.4-7.7-1.3-7.7-1.3l-1.5,2.6l-0.1,0.1l-0.1,0.1l-0.1,0.1l-1.5,2.6c0,0,5.8,2.7,4.9,6
		l0.1,0.1h-0.1c-1,3.3-7.3,2.6-7.3,2.6l0,3l0,0.2l0,0.1l0,0.2l0,3c0,0,6.3-0.5,7.2,2.8l0.4,0c0,0.1,0,0.1,0,0.2l0,0
		c0.8,3.4-5,5.9-5,5.9l1.4,2.6l0.1,0.1l0,0.1l0.1,0.1l1.4,2.6c0,0,5.3-3.6,7.7-1.1l0.1,0c0,0,0,0,0,0l0,0.1c2.3,2.5-1.5,7.6-1.5,7.6
		l2.5,1.6l0.1,0.1l0.1,0.1l0.1,0.1l2.5,1.6c0,0,2.8-5.7,6.2-4.7l0,0c0.2,0.1,0.4,0.1,0.7,0.2v0.1c3.3,0.9,2.7,7.3,2.7,7.3h3h0.2h0.1
		h0.2h3c0,0-0.6-6.1,2.6-7.2c0.1,0,0.3-0.1,0.4-0.1c3.3-0.5,5.7,5,5.7,5l2.6-1.5l0.1-0.1l0.1,0l0.1-0.1l2.6-1.5c0,0-3.1-4.4-1.6-7.1
		c0.5-0.4,1-0.9,1.4-1.4c2.6-1.4,7,1.8,7,1.8l1.5-2.6l0.1-0.1l0.1-0.1l0.1-0.1l1.5-2.6c0,0-4.6-2.2-5-5c0.2-0.6,0.4-1.3,0.5-1.9
		c1.8-2.3,6.8-1.7,6.8-1.7l0-3l0-0.2l0-0.1l0-0.2l0-3C-93,7.8-98.1,8.2-99.8,5.9z M-123,28.1c-9.7,0-17.6-7.9-17.6-17.6
		s7.9-17.6,17.6-17.6s17.6,7.9,17.6,17.6S-113.3,28.1-123,28.1z"/>
</g>
<g>
	<path d="M-64-2c-6.1,0-11,4.9-11,11s4.9,11,11,11s11-4.9,11-11S-57.9-2-64-2z M-64,15c-3.3,0-6-2.7-6-6s2.7-6,6-6s6,2.7,6,6
		S-60.7,15-64,15z"/>
	<path d="M-48.5,5.9c0-0.2-0.1-0.5-0.2-0.7l0,0c-0.5-2.2,3.4-3.9,3.4-3.9l-1-1.7l-0.1-0.1l0-0.1l-0.1-0.1l-1-1.7
		c0,0-3.5,2.4-5.1,0.7l0,0c0,0,0,0,0,0l0,0c-1.6-1.7,1-5.1,1-5.1l-1.7-1L-53.3-8l-0.1,0l-0.1-0.1l-1.7-1c0,0-1.9,3.8-4.1,3.2l0,0
		c-0.3-0.1-0.6-0.2-0.9-0.3c-2.1-0.7-1.7-4.8-1.7-4.8h-2H-64H-64h-0.1h-2c0,0,0.4,4.2-1.8,4.8v0.1l0-0.1c-2.2,0.5-4-3.3-4-3.3
		l-1.7,1l-0.1,0.1l-0.1,0l-0.1,0.1l-1.7,1c0,0,2.4,3.5,0.8,5.1l0.1,0.2c0,0-0.1,0.1-0.1,0.1L-75.1-2c-1.7,1.6-5.1-0.9-5.1-0.9
		l-1,1.7l-0.1,0.1l0,0.1l-0.1,0.1l-1,1.7c0,0,3.8,1.8,3.3,4l0.1,0h-0.1c-0.7,2.2-4.9,1.7-4.9,1.7l0,2l0,0.1l0,0.1l0,0.1l0,2
		c0,0,4.2-0.3,4.8,1.9l0.2,0c0,0,0,0.1,0,0.1l0,0c0.5,2.2-3.4,3.9-3.4,3.9l1,1.7l0.1,0.1l0,0.1l0.1,0.1l1,1.7c0,0,3.5-2.4,5.1-0.7
		l0,0c0,0,0,0,0,0l0,0c1.6,1.7-1,5.1-1,5.1l1.7,1l0.1,0.1l0.1,0l0.1,0.1l1.7,1c0,0,1.9-3.8,4.1-3.2l0,0c0.1,0,0.3,0.1,0.4,0.1v0.1
		c2.2,0.6,1.8,4.8,1.8,4.8h2h0.1h0.1h0.1h2c0,0-0.4-4.1,1.7-4.8c0.1,0,0.2,0,0.3-0.1c2.2-0.3,3.8,3.3,3.8,3.3l1.7-1l0.1-0.1l0.1,0
		l0.1-0.1l1.7-1c0,0-2.1-3-1.1-4.7c0.3-0.3,0.7-0.6,1-0.9c1.8-0.9,4.7,1.2,4.7,1.2l1-1.7l0.1-0.1l0-0.1l0.1-0.1l1-1.7
		c0,0-3.1-1.4-3.3-3.4c0.1-0.4,0.3-0.9,0.4-1.3c1.2-1.5,4.6-1.1,4.6-1.1l0-2l0-0.1l0-0.1l0-0.1l0-2C-44,7.2-47.4,7.4-48.5,5.9z
		 M-64,20.7c-6.5,0-11.7-5.3-11.7-11.7S-70.5-2.7-64-2.7S-52.3,2.5-52.3,9S-57.5,20.7-64,20.7z"/>
</g>
<g>
	<path d="M-21,2.7c-4.6,0-8.3,3.7-8.3,8.3s3.7,8.3,8.3,8.3s8.3-3.7,8.3-8.3S-16.4,2.7-21,2.7z M-21,15.5c-2.5,0-4.5-2-4.5-4.5
		s2-4.5,4.5-4.5s4.5,2,4.5,4.5S-18.5,15.5-21,15.5z"/>
	<path d="M-9.4,8.7c0-0.2-0.1-0.4-0.1-0.5l0,0c-0.4-1.7,2.5-3,2.5-3l-0.7-1.3l0-0.1l0,0l0-0.1l-0.7-1.3c0,0-2.6,1.8-3.8,0.6l0,0
		c0,0,0,0,0,0l0,0c-1.2-1.3,0.8-3.8,0.8-3.8l-1.3-0.8l-0.1,0l0,0l-0.1,0l-1.3-0.8c0,0-1.4,2.9-3.1,2.4l0,0c-0.2-0.1-0.5-0.1-0.7-0.2
		C-19.7-0.9-19.4-4-19.4-4h-1.5H-21h0h-0.1h-1.5c0,0,0.3,3.2-1.4,3.6v0.1l0,0c-1.7,0.4-3-2.5-3-2.5l-1.3,0.7l-0.1,0l0,0l-0.1,0
		l-1.3,0.7c0,0,1.8,2.6,0.6,3.8l0.1,0.1c0,0-0.1,0.1-0.1,0.1l-0.1-0.1c-1.2,1.2-3.8-0.7-3.8-0.7l-0.7,1.3l0,0.1l0,0l0,0.1l-0.7,1.3
		c0,0,2.9,1.3,2.4,3l0,0h-0.1c-0.5,1.7-3.7,1.3-3.7,1.3l0,1.5l0,0.1v0.1l0,0.1l0,1.5c0,0,3.2-0.3,3.6,1.4l0.2,0c0,0,0,0.1,0,0.1l0,0
		c0.4,1.7-2.5,3-2.5,3l0.7,1.3l0,0.1l0,0l0,0.1l0.7,1.3c0,0,2.6-1.8,3.8-0.6l0,0c0,0,0,0,0,0l0,0c1.2,1.3-0.8,3.8-0.8,3.8l1.3,0.8
		l0.1,0l0,0l0.1,0l1.3,0.8c0,0,1.4-2.9,3.1-2.4l0,0c0.1,0,0.2,0.1,0.3,0.1v0.1c1.7,0.5,1.4,3.6,1.4,3.6h1.5h0.1h0h0.1h1.5
		c0,0-0.3-3.1,1.3-3.6c0.1,0,0.1,0,0.2,0c1.6-0.3,2.9,2.5,2.9,2.5l1.3-0.7l0.1,0l0,0l0.1,0l1.3-0.7c0,0-1.5-2.2-0.8-3.5
		c0.2-0.2,0.5-0.5,0.7-0.7c1.3-0.7,3.5,0.9,3.5,0.9l0.7-1.3l0-0.1l0,0l0-0.1l0.7-1.3c0,0-2.3-1.1-2.5-2.5c0.1-0.3,0.2-0.6,0.3-1
		c0.9-1.1,3.4-0.9,3.4-0.9l0-1.5l0-0.1v-0.1l0-0.1l0-1.5C-6,9.6-8.5,9.8-9.4,8.7z M-21,19.8c-4.9,0-8.8-3.9-8.8-8.8s4-8.8,8.8-8.8
		s8.8,3.9,8.8,8.8S-16.1,19.8-21,19.8z"/>
</g>
<g>
	<path d="M10,4.5C7,4.5,4.5,7,4.5,10S7,15.5,10,15.5s5.5-2.5,5.5-5.5S13,4.5,10,4.5z M10,13c-1.7,0-3-1.4-3-3s1.4-3,3-3s3,1.4,3,3
		S11.7,13,10,13z"/>
	<path d="M17.7,8.5c0-0.1-0.1-0.2-0.1-0.4l0,0c-0.3-1.1,1.7-2,1.7-2l-0.5-0.9l0,0l0,0l0-0.1l-0.5-0.9c0,0-1.8,1.2-2.6,0.4l0,0
		c0,0,0,0,0,0l0,0c-0.8-0.8,0.5-2.5,0.5-2.5l-0.8-0.5l0,0l0,0l0,0L14.5,1c0,0-0.9,1.9-2.1,1.6l0,0c-0.2,0-0.3-0.1-0.5-0.1
		C10.9,2.1,11.1,0,11.1,0h-1H10h0H9.9h-1c0,0,0.2,2.1-0.9,2.4v0l0,0C6.9,2.7,6,0.8,6,0.8L5.2,1.3l0,0l0,0l0,0L4.2,1.8
		c0,0,1.2,1.7,0.4,2.6l0,0.1c0,0,0,0-0.1,0.1l-0.1,0C3.6,5.3,1.9,4,1.9,4L1.4,4.9l0,0l0,0l0,0L0.8,5.9c0,0,1.9,0.9,1.6,2l0,0h0
		C2.1,9,0,8.8,0,8.8l0,1l0,0.1v0l0,0.1l0,1c0,0,2.1-0.2,2.4,0.9l0.1,0c0,0,0,0,0,0.1l0,0c0.3,1.1-1.7,2-1.7,2l0.5,0.9l0,0l0,0l0,0
		l0.5,0.9c0,0,1.8-1.2,2.6-0.4l0,0c0,0,0,0,0,0l0,0c0.8,0.8-0.5,2.5-0.5,2.5l0.8,0.5l0,0l0,0l0,0L5.7,19c0,0,0.9-1.9,2.1-1.6l0,0
		c0.1,0,0.1,0,0.2,0.1v0C9.1,17.9,8.9,20,8.9,20h1H10h0h0.1h1c0,0-0.2-2,0.9-2.4c0,0,0.1,0,0.1,0c1.1-0.2,1.9,1.7,1.9,1.7l0.9-0.5
		l0,0l0,0l0,0l0.9-0.5c0,0-1-1.5-0.5-2.4c0.2-0.1,0.3-0.3,0.5-0.5c0.9-0.4,2.3,0.6,2.3,0.6l0.5-0.9l0,0l0,0l0,0l0.5-0.9
		c0,0-1.5-0.7-1.7-1.7c0.1-0.2,0.1-0.4,0.2-0.6c0.6-0.8,2.3-0.6,2.3-0.6l0-1l0-0.1v0l0-0.1l0-1C20,9.1,18.3,9.2,17.7,8.5z M10,15.9
		c-3.2,0-5.9-2.6-5.9-5.9S6.8,4.1,10,4.1s5.9,2.6,5.9,5.9S13.2,15.9,10,15.9z"/>
</g>
<text transform="matrix(1 0 0 1 0 35)" style="font-family:'HelveticaNeue-Bold'; font-size:5px;">Created by Alex Auda Samora</text>
<text transform="matrix(1 0 0 1 0 40)" style="font-family:'HelveticaNeue-Bold'; font-size:5px;">from the Noun Project</text>
</svg>
