<svg xmlns="http://www.w3.org/2000/svg" xmlns:xlink="http://www.w3.org/1999/xlink" width="18" height="12" viewBox="0 0 18 12"><defs><path id="qphla" d="M490.36 389.57h-12.83a.84.84 0 0 1-.85-.84v-5.13l5.76 3.96c.13.1.7.51 1.52.51.78 0 1.46-.49 1.52-.53l5.72-3.99v5.18c0 .47-.38.84-.84.84zm-12.83-8.89h12.83c.46 0 .84.38.84.85v.88l-6.26 4.38c-.14.1-.58.36-.98.36-.55 0-.93-.3-.93-.31l-6.35-4.38v-.93c0-.47.38-.85.85-.85zm12.82-.93h-12.82c-.98 0-1.78.8-1.78 1.78v7.2c0 .98.8 1.78 1.78 1.78h12.82c.98 0 1.77-.8 1.77-1.78v-7.2c0-.98-.8-1.78-1.77-1.78z"/></defs><g><g opacity=".87" transform="translate(-475 -379)"><use xlink:href="#qphla"/><use fill="#fff" fill-opacity="0" stroke="#000" stroke-miterlimit="50" stroke-width=".2" xlink:href="#qphla"/></g></g></svg>