<svg xmlns="http://www.w3.org/2000/svg" xmlns:xlink="http://www.w3.org/1999/xlink" version="1.1" x="0px" y="0px" viewBox="0 0 20 25" enable-background="new 0 0 20 20" xml:space="preserve"><g><path fill="#000000" d="M7,8c2.2,0,4-1.8,4-4c0-2.2-1.8-4-4-4C4.8,0,3,1.8,3,4C3,6.2,4.8,8,7,8z M7,2c1.1,0,2,0.9,2,2   c0,1.1-0.9,2-2,2C5.9,6,5,5.1,5,4C5,2.9,5.9,2,7,2z"/><path fill="#000000" d="M19.1,8.9c-1.1-1.1-3.1-1.1-4.2,0l-2.6,2.6C11,9.9,9.1,9,7,9c-3.9,0-7,3.1-7,7v1h8v3h4.2l6.9-6.9   C20.3,12,20.3,10,19.1,8.9z M7,11c1.5,0,2.9,0.7,3.9,1.9L8.8,15H2.1C2.6,12.7,4.6,11,7,11z M11.4,18H10v-1.4l4.2-4.2l1.4,1.4   L11.4,18z M17.7,11.7L17,12.4L15.6,11l0.7-0.7c0.4-0.4,1-0.4,1.4,0C18.1,10.7,18.1,11.3,17.7,11.7z"/></g><text x="0" y="35" fill="#000000" font-size="5px" font-weight="bold" font-family="'Helvetica Neue', Helvetica, Arial-Unicode, Arial, Sans-serif">Created by ProSymbols</text><text x="0" y="40" fill="#000000" font-size="5px" font-weight="bold" font-family="'Helvetica Neue', Helvetica, Arial-Unicode, Arial, Sans-serif">from the Noun Project</text></svg>