<svg xmlns="http://www.w3.org/2000/svg" xmlns:xlink="http://www.w3.org/1999/xlink" viewBox="0 0 24 30" version="1.1" x="0px" y="0px"><title>23 -Edit Delivery- (shipping, transport, delivery)</title><desc>Created with Sketch.</desc><g stroke="none" stroke-width="1" fill="none" fill-rule="evenodd"><g transform="translate(-196.000000, -413.000000)" fill="#000000"><g transform="translate(196.000000, 413.000000)"><path d="M20.543,0 L15,0 L9,0 L3.457,0 C1.551,0 0,1.551 0,3.457 L0,20.543 C0,22.449 1.551,24 3.457,24 L9,24 C9.553,24 10,23.552 10,23 C10,22.448 9.553,22 9,22 L3.457,22 C2.653,22 2,21.346 2,20.543 L2,3.457 C2,2.654 2.653,2 3.457,2 L8,2 L8,7 C8,7.369 8.203,7.708 8.528,7.882 C8.853,8.056 9.248,8.036 9.555,7.832 L12,6.202 L14.445,7.832 C14.612,7.944 14.806,8 15,8 C15.162,8 15.324,7.961 15.472,7.882 C15.797,7.708 16,7.369 16,7 L16,2 L20.543,2 C21.347,2 22,2.654 22,3.457 L22,7 C22,7.552 22.447,8 23,8 C23.553,8 24,7.552 24,7 L24,3.457 C24,1.551 22.449,0 20.543,0"/><path d="M23.4863,14.5942 L22.4063,13.5142 C21.7443,12.8512 20.5873,12.8512 19.9263,13.5132 L14.1603,19.2802 C14.0403,19.4002 13.9533,19.5482 13.9063,19.7102 L13.0393,22.7232 C12.9383,23.0732 13.0353,23.4492 13.2933,23.7072 C13.4833,23.8972 13.7383,24.0002 14.0003,24.0002 C14.0923,24.0002 14.1853,23.9872 14.2763,23.9612 L17.2893,23.0942 C17.4523,23.0472 17.6003,22.9592 17.7193,22.8402 L23.4863,17.0732 C24.1693,16.3902 24.1703,15.2782 23.4873,14.5942 L23.4863,14.5942"/></g></g></g><text x="0" y="39" fill="#000000" font-size="5px" font-weight="bold" font-family="'Helvetica Neue', Helvetica, Arial-Unicode, Arial, Sans-serif">Created by Oliviu Stoian</text><text x="0" y="44" fill="#000000" font-size="5px" font-weight="bold" font-family="'Helvetica Neue', Helvetica, Arial-Unicode, Arial, Sans-serif">from the Noun Project</text></svg>