<svg xmlns="http://www.w3.org/2000/svg" xmlns:xlink="http://www.w3.org/1999/xlink" version="1.1" x="0px" y="0px" viewBox="0 0 24 24" enable-background="new 0 0 24 24" xml:space="preserve"><path d="M15,10H5c-0.276,0-0.5-0.224-0.5-0.5S4.724,9,5,9h10c0.276,0,0.5,0.224,0.5,0.5S15.276,10,15,10z"></path><path d="M15,13H5c-0.276,0-0.5-0.224-0.5-0.5S4.724,12,5,12h10c0.276,0,0.5,0.224,0.5,0.5S15.276,13,15,13z"></path><path d="M10,16H5c-0.276,0-0.5-0.224-0.5-0.5S4.724,15,5,15h5c0.276,0,0.5,0.224,0.5,0.5S10.276,16,10,16z"></path><path d="M19.5,10.5c0.276,0,0.5-0.224,0.5-0.5V6.5c0-0.065-0.013-0.13-0.039-0.191c-0.025-0.061-0.062-0.116-0.108-0.162l-6-6  c-0.046-0.046-0.101-0.083-0.163-0.108C13.63,0.013,13.565,0,13.5,0h-12C0.673,0,0,0.673,0,1.5v21C0,23.327,0.673,24,1.5,24h17  c0.827,0,1.5-0.673,1.5-1.5V20c0-0.276-0.224-0.5-0.5-0.5S19,19.724,19,20v2.5c0,0.276-0.225,0.5-0.5,0.5h-17  C1.225,23,1,22.776,1,22.5v-21C1,1.224,1.225,1,1.5,1H13v4.5C13,6.327,13.673,7,14.5,7H19v3C19,10.276,19.224,10.5,19.5,10.5z   M14,5.5V1.707L18.293,6H14.5C14.225,6,14,5.776,14,5.5z"></path><path d="M23.857,12.997l-2.122-2.122c-0.188-0.188-0.52-0.188-0.707,0l-5.657,5.657c-0.054,0.054-0.089,0.117-0.113,0.185  c-0.002,0.004-0.006,0.007-0.008,0.011L14.19,19.91c-0.06,0.179-0.013,0.377,0.121,0.511c0.095,0.095,0.223,0.146,0.354,0.146  c0.053,0,0.106-0.008,0.158-0.025l3.182-1.061c0.005-0.001,0.008-0.006,0.013-0.008c0.067-0.024,0.13-0.061,0.182-0.112l5.657-5.657  C24.053,13.509,24.053,13.192,23.857,12.997z M15.944,17.812l0.488,0.489l0.489,0.489l-1.466,0.488L15.944,17.812z M17.847,18.3  l-0.707-0.707l-0.707-0.708l4.95-4.949l1.415,1.414L17.847,18.3z"></path></svg>