<?xml version="1.0" encoding="UTF-8" standalone="no"?>
<svg width="28px" height="29px" viewBox="0 0 28 29" version="1.1" xmlns="http://www.w3.org/2000/svg" xmlns:xlink="http://www.w3.org/1999/xlink">
    <!-- Generator: Sketch 47.1 (45422) - http://www.bohemiancoding.com/sketch -->
    <title>Bulb</title>
    <desc>Created with Sketch.</desc>
    <defs></defs>
    <g id="Page-1" stroke="none" stroke-width="1" fill="none" fill-rule="evenodd" opacity="0.870000005">
        <g id="Stock-Manager-Tip-Popup" transform="translate(-404.000000, -293.000000)">
            <g id="Bulb" transform="translate(402.000000, 291.000000)">
                <path d="M10.1409639,21.3915663 C11.2240964,22.4048193 11.7831325,23.6626506 11.7831325,25.060241 L11.7831325,29.6024096 C11.7831325,30.3361446 12.4819277,31 13.2156627,31 L18.0373494,31 C18.7710843,31 19.4698795,30.3361446 19.4698795,29.6024096 L19.4698795,25.060241 C19.4698795,23.6626506 20.0289157,22.4048193 21.0771084,21.426506 C22.7192771,19.8891566 23.6626506,17.6879518 23.6626506,15.4168675 C23.6626506,13.1457831 22.7192771,10.9795181 21.1120482,9.44216867 C19.5048193,7.90481928 17.4084337,7.13614458 15.2072289,7.24096386 C11.1192771,7.45060241 7.76506024,10.8746988 7.59036145,15.0325301 C7.48554217,17.4433735 8.42891566,19.7493976 10.1409639,21.3915663 Z" id="Path" fill="#F4EC8A"></path>
                <path d="M10.1409639,21.3915663 C11.2240964,22.4048193 11.7831325,23.6626506 11.7831325,25.060241 L11.7831325,29.6024096 C11.7831325,30.3361446 12.4819277,31 13.2156627,31 L18.0373494,31 C18.7710843,31 19.4698795,30.3361446 19.4698795,29.6024096 L19.4698795,25.060241 C19.4698795,23.6626506 20.0289157,22.4048193 21.0771084,21.426506 C22.7192771,19.8891566 23.6626506,17.6879518 23.6626506,15.4168675 C23.6626506,13.1457831 22.7192771,10.9795181 21.1120482,9.44216867 C19.5048193,7.90481928 17.4084337,7.13614458 15.2072289,7.24096386 C11.1192771,7.45060241 7.76506024,10.8746988 7.59036145,15.0325301 C7.48554217,17.4433735 8.42891566,19.7493976 10.1409639,21.3915663 Z M18.0722892,29.5674699 C18.0722892,29.5674699 18.0373494,29.6024096 18.0373494,29.6024096 L13.2506024,29.6024096 C13.2506024,29.6024096 13.2156627,29.5674699 13.1807229,29.5674699 L13.1807229,26.4578313 L18.0722892,26.4578313 L18.0722892,29.5674699 Z M8.98795181,15.1024096 C9.12771084,11.6433735 11.8879518,8.81325301 15.2771084,8.63855422 C17.0939759,8.53373494 18.8060241,9.19759036 20.1337349,10.4554217 C21.4963855,11.7481928 22.2650602,13.5301205 22.2650602,15.4168675 C22.2650602,17.3036145 21.4963855,19.1204819 20.1337349,20.3783133 C18.7710843,21.6361446 18.0722892,23.2433735 18.0722892,25.0253012 L13.1807229,25.0253012 C13.1807229,23.2433735 12.4819277,21.6710843 11.1192771,20.3433735 C9.68674699,19.0156627 8.91807229,17.0939759 8.98795181,15.1024096 Z" id="Shape" fill="#444444" fill-rule="nonzero"></path>
                <rect id="Rectangle-path" fill="#444444" fill-rule="nonzero" x="25.7590361" y="14.9277108" width="3.4939759" height="1.39759036"></rect>
                <rect id="Rectangle-path" fill="#444444" fill-rule="nonzero" x="2" y="14.9277108" width="3.4939759" height="1.39759036"></rect>
                <rect id="Rectangle-path" fill="#444444" fill-rule="nonzero" x="14.9277108" y="2" width="1.39759036" height="3.35421687"></rect>
                <rect id="Rectangle-path" fill="#444444" fill-rule="nonzero" transform="translate(23.948231, 7.144981) rotate(-45.000000) translate(-23.948231, -7.144981) " x="22.2711384" y="6.44619236" width="3.3541847" height="1.39757696"></rect>
                <rect id="Rectangle-path" fill="#444444" fill-rule="nonzero" transform="translate(7.289583, 23.814160) rotate(-45.000000) translate(-7.289583, -23.814160) " x="5.61249018" y="23.1153714" width="3.3541847" height="1.39757696"></rect>
                <rect id="Rectangle-path" fill="#444444" fill-rule="nonzero" transform="translate(7.309023, 7.125540) rotate(-45.000000) translate(-7.309023, -7.125540) " x="6.61023453" y="5.44844801" width="1.39757696" height="3.3541847"></rect>
                <rect id="Rectangle-path" fill="#444444" fill-rule="nonzero" transform="translate(23.953531, 23.808894) rotate(-45.000000) translate(-23.953531, -23.808894) " x="23.2547426" y="22.1318021" width="1.39757696" height="3.3541847"></rect>
            </g>
        </g>
    </g>
</svg>