<svg xmlns="http://www.w3.org/2000/svg" xmlns:xlink="http://www.w3.org/1999/xlink" width="23" height="23" viewBox="0 0 23 23"><defs><path id="hqiga" d="M957.16 324.01H959V330h-5.99v-1.84h4.15zm-19.32 4.15H942V330H936v-5.99h1.84zM959 307v5.99h-1.84v-4.15H953V307zm-21.16 5.99H936V307h5.99v1.84h-4.15z"/><path id="hqigb" d="M954.69 318.5v3.59h-14.51v-3.59l2.3-5.37s.42-.9 1.33-.9h7.25c.9 0 1.36.9 1.36.9zm-12.7 6.28c-1 0-1.81-.8-1.81-1.8h3.63c0 1-.82 1.8-1.82 1.8zm10.88 0c-1 0-1.81-.8-1.81-1.8h3.63c0 1-.82 1.8-1.82 1.8zm-12.69-2.24v.44h14.5v-.44z"/><path id="hqigc" d="M941.09 319.84c0-.74.6-1.34 1.36-1.34.75 0 1.36.6 1.36 1.34 0 .74-.6 1.34-1.36 1.34-.75 0-1.36-.6-1.36-1.34zm9.97 0c0-.74.61-1.34 1.36-1.34.75 0 1.36.6 1.36 1.34 0 .74-.6 1.34-1.36 1.34-.75 0-1.36-.6-1.36-1.34zm0-6.72c.37 0 .55.34.55.34l1.72 4.14h-11.79l1.73-4.1s.2-.38.54-.38z"/></defs><g><g opacity=".6" transform="translate(-936 -307)"><use xlink:href="#hqiga"/></g><g opacity=".6" transform="translate(-936 -307)"><use xlink:href="#hqigb"/></g><g opacity=".6" transform="translate(-936 -307)"><use fill="#f2f2f2" xlink:href="#hqigc"/></g></g></svg>