<?xml version="1.0" encoding="UTF-8"?>
<svg width="16px" height="20px" viewBox="0 0 16 20" version="1.1" xmlns="http://www.w3.org/2000/svg" xmlns:xlink="http://www.w3.org/1999/xlink">
    <!-- Generator: Sketch 52.5 (67469) - http://www.bohemiancoding.com/sketch -->
    <title>delete</title>
    <desc>Created with Sketch.</desc>
    <g id="Page-1" stroke="none" stroke-width="1" fill="none" fill-rule="evenodd" opacity="0.400000006">
        <g id="Stock-Manager-1" transform="translate(-1175.000000, -483.000000)" fill="#000000" fill-rule="nonzero" stroke="#000000" stroke-width="0.7">
            <g id="Group-6" transform="translate(1045.000000, 481.000000)">
                <g id="Group-8" transform="translate(46.000000, 0.000000)">
                    <g id="delete" transform="translate(80.000000, 0.000000)">
                        <path d="M10.5153523,18.5403183 C10.5185955,18.5403183 10.5216359,18.5403183 10.5250817,18.5403183 C10.8048019,18.5353652 11.0275646,18.3093047 11.0222945,18.0358925 L10.8195987,7.38034215 C10.8145313,7.10990174 10.5885255,6.89414379 10.3130619,6.89414379 C10.3098188,6.89414379 10.3067784,6.89414379 10.3033325,6.89414379 C10.0236124,6.89909691 9.80084969,7.12515735 9.80611978,7.39856964 L10.0088156,18.0541199 C10.0140857,18.3245603 10.2398888,18.5403183 10.5153523,18.5403183 Z M13.4797782,18.5403183 C13.7552418,18.5403183 13.9812476,18.3245603 13.986315,18.0541199 L14.1890108,7.39856964 C14.1940782,7.12515735 13.9715182,6.89909691 13.691798,6.89414379 C13.6883522,6.89414379 13.6853117,6.89414379 13.6820686,6.89414379 C13.406605,6.89414379 13.1805992,7.10990174 13.1755318,7.38034215 L12.972836,18.0358925 C12.9677687,18.3093047 13.1903286,18.5353652 13.4700488,18.5403183 C13.4734946,18.5403183 13.4767378,18.5403183 13.4797782,18.5403183 Z M17.4651828,6.89434191 C17.1868814,6.88602067 16.9517543,7.0999955 16.9424303,7.37340778 L16.9020939,8.59801744 C16.8931752,8.87142972 17.1124921,9.10026391 17.392415,9.10898141 C17.3978877,9.10917953 17.4035632,9.10917953 17.409036,9.10917953 C17.6812565,9.10917953 17.9062488,8.89778032 17.9151674,8.62991554 L17.9555039,7.40530588 C17.9642198,7.1318936 17.7449029,6.90325753 17.4651828,6.89434191 Z M17.3539028,10.268408 C17.0778311,10.2600867 16.8402716,10.4740616 16.8311503,10.7474739 L16.5368361,19.7007355 C16.5368361,20.0365571 16.2579266,20.3095731 15.9151681,20.3095731 L8.08097595,20.3095731 C7.73760929,20.3095731 7.4580918,20.0365571 7.4578891,19.6846874 L7.05249753,7.37320966 C7.04357891,7.09979737 6.81088415,6.88483192 6.5297451,6.89414379 C6.25002491,6.90286128 6.03050538,7.13169547 6.03942399,7.40510776 L6.44461287,19.7005374 C6.44461287,20.5825892 7.178777,21.2999992 8.08097595,21.2999992 L15.9149654,21.2999992 C16.8165562,21.2999992 17.5501123,20.5823911 17.5499096,19.7163874 L17.8440212,10.7789757 C17.8531425,10.5059597 17.6336229,10.2771255 17.3539028,10.268408 Z M18.4873776,4.91309348 L15.3050538,4.91309348 L14.9833755,3.39486281 C14.9347286,3.16503799 14.7273708,3 14.4871763,3 L9.50896776,3 C9.26857056,3 9.06141546,3.16503799 9.01276847,3.39486281 L8.69109026,4.91309348 L5.50673946,4.91309348 C5.22681658,4.91309348 5,5.13479518 5,5.40840559 C5,5.682016 5.22681658,5.9037177 5.50673946,5.9037177 L14.8905409,5.9037177 C14.8909463,5.9037177 14.8913517,5.9037177 14.8917571,5.9037177 C14.8921624,5.9037177 14.8923651,5.9037177 14.8927705,5.9037177 L18.4873776,5.9037177 C18.7673005,5.9037177 18.9941171,5.682016 18.9941171,5.40840559 C18.9941171,5.13479518 18.7670978,4.91309348 18.4873776,4.91309348 Z M9.72605495,4.91309348 L9.92145368,3.99082234 L14.0744876,3.99082234 L14.2698864,4.91309348 L9.72605495,4.91309348 Z" id="Shape"></path>
                    </g>
                </g>
            </g>
        </g>
    </g>
</svg>