<svg xmlns="http://www.w3.org/2000/svg" xmlns:xlink="http://www.w3.org/1999/xlink" width="20" height="20" viewBox="0 0 20 20"><defs><path id="qewca" d="M564.74 290.01c0-.3-.23-.53-.52-.53h-6.38c-.3 0-.54.24-.54.53v1.18h7.44zm4.56 1.18a.74.74 0 0 1 0 1.47h-16.56a.74.74 0 0 1 0-1.47h3.08V290c0-1.1.9-2.01 2.02-2.01h6.38a2 2 0 0 1 2 2.01v1.18zm-6.37 11.25a.74.74 0 0 1-.74-.74v-6.28a.74.74 0 0 1 1.48 0v6.28c0 .4-.33.74-.74.74zm3.83-9.69c.4 0 .74.33.74.74v10.54c0 1.1-.9 2.01-2.02 2.01h-8.92c-1.1 0-2.01-.9-2.01-2.01v-10.57a.74.74 0 0 1 1.48 0v10.57c0 .3.24.53.53.53h8.92c.3 0 .54-.24.54-.53v-10.54c0-.4.33-.74.74-.74zm-7.65 9.69a.74.74 0 0 1-.74-.74v-6.28a.74.74 0 0 1 1.48 0v6.28c0 .4-.33.74-.74.74z"/></defs><g><g opacity=".54" transform="translate(-551 -287)"><use xlink:href="#qewca"/><use fill="#fff" fill-opacity="0" stroke="#fff" stroke-miterlimit="50" stroke-width=".4" xlink:href="#qewca"/></g></g></svg>