<?xml version="1.0" encoding="UTF-8"?>
<svg width="20px" height="19px" viewBox="0 0 20 19" version="1.1" xmlns="http://www.w3.org/2000/svg" xmlns:xlink="http://www.w3.org/1999/xlink">
    <!-- Generator: Sketch 52.5 (67469) - http://www.bohemiancoding.com/sketch -->
    <title>edit</title>
    <desc>Created with Sketch.</desc>
    <g id="Page-1" stroke="none" stroke-width="1" fill="none" fill-rule="evenodd" opacity="0.400000006">
        <g id="Stock-Manager-1" transform="translate(-1133.000000, -483.000000)" fill="#000000" fill-rule="nonzero" stroke="#000000" stroke-width="0.3">
            <g id="Group-6" transform="translate(1045.000000, 481.000000)">
                <g id="Group-8" transform="translate(46.000000, 0.000000)">
                    <g id="edit" transform="translate(40.000000, 0.000000)">
                        <path d="M8.78460482,12.7810241 C8.77288262,12.7959432 8.76116047,12.8116667 8.75589254,12.830587 L7.85105273,16.1480045 C7.79829287,16.341149 7.85233956,16.5492731 7.99531799,16.6959913 C8.10226531,16.8004655 8.24317277,16.8578901 8.39324885,16.8578901 C8.44281176,16.8578901 8.4924752,16.8519587 8.54135447,16.8389698 L11.835227,15.9405842 C11.8405151,15.9405842 11.8430686,15.9452088 11.8470498,15.9452088 C11.8848905,15.9452088 11.9220677,15.9314357 11.9501366,15.9027435 L20.7580789,7.09608799 C21.0197067,6.83411836 21.1631677,6.4772654 21.1631677,6.08900585 C21.1631677,5.64907218 20.976578,5.2093195 20.6498246,4.8834308 L19.8179921,4.05027125 C19.4917415,3.72351797 19.0513655,3.53658637 18.611633,3.53658637 C18.2234739,3.53658637 17.8666411,3.68008757 17.6043497,3.9413937 L8.79771439,12.7504017 C8.78856582,12.7588063 8.79113945,12.7712523 8.78460482,12.7810241 Z M19.8962272,6.23359284 L19.0213463,7.10781018 L17.603083,5.66702746 L18.4655581,4.80453229 C18.601841,4.66750541 18.8660827,4.68749144 19.0226734,4.84464507 L19.8550689,5.67780462 C19.9419296,5.76452464 19.9914523,5.87997706 19.9914523,5.99414265 C19.9909296,6.08771903 19.9575927,6.17262944 19.8962272,6.23359284 Z M10.3510341,12.9193982 L16.7067082,6.56336213 L18.1256752,8.00510997 L11.7818238,14.3486598 L10.3510341,12.9193982 Z M9.19307154,15.4962874 L9.65236795,13.8104447 L10.8775068,15.0357042 L9.19307154,15.4962874 Z M19.9715266,9.72352541 C19.638118,9.72352541 19.3446412,9.99460337 19.3433544,10.332536 L19.3433544,18.5734303 C19.3433544,19.0039943 18.9936795,19.3379056 18.5624319,19.3379056 L5.01482779,19.3379056 C4.58424373,19.3379056 4.26332138,19.0040345 4.26332138,18.5734303 L4.26332138,5.01114829 C4.26332138,4.58024252 4.58422362,4.2558216 5.01482779,4.2558216 L14.3123069,4.2558216 C14.6475854,4.2558216 14.9196285,3.95788116 14.9196285,3.62250211 C14.9196285,3.28778659 14.6475653,3 14.3123069,3 L4.92217631,3.00000002 C3.87244795,3.00000002 3,3.86878857 3,4.91914023 L3,18.666122 C3,19.7165139 3.87246807,20.6000004 4.92217631,20.6000004 L18.6543596,20.6000004 C19.704852,20.6000004 20.5989347,19.7165139 20.5989347,18.666122 L20.5989347,10.3286956 C20.5976479,9.99460337 20.3048547,9.72352541 19.9715266,9.72352541 Z" id="Shape"></path>
                    </g>
                </g>
            </g>
        </g>
    </g>
</svg>