<?xml version="1.0" encoding="UTF-8"?>
<svg width="24px" height="14px" viewBox="0 0 24 14" version="1.1" xmlns="http://www.w3.org/2000/svg" xmlns:xlink="http://www.w3.org/1999/xlink">
    <!-- Generator: Sketch 52.5 (67469) - http://www.bohemiancoding.com/sketch -->
    <title>eye</title>
    <desc>Created with Sketch.</desc>
    <g id="Page-1" stroke="none" stroke-width="1" fill="none" fill-rule="evenodd" opacity="0.386137463">
        <g id="Stock-Manager-1" transform="translate(-1211.000000, -486.000000)" fill="#000000">
            <g id="eye" transform="translate(1211.000000, 486.000000)">
                <path d="M11.9739955,13.0729029 C9.28101129,13.0729029 6.38269977,12.0197201 3.59241535,10.0271242 C1.50652822,8.53760722 0.219088036,7.06190519 0.165291196,6.99971106 C-0.0550970655,6.74524605 -0.0550970655,6.36753047 0.165291196,6.11301129 C0.219088036,6.05092551 1.50647404,4.57511512 3.59241535,3.08559819 C6.38275395,1.09316479 9.28106546,0.0398735892 11.9739955,0.0398735892 C14.6669797,0.0398735892 17.5653454,1.09311061 20.3555756,3.08559819 C22.4414628,4.57511512 23.7289029,6.05087133 23.7826998,6.11301129 C24.003088,6.3674763 24.003088,6.74519187 23.7826998,6.99971106 C23.7289029,7.06179684 22.4415169,8.53760722 20.3555756,10.0271242 C17.5653454,12.0196659 14.6670339,13.0729029 11.9739955,13.0729029 Z M1.60567043,6.55644244 C2.12630248,7.08731377 3.10889391,8.02082167 4.40624831,8.94403612 C6.18484876,10.2096433 8.94154402,11.7185011 11.9739955,11.7185011 C15.006447,11.7185011 17.7631964,10.2096433 19.5417427,8.94403612 C20.8389345,8.0209842 21.8215801,7.08736795 22.3423205,6.55644244 C21.8217427,6.02557111 20.8390971,5.09206321 19.5417427,4.16884876 C17.7631964,2.90318736 15.006447,1.39438375 11.9739955,1.39438375 C8.94154402,1.39438375 6.18484876,2.90318736 4.40624831,4.16884876 C3.10905643,5.09190068 2.12641084,6.02540858 1.60567043,6.55644244 Z" id="Shape" fill-rule="nonzero"></path>
                <path d="M11.9739955,10.755088 C9.65883521,10.755088 7.77534989,8.87154853 7.77534989,6.55644244 C7.77534989,4.24133634 9.65883521,2.35779684 11.9739955,2.35779684 C12.9921806,2.35779684 13.9743928,2.7269526 14.7395756,3.39732731 C15.020912,3.64377427 15.0491919,4.07160271 14.8027449,4.35293905 C14.556298,4.6342754 14.1284153,4.66250113 13.8471332,4.41610835 C13.3289932,3.96216704 12.6637111,3.71219865 11.9739413,3.71219865 C10.4055982,3.71219865 9.12969752,4.9881535 9.12969752,6.55644244 C9.12969752,8.12473138 10.4055982,9.40068623 11.9739413,9.40068623 C13.5423386,9.40068623 14.8181851,8.12473138 14.8181851,6.55644244 C14.8181851,6.18246501 15.1214086,5.87924153 15.495386,5.87924153 C15.8693634,5.87924153 16.1725869,6.18246501 16.1725869,6.55644244 C16.1726953,8.87154853 14.2891558,10.755088 11.9739955,10.755088 Z" id="Path"></path>
                <path d="M11.9739955,7.91084424 C11.2271783,7.91084424 10.6195937,7.30325959 10.6195937,6.55644244 C10.6195937,5.80962528 11.2271783,5.20204063 11.9739955,5.20204063 C12.7208668,5.20204063 13.3283973,5.80962528 13.3283973,6.55644244 C13.3283973,7.30325959 12.7208668,7.91084424 11.9739955,7.91084424 Z" id="Path"></path>
            </g>
        </g>
    </g>
</svg>