<svg xmlns="http://www.w3.org/2000/svg" xmlns:xlink="http://www.w3.org/1999/xlink" width="21" height="20" viewBox="0 0 21 20"><defs><path id="p4gwa" d="M957.3 556.95l-3.98 3.55 1.08 5.09c.31 1.18-.97 2.29-2.24 1.66l-4.74-2.59-4.75 2.63a1.53 1.53 0 0 1-2.24-1.66l1.08-5.1-3.97-3.55c-1.04-.86-.48-2.53.85-2.7l5.4-.61 2.24-4.79c.5-1.18 2.26-1.16 2.78-.04l2.23 4.79 5.4.61c1.35.17 1.84 1.8.85 2.7zm-1-1.16l-6.26-.7-2.62-5.55-2.63 5.55-6.25.7 4.63 4.13-1.23 6.02 5.48-3.01 5.48 2.97-1.24-5.98z"/></defs><g><g opacity=".45" transform="translate(-937 -548)"><use xlink:href="#p4gwa"/></g></g></svg>