<svg xmlns="http://www.w3.org/2000/svg" xmlns:xlink="http://www.w3.org/1999/xlink" width="15" height="16.66" viewBox="0 0 15 16.66"><defs><path id="6svxa" d="M113.83 179.5h-11.66v9.17h11.66zm1.67-2.5v11.67c0 .92-.75 1.67-1.67 1.67h-11.66c-.93 0-1.67-.75-1.67-1.67V177c0-.91.74-1.66 1.67-1.66h.83v-1.67h1.67v1.67h6.66v-1.67H113v1.67h.83c.92 0 1.67.75 1.67 1.66zm-3.33 5.84h-1.67v-1.67h1.67zm-3.34 0h-1.66v-1.67h1.66zm-3.33 0h-1.67v-1.67h1.67z"/></defs><g><g opacity=".5" transform="translate(-100.5 -173.67)"><use xlink:href="#6svxa"/></g></g></svg>