<svg xmlns="http://www.w3.org/2000/svg" xmlns:xlink="http://www.w3.org/1999/xlink" width="23" height="22" viewBox="0 0 23 22"><defs><path id="t519a" d="M952.26 433.57a4.58 4.58 0 0 1-9.13 0 4.58 4.58 0 0 1 9.13 0zm-7.83 0c0 1.8 1.46 3.26 3.27 3.26 1.8 0 3.26-1.46 3.26-3.26 0-1.81-1.46-3.27-3.26-3.27a3.25 3.25 0 0 0-3.27 3.27zm3.48 5a8.9 8.9 0 0 1 8.92 8.9v.88c0 .36-.3.65-.66.65h-16.52a.65.65 0 0 1-.65-.65v-.87a8.9 8.9 0 0 1 8.91-8.91zm-7.6 8.9v.23h15.21v-.22c0-4.23-3.38-7.61-7.6-7.61a7.58 7.58 0 0 0-7.62 7.6z"/><path id="t519b" d="M948 443.5a6.5 6.5 0 1 1 13 0 6.5 6.5 0 0 1-13 0z"/><path id="t519c" d="M957.8 445.6c-.3-.53-1.63-1.6-2.07-1.6h-.08c-.2.08-.33.22-.44.34-.1.11-.2.22-.35.27h-.02c-.23 0-.87-.5-1.3-1.02-.3-.36-.36-.56-.34-.62a.82.82 0 0 1 .27-.34c.12-.11.26-.23.34-.44.02-.05.08-.22-.37-.84-.39-.54-1.13-1.35-1.47-1.35a.22.22 0 0 0-.11.03c-.5.3-.78.7-.85 1.2-.17 1.35 1.32 2.98 1.96 3.61.6.58 2.11 1.93 3.44 1.93.61 0 1.1-.28 1.44-.84.07-.12-.02-.28-.05-.33"/></defs><g><g opacity=".45" transform="translate(-939 -429)"><use xlink:href="#t519a"/></g><g opacity=".45" transform="translate(-939 -429)"><use fill="#d8d8d8" xlink:href="#t519b"/><use fill="#fff" fill-opacity="0" stroke="#000" stroke-miterlimit="50" xlink:href="#t519b"/></g><g opacity=".45" transform="translate(-939 -429)"><use xlink:href="#t519c"/></g></g></svg>