<?xml version="1.0" encoding="UTF-8"?>
<svg width="24px" height="21px" viewBox="0 0 24 21" version="1.1" xmlns="http://www.w3.org/2000/svg" xmlns:xlink="http://www.w3.org/1999/xlink">
    <!-- Generator: Sketch 61.2 (89653) - https://sketch.com -->
    <title>purchase</title>
    <desc>Created with Sketch.</desc>
    <g id="dump" stroke="none" stroke-width="1" fill="none" fill-rule="evenodd">
        <g id="Artboard" transform="translate(-91.000000, -148.000000)" fill="#000000" fill-rule="nonzero">
            <g id="purchase" transform="translate(91.000000, 149.000000)">
                <g id="car-repair">
                    <path d="M6.12707182,9.78176793 L2.70165746,9.78176793 C2.39779005,9.78176793 2.14917127,10.0303867 2.14917127,10.3342541 L2.14917127,12.7099447 C2.14917127,13.0138121 2.39779005,13.2624309 2.70165746,13.2624309 L6.12707182,13.2624309 C6.43093923,13.2624309 6.679558,13.0138121 6.679558,12.7099447 L6.679558,10.3342541 C6.679558,10.0303867 6.43093923,9.78176793 6.12707182,9.78176793 Z M5.57458563,12.1574585 L3.25414365,12.1574585 L3.25414365,10.8867403 L5.57458563,10.8867403 L5.57458563,12.1574585 Z" id="Shape"></path>
                    <path d="M11.4364641,2.26243094 L11.4364641,0.604972376 C11.4364641,0.301104973 11.1878453,0.0524861879 10.8839779,0.0524861879 C10.5801105,0.0524861879 10.3314917,0.301104973 10.3314917,0.604972376 L10.3314917,1.59944751 L4.81767956,1.59944751 C3.97790055,1.60497237 3.2320442,2.12983425 2.93922652,2.91436464 L1.28176795,7.38950273 C1.28176795,7.3950276 1.27624309,7.40607733 1.27624309,7.4116022 L0.861878453,7.79834253 C0.314917127,8.31215467 0,9.03038673 0,9.78176793 L0,16.3784531 C0,17.4834254 0.917127073,18.3508287 2.02209945,18.3508287 L3.22651934,18.3508287 C4.33149171,18.3508287 5.24861879,17.4779005 5.24861879,16.3784531 L5.24861879,15.5276243 L10.3314917,15.5276243 L10.3314917,19.0635359 C10.3314917,19.3674033 10.5801105,19.6160221 10.8839779,19.6160221 C11.1878453,19.6160221 11.4364641,19.3674033 11.4364641,19.0635359 L11.4364641,17.7375691 L11.4364641,2.26243094 Z M4.13812155,16.3729282 C4.13812155,16.8646409 3.71823205,17.2403315 3.22099447,17.2403315 L2.01657459,17.2403315 C1.52486188,17.2403315 1.09944751,16.8646409 1.09944751,16.3729282 L1.09944751,15.3342541 C1.38674033,15.4668508 1.70165746,15.5331492 2.01657459,15.5276243 L4.13812155,15.5276243 L4.13812155,16.3729282 Z M10.3259669,10.2790055 L8.59668507,10.2790055 C8.29281767,10.2790055 8.04419887,10.5276243 8.04419887,10.8314917 C8.04419887,11.1353591 8.29281767,11.3839779 8.59668507,11.3839779 L10.3259669,11.3839779 L10.3259669,11.660221 L8.59668507,11.660221 C8.29281767,11.660221 8.04419887,11.9088398 8.04419887,12.2127072 C8.04419887,12.5165746 8.29281767,12.7651934 8.59668507,12.7651934 L10.3259669,12.7651934 L10.3259669,14.4226519 L2.01657459,14.4226519 C1.52486188,14.4226519 1.09944751,14.0414365 1.09944751,13.5441989 L1.09944751,9.77624307 C1.10497237,9.32872927 1.29281768,8.89779007 1.61878453,8.59392267 L2.1160221,8.1243094 L10.3259669,8.1243094 L10.3259669,10.2790055 L10.3259669,10.2790055 Z M4.57458563,7.019337 C4.81767956,6.13535911 5.64640884,5.44475138 6.62983425,5.44475138 C7.61325967,5.44475138 8.43646407,6.13535911 8.679558,7.019337 L4.57458563,7.019337 Z M10.3259669,7.019337 L9.81215467,7.019337 C9.54696133,5.52762431 8.22099447,4.33977901 6.62983425,4.33977901 C5.03867403,4.33977901 3.70718232,5.52762431 3.44198895,7.019337 L2.59116022,7.019337 L3.97237569,3.29558011 C4.10497237,2.94198895 4.43646409,2.70994475 4.81215469,2.70994475 L10.3259669,2.70994475 L10.3259669,7.019337 Z" id="Shape"></path>
                </g>
                <g id="get-money" transform="translate(10.625000, 0.000000)" stroke="#000000">
                    <path d="M12.4535065,11.1648001 C12.4468095,11.148035 12.4367639,11.1346229 12.4267183,11.1212108 C11.9947575,10.5880803 11.2145493,10.5076079 10.6787841,10.9401477 C10.0090775,11.4866902 9.03465433,12.2746503 8.4017816,12.7876625 C7.95642673,13.1464359 7.40726733,13.3509702 6.8346682,13.3710883 L5.12021928,13.4280897 C5.04990009,13.4314427 4.98627796,13.3945595 4.94944409,13.3375581 L4.75857771,13.008962 C4.72509239,12.9553137 4.72174385,12.8916063 4.74853211,12.8346049 C4.77532038,12.7776035 4.82554837,12.7373673 4.88582197,12.7273082 L6.65719592,12.392006 C7.28002307,12.2746503 7.71533233,11.6845185 7.64501313,11.0440913 C7.57804247,10.4271353 7.05567133,9.96441833 6.43954128,9.96441833 C6.42279861,9.96441833 6.40270741,9.96441833 6.37926768,9.96441833 L4.01185441,9.86718073 C3.06756855,9.83365047 2.25722357,10.0147137 1.30958873,10.4740776 L0.0706315253,11.0742685 C-0.10349219,10.7121421 0.164390449,17.193533 0.167738982,16.6201663 L0.167738982,16.2748051 L1.48371245,16.0333875 C1.90897614,15.9696801 2.17685878,15.9462089 2.62891073,15.9663271 L6.2285837,16.1339782 C7.52446593,16.1909795 8.79356,15.7617928 9.78807427,14.9302434 L12.2827313,12.858076 L12.2860799,12.854723 C12.7850113,12.4288893 12.858679,11.6811654 12.4535065,11.1648001 Z M11.8541191,12.3417107 L9.3628106,14.4105251 C8.49554053,15.1347777 7.38717613,15.5069631 6.25872049,15.4600208 L2.65904753,15.2923697 C2.15341905,15.2688986 1.84535401,15.2990758 1.37990793,15.3661362 C1.37655939,15.3661362 1.37321086,15.3661362 1.36986233,15.3694893 L0.167738982,15.5907887 L0.167738982,11.768344 L1.6009111,11.0742685 C2.44474142,10.6651999 3.15797895,10.5042548 3.98506659,10.534432 L6.36922209,10.6316697 C6.38261621,10.6316697 6.39935888,10.6316697 6.41275301,10.6316697 C6.41610155,10.6316697 6.42949568,10.6316697 6.43954128,10.6316697 C6.714121,10.6350227 6.94851827,10.839557 6.9820036,11.1145047 C7.01548893,11.4028646 6.82127407,11.6711063 6.53664873,11.7281077 L4.76527478,12.0634099 C4.29982869,12.1505885 3.99511219,12.6032464 4.08217405,13.0693164 C4.10226525,13.166554 4.13575058,13.2604386 4.18597857,13.3442641 L4.37684495,13.6695073 C4.53757454,13.941102 4.83224544,14.1020471 5.14700754,14.091988 L6.86145647,14.0349866 C7.57804247,14.0081625 8.26784027,13.7499798 8.82704533,13.3040279 C9.45991807,12.7910156 10.4376897,12.0030555 11.1073963,11.456513 C11.3484907,11.2687437 11.6933895,11.2989209 11.8976501,11.5269264 C11.9043471,11.5403385 11.9143927,11.5537506 11.9244383,11.5671627 C12.1153047,11.7985212 12.0851679,12.1472354 11.8541191,12.3417107 Z" id="Shape" stroke-width="0.3"></path>
                    <path d="M8.0566406,0 C5.68272022,0 3.75,1.93198169 3.75,4.30499499 C3.75,6.67800827 5.68272022,8.61328127 8.0566406,8.61328127 C10.430561,8.61328127 12.3632813,6.68129953 12.3632813,4.30828627 C12.3632813,1.93527297 10.430561,0 8.0566406,0 Z M8.05993313,7.95502513 C6.04489948,7.95502513 4.40850774,6.32254997 4.40850774,4.30828627 C4.40850774,4.30828627 4.40850774,4.30828627 4.40850774,4.30499499 C4.41180028,2.29402256 6.04160694,0.661547395 8.0566406,0.658256114 C10.0716743,0.658256114 11.7080661,2.29073127 11.7080661,4.30499499 C11.7080661,6.31925869 10.0749669,7.95502513 8.05993313,7.95502513 Z" id="Shape" stroke-width="0.3"></path>
                    <path d="M9.15805353,3.14625491 L8.71031407,3.14625491 C8.67355933,2.98515584 8.61007387,2.83372272 8.5165164,2.69517752 L9.15805353,2.69517752 C9.3418272,2.69517752 9.49218747,2.55018836 9.49218747,2.37297939 C9.49218747,2.19577041 9.3418272,2.05078125 9.15805353,2.05078125 L6.54512608,2.05078125 C6.36135241,2.05078125 6.21099213,2.19577041 6.21099213,2.37297939 C6.21099213,2.55018836 6.36135241,2.69517752 6.54512608,2.69517752 L7.29358613,2.69517752 C7.607672,2.69517752 7.88166187,2.8884964 8.0052914,3.14625491 L6.54512608,3.14625491 C6.36135241,3.14625491 6.21099213,3.29124407 6.21099213,3.46845304 C6.21099213,3.64566202 6.36135241,3.79065118 6.54512608,3.79065118 L8.0052914,3.79065118 C7.961854,3.86475675 7.91173393,3.93241836 7.8515898,3.993636 C7.70122953,4.13540318 7.5007492,4.21273073 7.29358613,4.20950875 L6.54512608,4.20950875 C6.35801107,4.21273073 6.20765079,4.35771989 6.21099213,4.53815085 C6.21099213,4.62514435 6.2510882,4.70891586 6.31457365,4.77013351 L8.1823824,6.47456164 C8.316036,6.59699693 8.5265404,6.59055297 8.65351127,6.46167371 C8.7804822,6.33279446 8.77379953,6.12980964 8.64014593,6.00737435 L7.38046093,4.85712701 C7.73464293,4.83779511 8.06877687,4.69602794 8.31937733,4.45437933 C8.50983367,4.2707264 8.64348727,4.04196572 8.71031407,3.79065118 L9.15805353,3.79065118 C9.3418272,3.79065118 9.49218747,3.64566202 9.49218747,3.46845304 C9.49218747,3.29124407 9.3418272,3.14625491 9.15805353,3.14625491 Z" id="Path" stroke-width="0.1"></path>
                </g>
            </g>
        </g>
    </g>
</svg>