<svg height="24" viewBox="0 0 24 24" width="24" xmlns="http://www.w3.org/2000/svg"><g fill-rule="evenodd" opacity=".4" transform="translate(.8 6.1)"><path d="m11.5093078 7.55835276c-.3716165 0-.6574752-.28515289-.6574752-.65585166 0-.37069876.2858587-.65585166.6574752-.65585166.3716164 0 .6574751.2851529.6574751.65585166 0 .37069877-.2858587.65585166-.6574751.65585166z"/><path d="m2.73344328 7.55835276c-.37161641 0-.65747518-.28515289-.65747518-.65585166 0-.37069876.28585877-.65585166.65747518-.65585166s.65747519.2851529.65747519.65585166c0 .37069877-.28585878.65585166-.65747519.65585166z"/><g fill-rule="nonzero"><path d="m12.5638462 4.16767955.0817603.07621014-1.2577786-2.68043722c-.282292-.59448193-.8780071-.97025393-1.53650106-.97025393h-1.71515266-.85757633-.2572729-.85757634-1.71515266c-.65849393 0-1.25420904.375772-1.53620716.96963129l-1.25807253 2.68105986.08176029-.07621014-.88616221.34218348c-.50706007.18966908-.83920005.66824215-.83920005 1.19499591v1.82497853c0 .85615976.51961646 1.62502092 1.32086922 1.96317538l.04854585.02454876.06694942-.13423031h-.15v.6558517c0 .9098692.72471539 1.632795 1.63646565 1.632795s1.63646564-.7229258 1.63646564-1.632795v-.54179054l-.15.15h1.71515267.85757633.2572729.85757633 1.71515267l-.15-.15v.54179054c0 .9098692.72471533 1.632795 1.63646563 1.632795s1.6364657-.7229258 1.6364657-1.632795v-.6558517h-.15l.0669494.13423031.0571717-.02851529c.7926269-.33418793 1.3122434-1.10304909 1.3122434-1.95920885v-1.82497853c.0644977-.50534631-.2594062-.99950545-.7835067-1.19555782zm-8.14383613-2.84675166h2.60131488.14292938.14292939 2.60131488c.3702337 0 .7195245.22299413.894994.57306645l1.1413062 2.47640335.1362265-.21278794h-3.91626524-.85757634-.2572729-.85757633-3.91626525l.13681967.21148478 1.11484923-2.4808302c.14483674-.33706581.51273904-.56733644.89227193-.56733644zm-1.51505152 9.65183611c-.51754363 0-.93626335-.4176858-.93626335-.933581v-.54179054h-.15v.15h.11434351.14292939 1.88666793l-.15-.15v.54179054.15h.15.02858587v-.15h-.15c0 .5158952-.41871972.933581-.93626335.933581zm8.43283395 0c-.5175436 0-.9362634-.4176858-.9362634-.933581v-.54179054l-.15.15h1.886668.1429294.1143435v-.15h-.15v.54179054.15h.15.0285858v-.15h-.15c0 .5158952-.4187197.933581-.9362633.933581zm.8004046-2.0245856h-4.0306088-.85757633-.2572729-.85757633-4.03060877c-.77481652 0-1.42222327-.64580808-1.42222327-1.41834093v-1.82497853c0-.252664.13447476-.45387804.36296399-.54504805l.94260511-.37041015 4.11867706.01039248h.85757633.2572729.85757633 4.17353818l.8884728.36030629c.2277604.09088139.3622352.29209543.3622352.54475943v1.82497853.15h.15.0571717v-.15h-.15c0 .77253285-.6474067 1.41834093-1.4222232 1.41834093z"/><path d="m18.5228364 9.50481672-2.9896773-2.46251097c-.1725578-.14126534-.2036337-.42488058-.0609763-.5909863.1442902-.16801758.4277372-.19745166.5943512-.06097827l2.1309518 1.75655852.1784798-.08417845v-6.98857806c0-.23174024.1878488-.41959773.4195801-.41959773.2317194 0 .4195766.18786324.4195766.41959773v6.98857806l.1784799.08417831 2.1312051-1.75677381c.1679297-.13754132.4547197-.10898695.5924537.05922894.1419226.1733458.118573.43389216-.0626689.59580586l-2.9882708 2.4608809c-.1878678.12464213-.3641007.12635294-.5434849-.00122473z"/></g></g></svg>