<svg xmlns="http://www.w3.org/2000/svg" xmlns:xlink="http://www.w3.org/1999/xlink" width="16" height="21" viewBox="0 0 16 21"><defs><path id="cv6ya" d="M945.18 502.93l-.2-11.28c-.01-.28.22-.52.5-.53h.02c.28 0 .51.23.52.52l.2 11.27c.01.3-.22.53-.5.54h-.01a.52.52 0 0 1-.53-.52zm3.58.52a.52.52 0 0 1-.51-.54l.2-11.27c.01-.3.25-.52.53-.52h.01c.29 0 .52.25.51.53l-.2 11.28c-.01.29-.24.52-.53.52zm4.64-11.79l-.04 1.3c-.01.28-.24.5-.52.5h-.02a.52.52 0 0 1-.5-.54l.03-1.3a.52.52 0 0 1 1.05.03zm-.11 3.57l-.3 9.46c0 .92-.77 1.68-1.7 1.68h-8.1a1.7 1.7 0 0 1-1.7-1.7l-.41-13a.52.52 0 0 1 1.04-.04l.42 13.03c0 .37.3.66.65.66h8.1c.36 0 .64-.3.64-.65l.3-9.47c.02-.3.26-.52.55-.5.29 0 .52.24.5.53zm1.19-5.68c0 .29-.24.52-.53.52h-3.72-9.7a.52.52 0 1 1 0-1.05h3.29l.33-1.6a.52.52 0 0 1 .51-.42h5.15c.25 0 .47.17.52.42l.33 1.6h3.3c.28 0 .52.24.52.53zm-9.6-.53h4.7l-.2-.97h-4.29z"/></defs><g><g opacity=".45" transform="translate(-939 -486)"><use xlink:href="#cv6ya"/><use fill="#fff" fill-opacity="0" stroke="#000" stroke-miterlimit="50" stroke-width=".3" xlink:href="#cv6ya"/></g></g></svg>