<?xml version="1.0" encoding="UTF-8"?>
<svg width="24px" height="20px" viewBox="0 0 24 20" version="1.1" xmlns="http://www.w3.org/2000/svg" xmlns:xlink="http://www.w3.org/1999/xlink">
    <!-- Generator: Sketch 61.2 (89653) - https://sketch.com -->
    <title>sell</title>
    <desc>Created with Sketch.</desc>
    <g id="dump" stroke="none" stroke-width="1" fill="none" fill-rule="evenodd">
        <g id="Artboard" transform="translate(-112.000000, -117.000000)" fill="#000000" fill-rule="nonzero">
            <g id="sell" transform="translate(112.000000, 117.000000)">
                <g id="car-repair">
                    <path d="M6.12707182,9.78176793 L2.70165746,9.78176793 C2.39779005,9.78176793 2.14917127,10.0303867 2.14917127,10.3342541 L2.14917127,12.7099447 C2.14917127,13.0138121 2.39779005,13.2624309 2.70165746,13.2624309 L6.12707182,13.2624309 C6.43093923,13.2624309 6.679558,13.0138121 6.679558,12.7099447 L6.679558,10.3342541 C6.679558,10.0303867 6.43093923,9.78176793 6.12707182,9.78176793 Z M5.57458563,12.1574585 L3.25414365,12.1574585 L3.25414365,10.8867403 L5.57458563,10.8867403 L5.57458563,12.1574585 Z" id="Shape"></path>
                    <path d="M11.4364641,2.26243094 L11.4364641,0.604972376 C11.4364641,0.301104973 11.1878453,0.0524861879 10.8839779,0.0524861879 C10.5801105,0.0524861879 10.3314917,0.301104973 10.3314917,0.604972376 L10.3314917,1.59944751 L4.81767956,1.59944751 C3.97790055,1.60497237 3.2320442,2.12983425 2.93922652,2.91436464 L1.28176795,7.38950273 C1.28176795,7.3950276 1.27624309,7.40607733 1.27624309,7.4116022 L0.861878453,7.79834253 C0.314917127,8.31215467 0,9.03038673 0,9.78176793 L0,16.3784531 C0,17.4834254 0.917127073,18.3508287 2.02209945,18.3508287 L3.22651934,18.3508287 C4.33149171,18.3508287 5.24861879,17.4779005 5.24861879,16.3784531 L5.24861879,15.5276243 L10.3314917,15.5276243 L10.3314917,19.0635359 C10.3314917,19.3674033 10.5801105,19.6160221 10.8839779,19.6160221 C11.1878453,19.6160221 11.4364641,19.3674033 11.4364641,19.0635359 L11.4364641,17.7375691 L11.4364641,2.26243094 Z M4.13812155,16.3729282 C4.13812155,16.8646409 3.71823205,17.2403315 3.22099447,17.2403315 L2.01657459,17.2403315 C1.52486188,17.2403315 1.09944751,16.8646409 1.09944751,16.3729282 L1.09944751,15.3342541 C1.38674033,15.4668508 1.70165746,15.5331492 2.01657459,15.5276243 L4.13812155,15.5276243 L4.13812155,16.3729282 Z M10.3259669,10.2790055 L8.59668507,10.2790055 C8.29281767,10.2790055 8.04419887,10.5276243 8.04419887,10.8314917 C8.04419887,11.1353591 8.29281767,11.3839779 8.59668507,11.3839779 L10.3259669,11.3839779 L10.3259669,11.660221 L8.59668507,11.660221 C8.29281767,11.660221 8.04419887,11.9088398 8.04419887,12.2127072 C8.04419887,12.5165746 8.29281767,12.7651934 8.59668507,12.7651934 L10.3259669,12.7651934 L10.3259669,14.4226519 L2.01657459,14.4226519 C1.52486188,14.4226519 1.09944751,14.0414365 1.09944751,13.5441989 L1.09944751,9.77624307 C1.10497237,9.32872927 1.29281768,8.89779007 1.61878453,8.59392267 L2.1160221,8.1243094 L10.3259669,8.1243094 L10.3259669,10.2790055 L10.3259669,10.2790055 Z M4.57458563,7.019337 C4.81767956,6.13535911 5.64640884,5.44475138 6.62983425,5.44475138 C7.61325967,5.44475138 8.43646407,6.13535911 8.679558,7.019337 L4.57458563,7.019337 Z M10.3259669,7.019337 L9.81215467,7.019337 C9.54696133,5.52762431 8.22099447,4.33977901 6.62983425,4.33977901 C5.03867403,4.33977901 3.70718232,5.52762431 3.44198895,7.019337 L2.59116022,7.019337 L3.97237569,3.29558011 C4.10497237,2.94198895 4.43646409,2.70994475 4.81215469,2.70994475 L10.3259669,2.70994475 L10.3259669,7.019337 Z" id="Shape"></path>
                </g>
                <g id="tag-2" transform="translate(10.625000, 0.625000)">
                    <g id="tag">
                        <path d="M11.3247583,5.44160916 L7.11923345,1.41982049 C6.88263125,1.19340474 6.50942684,1.19340474 6.27282464,1.41982049 L2.06726524,5.44160916 C1.94640889,5.55714784 1.8780042,5.71702353 1.8780042,5.88421966 L1.8780042,15.4589089 C1.8780042,15.7972031 2.15217546,16.0713744 2.49046966,16.0713744 L10.9015194,16.0713744 C11.2398136,16.0713744 11.5139848,15.7972031 11.5139848,15.4589089 L11.5139848,5.88418513 C11.5139848,5.716989 11.4456147,5.55714784 11.3247583,5.44160916 Z M10.2890884,14.846478 L3.10293513,14.846478 L3.10293513,6.14592546 L6.69599452,2.70984121 L10.2890884,6.14592546 L10.2890884,14.846478 L10.2890884,14.846478 Z" id="Shape" transform="translate(6.695995, 8.660692) rotate(-16.000000) translate(-6.695995, -8.660692) "></path>
                        <path d="M6.0097721,5.33297652 C5.12047652,5.33297652 4.39696133,6.05649171 4.39696133,6.94578727 C4.39696133,7.83508287 5.12047652,8.55859807 6.0097721,8.55859807 C6.89906767,8.55859807 7.62258287,7.83508287 7.62258287,6.94578727 C7.62258287,6.05649171 6.89906767,5.33297652 6.0097721,5.33297652 Z M6.0097721,7.33366713 C5.79582182,7.33366713 5.62189227,7.1597376 5.62189227,6.94578727 C5.62189227,6.731837 5.79582182,6.55790746 6.0097721,6.55790746 C6.22351519,6.55790746 6.39765193,6.731837 6.39765193,6.94578727 C6.39765193,7.1597376 6.22372237,7.33366713 6.0097721,7.33366713 Z" id="Shape"></path>
                    </g>
                </g>
            </g>
        </g>
    </g>
</svg>