<svg xmlns="http://www.w3.org/2000/svg" xmlns:xlink="http://www.w3.org/1999/xlink" width="97" height="21" viewBox="0 0 97 21"><defs><path id="kg08a" d="M68 847.5c0-5.799 4.701-10.5 10.5-10.5h74c5.799 0 10.5 4.701 10.5 10.5s-4.701 10.5-10.5 10.5h-74c-5.799 0-10.5-4.701-10.5-10.5z"/><path id="kg08c" d="M87.852 847.21c-.284.194-.554.412-.831.616l-1.32.966c-.197.145-.197.146-.032.333.251.286.293.717.102 1.048-.191.332-.59.526-.965.435-.767-.187-1.53-.391-2.295-.589-.107-.027-.165-.091-.14-.2.027-.122.123-.139.232-.113.023.005.044.015.067.02.691.18 1.382.36 2.074.542.2.054.392.054.566-.07a.558.558 0 0 0 .239-.59c-.046-.243-.205-.394-.447-.457-1.145-.3-2.29-.6-3.438-.894-.664-.17-1.243-.004-1.732.468-.429.415-.85.837-1.277 1.255-.218.213-.439.423-.655.632l1.752 1.72c.27-.264.559-.531.828-.818a.566.566 0 0 1 .543-.19c.955.139 1.914.252 2.867.41.56.092 1.008-.013 1.395-.446.37-.414.784-.788 1.18-1.18.674-.67 1.35-1.336 2.023-2.005.194-.194.245-.464.141-.683-.104-.22-.288-.34-.495-.34a.68.68 0 0 0-.382.13z"/><path id="kg08d" d="M86.203 843.077a.568.568 0 0 1-.543.191c-.956-.14-1.915-.252-2.868-.41-.56-.094-1.007.012-1.396.447-.368.412-.783.787-1.178 1.178-.675.668-1.351 1.336-2.024 2.006a.635.635 0 0 0-.194.433v.028c.002.076.02.151.052.222.167.35.534.447.879.21.284-.195.553-.412.831-.617.438-.323.88-.644 1.319-.965.198-.145.196-.147.033-.333a.915.915 0 0 1-.103-1.048c.192-.332.592-.527.965-.436.767.187 1.53.392 2.294.589.108.028.166.093.141.2-.028.123-.123.139-.233.114-.022-.004-.043-.015-.066-.02-.691-.18-1.384-.359-2.073-.542-.202-.054-.393-.054-.568.069a.557.557 0 0 0-.238.59c.046.243.205.395.446.457 1.147.3 2.292.6 3.439.895.665.17 1.244.004 1.731-.469.43-.415.85-.836 1.277-1.253.22-.214.44-.425.656-.632l-1.753-1.721c-.268.264-.558.53-.826.817z"/><path id="kg08e" d="M148.982 848.046h-.841v3.257h-.976v-7.219h.976v3.193h.752l2.579-3.193h1.079l.015.025-2.797 3.466 3 3.703-.015.025h-1.163zm-7.569-.63h1.532c.55 0 .947-.105 1.19-.316.241-.21.363-.532.363-.963 0-.408-.118-.724-.354-.948-.235-.224-.602-.336-1.1-.336h-1.63zm-.002.758v3.129h-.975v-7.214h2.609c.788 0 1.39.175 1.806.526.416.35.624.859.624 1.527 0 .37-.097.692-.29.966-.193.275-.474.493-.843.655.395.129.68.338.853.627.174.29.26.647.26 1.073v.68c0 .224.025.426.074.605.05.178.136.323.258.436v.119h-1.005c-.129-.113-.211-.278-.247-.496a4.102 4.102 0 0 1-.055-.674v-.66c0-.39-.114-.704-.341-.942-.228-.238-.533-.357-.916-.357zm-6.36.452h2.42l-1.185-3.288h-.03zm2.715.818h-3.02l-.683 1.859h-.995l2.787-7.219h.837l2.743 7.219h-.996zm-11.667-5.36l2.298 5.865h.03l2.297-5.865h1.248v7.219h-.976v-2.856l.1-2.935-.026-.005-2.337 5.796h-.648l-2.328-5.781-.025.005.094 2.92v2.856h-.975v-7.219zm-2.265 1.29h-1.9v5.929h-1.678v-5.93h-1.886v-1.289h5.464zm-7.866 3.425c-.168-.139-.47-.286-.906-.441-.91-.288-1.585-.596-2.024-.925-.44-.329-.659-.804-.659-1.425 0-.605.262-1.094.785-1.468.523-.373 1.187-.56 1.992-.56.799 0 1.453.206 1.963.617.51.412.757.941.74 1.59l-.01.029h-1.623a.912.912 0 0 0-.292-.702c-.195-.18-.464-.27-.807-.27-.337 0-.6.075-.792.223-.192.15-.287.333-.287.55 0 .212.096.382.29.509.192.127.554.287 1.086.478.818.245 1.434.546 1.849.903.414.357.62.847.62 1.472 0 .635-.246 1.131-.74 1.49-.493.359-1.147.538-1.962.538-.818 0-1.526-.206-2.124-.617-.597-.412-.887-1.004-.87-1.778l.01-.03h1.628c0 .417.112.714.336.893.225.178.565.268 1.02.268.347 0 .605-.07.775-.209a.67.67 0 0 0 .255-.545c0-.254-.084-.451-.253-.59zm-4.684-4.715v4.736c0 .825-.273 1.463-.82 1.917-.546.453-1.261.68-2.146.68-.894 0-1.615-.227-2.163-.68-.548-.454-.822-1.092-.822-1.917v-4.736h1.679v4.736c0 .444.113.772.341.986.228.213.55.32.965.32.413 0 .73-.106.953-.318.223-.211.335-.54.335-.988v-4.736zm-10.94 3.173h1.101c.336 0 .593-.077.77-.231.178-.155.267-.377.267-.666 0-.296-.091-.534-.274-.715-.183-.181-.44-.272-.772-.272h-1.091zm0 1.28v2.766h-1.68v-7.219h2.777c.836 0 1.499.193 1.988.58.49.387.734.916.734 1.587 0 .373-.098.694-.295.962-.197.267-.487.485-.87.654.443.126.76.335.954.627.194.293.29.657.29 1.093v.457c0 .188.029.403.085.644.056.241.153.413.292.516v.099h-1.725c-.133-.103-.22-.284-.26-.546a4.653 4.653 0 0 1-.063-.723v-.437c0-.343-.09-.606-.272-.788-.182-.182-.448-.273-.799-.273zm-2.37-3.164h-1.9v5.93h-1.678v-5.93H92.51v-1.289h5.464z"/><clipPath id="kg08b"><use fill="#fff" xlink:href="#kg08a"/></clipPath></defs><g><g transform="translate(-67 -837)"><use fill="#fff" fill-opacity=".87" xlink:href="#kg08a"/><use fill="#fff" fill-opacity="0" stroke="gray" stroke-miterlimit="50" stroke-width="2" clip-path="url(&quot;#kg08b&quot;)" xlink:href="#kg08a"/></g><g transform="translate(-67 -837)"><g><use fill="#ef5c2b" xlink:href="#kg08c"/></g><g><use fill="#0063ad" xlink:href="#kg08d"/></g><g><use fill="#0063ad" xlink:href="#kg08e"/></g></g></g></svg>